%TF.GenerationSoftware,KiCad,Pcbnew,8.0.5*%
%TF.CreationDate,2024-10-01T19:03:58-07:00*%
%TF.ProjectId,MRIRobot_PCB,4d524952-6f62-46f7-945f-5043422e6b69,rev?*%
%TF.SameCoordinates,Original*%
%TF.FileFunction,Paste,Top*%
%TF.FilePolarity,Positive*%
%FSLAX46Y46*%
G04 Gerber Fmt 4.6, Leading zero omitted, Abs format (unit mm)*
G04 Created by KiCad (PCBNEW 8.0.5) date 2024-10-01 19:03:58*
%MOMM*%
%LPD*%
G01*
G04 APERTURE LIST*
G04 Aperture macros list*
%AMRoundRect*
0 Rectangle with rounded corners*
0 $1 Rounding radius*
0 $2 $3 $4 $5 $6 $7 $8 $9 X,Y pos of 4 corners*
0 Add a 4 corners polygon primitive as box body*
4,1,4,$2,$3,$4,$5,$6,$7,$8,$9,$2,$3,0*
0 Add four circle primitives for the rounded corners*
1,1,$1+$1,$2,$3*
1,1,$1+$1,$4,$5*
1,1,$1+$1,$6,$7*
1,1,$1+$1,$8,$9*
0 Add four rect primitives between the rounded corners*
20,1,$1+$1,$2,$3,$4,$5,0*
20,1,$1+$1,$4,$5,$6,$7,0*
20,1,$1+$1,$6,$7,$8,$9,0*
20,1,$1+$1,$8,$9,$2,$3,0*%
G04 Aperture macros list end*
%ADD10RoundRect,0.250000X0.475000X-0.337500X0.475000X0.337500X-0.475000X0.337500X-0.475000X-0.337500X0*%
%ADD11RoundRect,0.250000X-0.450000X0.262500X-0.450000X-0.262500X0.450000X-0.262500X0.450000X0.262500X0*%
%ADD12R,0.610000X1.910000*%
%ADD13R,0.930000X0.723000*%
%ADD14RoundRect,0.250000X0.450000X-0.262500X0.450000X0.262500X-0.450000X0.262500X-0.450000X-0.262500X0*%
%ADD15RoundRect,0.250000X-0.650000X1.500000X-0.650000X-1.500000X0.650000X-1.500000X0.650000X1.500000X0*%
%ADD16RoundRect,0.250000X-0.450000X0.325000X-0.450000X-0.325000X0.450000X-0.325000X0.450000X0.325000X0*%
%ADD17RoundRect,0.250000X0.325000X0.450000X-0.325000X0.450000X-0.325000X-0.450000X0.325000X-0.450000X0*%
%ADD18RoundRect,0.250000X-0.337500X-0.475000X0.337500X-0.475000X0.337500X0.475000X-0.337500X0.475000X0*%
%ADD19RoundRect,0.100000X0.100000X-0.637500X0.100000X0.637500X-0.100000X0.637500X-0.100000X-0.637500X0*%
%ADD20RoundRect,0.250000X-0.475000X0.337500X-0.475000X-0.337500X0.475000X-0.337500X0.475000X0.337500X0*%
%ADD21RoundRect,0.250000X0.650000X-1.500000X0.650000X1.500000X-0.650000X1.500000X-0.650000X-1.500000X0*%
%ADD22RoundRect,0.250000X-0.262500X-0.450000X0.262500X-0.450000X0.262500X0.450000X-0.262500X0.450000X0*%
%ADD23R,0.400000X1.200000*%
%ADD24R,1.500000X2.200000*%
%ADD25RoundRect,0.250000X-0.250000X-0.475000X0.250000X-0.475000X0.250000X0.475000X-0.250000X0.475000X0*%
%ADD26RoundRect,0.250000X0.250000X0.475000X-0.250000X0.475000X-0.250000X-0.475000X0.250000X-0.475000X0*%
%ADD27RoundRect,0.237500X0.237500X-0.250000X0.237500X0.250000X-0.237500X0.250000X-0.237500X-0.250000X0*%
%ADD28RoundRect,0.250000X0.337500X0.475000X-0.337500X0.475000X-0.337500X-0.475000X0.337500X-0.475000X0*%
%ADD29RoundRect,0.150000X-0.150000X-0.425000X0.150000X-0.425000X0.150000X0.425000X-0.150000X0.425000X0*%
%ADD30RoundRect,0.075000X-0.075000X-0.500000X0.075000X-0.500000X0.075000X0.500000X-0.075000X0.500000X0*%
%ADD31O,1.000000X2.100000*%
%ADD32O,1.000000X1.800000*%
%ADD33RoundRect,0.100000X-0.100000X0.637500X-0.100000X-0.637500X0.100000X-0.637500X0.100000X0.637500X0*%
G04 APERTURE END LIST*
D10*
%TO.C,C22*%
X109500000Y-103825000D03*
X109500000Y-101750000D03*
%TD*%
D11*
%TO.C,R58*%
X224000000Y-116175000D03*
X224000000Y-118000000D03*
%TD*%
D12*
%TO.C,U4*%
X204460000Y-126677500D03*
X205730000Y-126677500D03*
X207000000Y-126677500D03*
X208270000Y-126677500D03*
X208270000Y-121117500D03*
X207000000Y-121117500D03*
X205730000Y-121117500D03*
X204460000Y-121117500D03*
D13*
X205590000Y-124500000D03*
X207140000Y-124500000D03*
X205590000Y-123295000D03*
X207140000Y-123295000D03*
%TD*%
D14*
%TO.C,R63*%
X223000000Y-130530000D03*
X223000000Y-128705000D03*
%TD*%
D15*
%TO.C,D1*%
X64250000Y-146000000D03*
X64250000Y-151000000D03*
%TD*%
D16*
%TO.C,D12*%
X119500000Y-152662500D03*
X119500000Y-154712500D03*
%TD*%
D17*
%TO.C,D7*%
X220317621Y-149000000D03*
X218267621Y-149000000D03*
%TD*%
D18*
%TO.C,R69*%
X222292621Y-149040000D03*
X224367621Y-149040000D03*
%TD*%
D19*
%TO.C,U3*%
X105600000Y-112250000D03*
X106250000Y-112250000D03*
X106900000Y-112250000D03*
X107550000Y-112250000D03*
X108200000Y-112250000D03*
X108850000Y-112250000D03*
X109500000Y-112250000D03*
X110150000Y-112250000D03*
X110150000Y-106525000D03*
X109500000Y-106525000D03*
X108850000Y-106525000D03*
X108200000Y-106525000D03*
X107550000Y-106525000D03*
X106900000Y-106525000D03*
X106250000Y-106525000D03*
X105600000Y-106525000D03*
%TD*%
D20*
%TO.C,C23*%
X63500000Y-122962500D03*
X63500000Y-125037500D03*
%TD*%
D12*
%TO.C,U5*%
X217230000Y-126677500D03*
X218500000Y-126677500D03*
X219770000Y-126677500D03*
X221040000Y-126677500D03*
X221040000Y-121117500D03*
X219770000Y-121117500D03*
X218500000Y-121117500D03*
X217230000Y-121117500D03*
D13*
X218360000Y-124500000D03*
X219910000Y-124500000D03*
X218360000Y-123295000D03*
X219910000Y-123295000D03*
%TD*%
D18*
%TO.C,R68*%
X210292621Y-149000000D03*
X212367621Y-149000000D03*
%TD*%
D10*
%TO.C,R6*%
X112250000Y-150787500D03*
X112250000Y-148712500D03*
%TD*%
D21*
%TO.C,D4*%
X203317621Y-148000000D03*
X203317621Y-143000000D03*
%TD*%
D11*
%TO.C,R56*%
X209500000Y-116500000D03*
X209500000Y-118325000D03*
%TD*%
D22*
%TO.C,R62*%
X223000000Y-126617500D03*
X224825000Y-126617500D03*
%TD*%
D21*
%TO.C,D5*%
X215317621Y-148000000D03*
X215317621Y-143000000D03*
%TD*%
D11*
%TO.C,R57*%
X210500000Y-123292500D03*
X210500000Y-125117500D03*
%TD*%
D16*
%TO.C,D9*%
X106000000Y-152687500D03*
X106000000Y-154737500D03*
%TD*%
D10*
%TO.C,R74*%
X112250000Y-160462500D03*
X112250000Y-158387500D03*
%TD*%
%TO.C,C27*%
X105500000Y-103787500D03*
X105500000Y-101712500D03*
%TD*%
D16*
%TO.C,D11*%
X119500000Y-162437500D03*
X119500000Y-164487500D03*
%TD*%
D10*
%TO.C,R70*%
X106000000Y-160500000D03*
X106000000Y-158425000D03*
%TD*%
D23*
%TO.C,U2*%
X75607500Y-141300000D03*
X74972500Y-141300000D03*
X74337500Y-141300000D03*
X73702500Y-141300000D03*
X73067500Y-141300000D03*
X72432500Y-141300000D03*
X71797500Y-141300000D03*
X71162500Y-141300000D03*
X70527500Y-141300000D03*
X69892500Y-141300000D03*
X69892500Y-146500000D03*
X70527500Y-146500000D03*
X71162500Y-146500000D03*
X71797500Y-146500000D03*
X72432500Y-146500000D03*
X73067500Y-146500000D03*
X73702500Y-146500000D03*
X74337500Y-146500000D03*
X74972500Y-146500000D03*
X75607500Y-146500000D03*
%TD*%
D24*
%TO.C,L1*%
X202000000Y-134500000D03*
X208400000Y-134500000D03*
%TD*%
D25*
%TO.C,C5*%
X218050000Y-116500000D03*
X219950000Y-116500000D03*
%TD*%
D26*
%TO.C,C9*%
X215450000Y-127000000D03*
X213550000Y-127000000D03*
%TD*%
D18*
%TO.C,R20*%
X101925000Y-106250000D03*
X104000000Y-106250000D03*
%TD*%
D21*
%TO.C,D2*%
X199000000Y-135500000D03*
X199000000Y-130500000D03*
%TD*%
D27*
%TO.C,R22*%
X70750000Y-151912500D03*
X70750000Y-150087500D03*
%TD*%
D10*
%TO.C,R5*%
X119500000Y-150787500D03*
X119500000Y-148712500D03*
%TD*%
D20*
%TO.C,C26*%
X67500000Y-122962500D03*
X67500000Y-125037500D03*
%TD*%
D28*
%TO.C,R23*%
X71075000Y-120500000D03*
X69000000Y-120500000D03*
%TD*%
D10*
%TO.C,R75*%
X119460000Y-160537500D03*
X119460000Y-158462500D03*
%TD*%
D29*
%TO.C,J4*%
X68480000Y-158245000D03*
X69280000Y-158245000D03*
D30*
X70430000Y-158245000D03*
X71430000Y-158245000D03*
X71930000Y-158245000D03*
X72930000Y-158245000D03*
D29*
X74080000Y-158245000D03*
X74880000Y-158245000D03*
X74880000Y-158245000D03*
X74080000Y-158245000D03*
D30*
X73430000Y-158245000D03*
X72430000Y-158245000D03*
X70930000Y-158245000D03*
X69930000Y-158245000D03*
D29*
X69280000Y-158245000D03*
X68480000Y-158245000D03*
D31*
X67360000Y-158820000D03*
D32*
X67360000Y-163000000D03*
D31*
X76000000Y-158820000D03*
D32*
X76000000Y-163000000D03*
%TD*%
D18*
%TO.C,C25*%
X72962500Y-120500000D03*
X75037500Y-120500000D03*
%TD*%
D21*
%TO.C,D3*%
X211500000Y-135000000D03*
X211500000Y-130000000D03*
%TD*%
D33*
%TO.C,U6*%
X67525000Y-114887500D03*
X66875000Y-114887500D03*
X66225000Y-114887500D03*
X65575000Y-114887500D03*
X64925000Y-114887500D03*
X64275000Y-114887500D03*
X63625000Y-114887500D03*
X62975000Y-114887500D03*
X62975000Y-120612500D03*
X63625000Y-120612500D03*
X64275000Y-120612500D03*
X64925000Y-120612500D03*
X65575000Y-120612500D03*
X66225000Y-120612500D03*
X66875000Y-120612500D03*
X67525000Y-120612500D03*
%TD*%
D26*
%TO.C,C8*%
X202750000Y-127000000D03*
X200850000Y-127000000D03*
%TD*%
D17*
%TO.C,D6*%
X208317621Y-149000000D03*
X206267621Y-149000000D03*
%TD*%
D16*
%TO.C,D10*%
X112250000Y-162400000D03*
X112250000Y-164450000D03*
%TD*%
D24*
%TO.C,L2*%
X214300000Y-134500000D03*
X220700000Y-134500000D03*
%TD*%
D16*
%TO.C,D8*%
X106000000Y-162437500D03*
X106000000Y-164487500D03*
%TD*%
D27*
%TO.C,R21*%
X72750000Y-151912500D03*
X72750000Y-150087500D03*
%TD*%
D16*
%TO.C,D13*%
X112250000Y-152662500D03*
X112250000Y-154712500D03*
%TD*%
D25*
%TO.C,C4*%
X204600000Y-116500000D03*
X206500000Y-116500000D03*
%TD*%
D11*
%TO.C,R59*%
X223500000Y-121617500D03*
X223500000Y-123442500D03*
%TD*%
D28*
%TO.C,C24*%
X100037500Y-106250000D03*
X97962500Y-106250000D03*
%TD*%
D10*
%TO.C,R71*%
X106000000Y-150750000D03*
X106000000Y-148675000D03*
%TD*%
M02*
