%TF.GenerationSoftware,KiCad,Pcbnew,8.0.5*%
%TF.CreationDate,2024-10-01T19:03:58-07:00*%
%TF.ProjectId,MRIRobot_PCB,4d524952-6f62-46f7-945f-5043422e6b69,rev?*%
%TF.SameCoordinates,Original*%
%TF.FileFunction,Paste,Bot*%
%TF.FilePolarity,Positive*%
%FSLAX46Y46*%
G04 Gerber Fmt 4.6, Leading zero omitted, Abs format (unit mm)*
G04 Created by KiCad (PCBNEW 8.0.5) date 2024-10-01 19:03:58*
%MOMM*%
%LPD*%
G01*
G04 APERTURE LIST*
G04 Aperture macros list*
%AMRoundRect*
0 Rectangle with rounded corners*
0 $1 Rounding radius*
0 $2 $3 $4 $5 $6 $7 $8 $9 X,Y pos of 4 corners*
0 Add a 4 corners polygon primitive as box body*
4,1,4,$2,$3,$4,$5,$6,$7,$8,$9,$2,$3,0*
0 Add four circle primitives for the rounded corners*
1,1,$1+$1,$2,$3*
1,1,$1+$1,$4,$5*
1,1,$1+$1,$6,$7*
1,1,$1+$1,$8,$9*
0 Add four rect primitives between the rounded corners*
20,1,$1+$1,$2,$3,$4,$5,0*
20,1,$1+$1,$4,$5,$6,$7,0*
20,1,$1+$1,$6,$7,$8,$9,0*
20,1,$1+$1,$8,$9,$2,$3,0*%
G04 Aperture macros list end*
%ADD10RoundRect,0.250000X0.475000X-0.337500X0.475000X0.337500X-0.475000X0.337500X-0.475000X-0.337500X0*%
%ADD11RoundRect,0.250000X0.337500X0.475000X-0.337500X0.475000X-0.337500X-0.475000X0.337500X-0.475000X0*%
%ADD12RoundRect,0.237500X0.237500X-0.250000X0.237500X0.250000X-0.237500X0.250000X-0.237500X-0.250000X0*%
%ADD13RoundRect,0.250000X-0.450000X0.262500X-0.450000X-0.262500X0.450000X-0.262500X0.450000X0.262500X0*%
%ADD14RoundRect,0.237500X-0.300000X-0.237500X0.300000X-0.237500X0.300000X0.237500X-0.300000X0.237500X0*%
%ADD15RoundRect,0.250000X0.450000X-0.262500X0.450000X0.262500X-0.450000X0.262500X-0.450000X-0.262500X0*%
G04 APERTURE END LIST*
D10*
%TO.C,R11*%
X136750000Y-81575000D03*
X136750000Y-79500000D03*
%TD*%
D11*
%TO.C,C6*%
X70250000Y-77500000D03*
X68175000Y-77500000D03*
%TD*%
D10*
%TO.C,R10*%
X115250000Y-81537500D03*
X115250000Y-79462500D03*
%TD*%
%TO.C,R19*%
X204250000Y-81575000D03*
X204250000Y-79500000D03*
%TD*%
D11*
%TO.C,C14*%
X115250000Y-77500000D03*
X113175000Y-77500000D03*
%TD*%
%TO.C,C19*%
X181750000Y-77500000D03*
X179675000Y-77500000D03*
%TD*%
D12*
%TO.C,R13*%
X74750000Y-153662500D03*
X74750000Y-151837500D03*
%TD*%
D13*
%TO.C,R2*%
X69000000Y-114250000D03*
X69000000Y-116075000D03*
%TD*%
D10*
%TO.C,R12*%
X148000000Y-81575000D03*
X148000000Y-79500000D03*
%TD*%
D11*
%TO.C,C12*%
X92750000Y-77500000D03*
X90675000Y-77500000D03*
%TD*%
%TO.C,C16*%
X148000000Y-77500000D03*
X145925000Y-77500000D03*
%TD*%
D14*
%TO.C,C1*%
X71387500Y-144500000D03*
X73112500Y-144500000D03*
%TD*%
D15*
%TO.C,R3*%
X113250000Y-112412500D03*
X113250000Y-110587500D03*
%TD*%
D11*
%TO.C,C13*%
X104000000Y-77500000D03*
X101925000Y-77500000D03*
%TD*%
%TO.C,C18*%
X170500000Y-77500000D03*
X168425000Y-77500000D03*
%TD*%
D10*
%TO.C,R15*%
X159250000Y-81575000D03*
X159250000Y-79500000D03*
%TD*%
D13*
%TO.C,R4*%
X113250000Y-106837500D03*
X113250000Y-108662500D03*
%TD*%
D11*
%TO.C,C15*%
X136750000Y-77500000D03*
X134675000Y-77500000D03*
%TD*%
D15*
%TO.C,R1*%
X69000000Y-119662500D03*
X69000000Y-117837500D03*
%TD*%
D10*
%TO.C,R18*%
X193000000Y-81575000D03*
X193000000Y-79500000D03*
%TD*%
%TO.C,R8*%
X92750000Y-81537500D03*
X92750000Y-79462500D03*
%TD*%
D11*
%TO.C,C21*%
X204287500Y-77500000D03*
X202212500Y-77500000D03*
%TD*%
D10*
%TO.C,R17*%
X181750000Y-81575000D03*
X181750000Y-79500000D03*
%TD*%
D11*
%TO.C,C20*%
X193037500Y-77500000D03*
X190962500Y-77500000D03*
%TD*%
D10*
%TO.C,R7*%
X81500000Y-81575000D03*
X81500000Y-79500000D03*
%TD*%
D11*
%TO.C,C17*%
X159250000Y-77500000D03*
X157175000Y-77500000D03*
%TD*%
D10*
%TO.C,R9*%
X104000000Y-81537500D03*
X104000000Y-79462500D03*
%TD*%
%TO.C,R16*%
X170500000Y-81575000D03*
X170500000Y-79500000D03*
%TD*%
D12*
%TO.C,R14*%
X69000000Y-153912500D03*
X69000000Y-152087500D03*
%TD*%
D11*
%TO.C,C7*%
X81500000Y-77500000D03*
X79425000Y-77500000D03*
%TD*%
D10*
%TO.C,R54*%
X70250000Y-81575000D03*
X70250000Y-79500000D03*
%TD*%
M02*
