%TF.GenerationSoftware,KiCad,Pcbnew,8.0.5*%
%TF.CreationDate,2024-10-01T19:03:58-07:00*%
%TF.ProjectId,MRIRobot_PCB,4d524952-6f62-46f7-945f-5043422e6b69,rev?*%
%TF.SameCoordinates,Original*%
%TF.FileFunction,Legend,Top*%
%TF.FilePolarity,Positive*%
%FSLAX46Y46*%
G04 Gerber Fmt 4.6, Leading zero omitted, Abs format (unit mm)*
G04 Created by KiCad (PCBNEW 8.0.5) date 2024-10-01 19:03:58*
%MOMM*%
%LPD*%
G01*
G04 APERTURE LIST*
%ADD10C,0.150000*%
%ADD11C,0.120000*%
%ADD12C,0.127000*%
%ADD13C,0.200000*%
G04 APERTURE END LIST*
D10*
X108179580Y-103430357D02*
X108227200Y-103477976D01*
X108227200Y-103477976D02*
X108274819Y-103620833D01*
X108274819Y-103620833D02*
X108274819Y-103716071D01*
X108274819Y-103716071D02*
X108227200Y-103858928D01*
X108227200Y-103858928D02*
X108131961Y-103954166D01*
X108131961Y-103954166D02*
X108036723Y-104001785D01*
X108036723Y-104001785D02*
X107846247Y-104049404D01*
X107846247Y-104049404D02*
X107703390Y-104049404D01*
X107703390Y-104049404D02*
X107512914Y-104001785D01*
X107512914Y-104001785D02*
X107417676Y-103954166D01*
X107417676Y-103954166D02*
X107322438Y-103858928D01*
X107322438Y-103858928D02*
X107274819Y-103716071D01*
X107274819Y-103716071D02*
X107274819Y-103620833D01*
X107274819Y-103620833D02*
X107322438Y-103477976D01*
X107322438Y-103477976D02*
X107370057Y-103430357D01*
X107370057Y-103049404D02*
X107322438Y-103001785D01*
X107322438Y-103001785D02*
X107274819Y-102906547D01*
X107274819Y-102906547D02*
X107274819Y-102668452D01*
X107274819Y-102668452D02*
X107322438Y-102573214D01*
X107322438Y-102573214D02*
X107370057Y-102525595D01*
X107370057Y-102525595D02*
X107465295Y-102477976D01*
X107465295Y-102477976D02*
X107560533Y-102477976D01*
X107560533Y-102477976D02*
X107703390Y-102525595D01*
X107703390Y-102525595D02*
X108274819Y-103097023D01*
X108274819Y-103097023D02*
X108274819Y-102477976D01*
X107370057Y-102097023D02*
X107322438Y-102049404D01*
X107322438Y-102049404D02*
X107274819Y-101954166D01*
X107274819Y-101954166D02*
X107274819Y-101716071D01*
X107274819Y-101716071D02*
X107322438Y-101620833D01*
X107322438Y-101620833D02*
X107370057Y-101573214D01*
X107370057Y-101573214D02*
X107465295Y-101525595D01*
X107465295Y-101525595D02*
X107560533Y-101525595D01*
X107560533Y-101525595D02*
X107703390Y-101573214D01*
X107703390Y-101573214D02*
X108274819Y-102144642D01*
X108274819Y-102144642D02*
X108274819Y-101525595D01*
X89916666Y-68654819D02*
X89916666Y-69369104D01*
X89916666Y-69369104D02*
X89869047Y-69511961D01*
X89869047Y-69511961D02*
X89773809Y-69607200D01*
X89773809Y-69607200D02*
X89630952Y-69654819D01*
X89630952Y-69654819D02*
X89535714Y-69654819D01*
X90297619Y-68654819D02*
X90916666Y-68654819D01*
X90916666Y-68654819D02*
X90583333Y-69035771D01*
X90583333Y-69035771D02*
X90726190Y-69035771D01*
X90726190Y-69035771D02*
X90821428Y-69083390D01*
X90821428Y-69083390D02*
X90869047Y-69131009D01*
X90869047Y-69131009D02*
X90916666Y-69226247D01*
X90916666Y-69226247D02*
X90916666Y-69464342D01*
X90916666Y-69464342D02*
X90869047Y-69559580D01*
X90869047Y-69559580D02*
X90821428Y-69607200D01*
X90821428Y-69607200D02*
X90726190Y-69654819D01*
X90726190Y-69654819D02*
X90440476Y-69654819D01*
X90440476Y-69654819D02*
X90345238Y-69607200D01*
X90345238Y-69607200D02*
X90297619Y-69559580D01*
X78074819Y-95478094D02*
X78884342Y-95478094D01*
X78884342Y-95478094D02*
X78979580Y-95430475D01*
X78979580Y-95430475D02*
X79027200Y-95382856D01*
X79027200Y-95382856D02*
X79074819Y-95287618D01*
X79074819Y-95287618D02*
X79074819Y-95097142D01*
X79074819Y-95097142D02*
X79027200Y-95001904D01*
X79027200Y-95001904D02*
X78979580Y-94954285D01*
X78979580Y-94954285D02*
X78884342Y-94906666D01*
X78884342Y-94906666D02*
X78074819Y-94906666D01*
X79074819Y-93906666D02*
X79074819Y-94478094D01*
X79074819Y-94192380D02*
X78074819Y-94192380D01*
X78074819Y-94192380D02*
X78217676Y-94287618D01*
X78217676Y-94287618D02*
X78312914Y-94382856D01*
X78312914Y-94382856D02*
X78360533Y-94478094D01*
X78503390Y-93335237D02*
X78455771Y-93430475D01*
X78455771Y-93430475D02*
X78408152Y-93478094D01*
X78408152Y-93478094D02*
X78312914Y-93525713D01*
X78312914Y-93525713D02*
X78265295Y-93525713D01*
X78265295Y-93525713D02*
X78170057Y-93478094D01*
X78170057Y-93478094D02*
X78122438Y-93430475D01*
X78122438Y-93430475D02*
X78074819Y-93335237D01*
X78074819Y-93335237D02*
X78074819Y-93144761D01*
X78074819Y-93144761D02*
X78122438Y-93049523D01*
X78122438Y-93049523D02*
X78170057Y-93001904D01*
X78170057Y-93001904D02*
X78265295Y-92954285D01*
X78265295Y-92954285D02*
X78312914Y-92954285D01*
X78312914Y-92954285D02*
X78408152Y-93001904D01*
X78408152Y-93001904D02*
X78455771Y-93049523D01*
X78455771Y-93049523D02*
X78503390Y-93144761D01*
X78503390Y-93144761D02*
X78503390Y-93335237D01*
X78503390Y-93335237D02*
X78551009Y-93430475D01*
X78551009Y-93430475D02*
X78598628Y-93478094D01*
X78598628Y-93478094D02*
X78693866Y-93525713D01*
X78693866Y-93525713D02*
X78884342Y-93525713D01*
X78884342Y-93525713D02*
X78979580Y-93478094D01*
X78979580Y-93478094D02*
X79027200Y-93430475D01*
X79027200Y-93430475D02*
X79074819Y-93335237D01*
X79074819Y-93335237D02*
X79074819Y-93144761D01*
X79074819Y-93144761D02*
X79027200Y-93049523D01*
X79027200Y-93049523D02*
X78979580Y-93001904D01*
X78979580Y-93001904D02*
X78884342Y-92954285D01*
X78884342Y-92954285D02*
X78693866Y-92954285D01*
X78693866Y-92954285D02*
X78598628Y-93001904D01*
X78598628Y-93001904D02*
X78551009Y-93049523D01*
X78551009Y-93049523D02*
X78503390Y-93144761D01*
X118084819Y-133248094D02*
X118894342Y-133248094D01*
X118894342Y-133248094D02*
X118989580Y-133200475D01*
X118989580Y-133200475D02*
X119037200Y-133152856D01*
X119037200Y-133152856D02*
X119084819Y-133057618D01*
X119084819Y-133057618D02*
X119084819Y-132867142D01*
X119084819Y-132867142D02*
X119037200Y-132771904D01*
X119037200Y-132771904D02*
X118989580Y-132724285D01*
X118989580Y-132724285D02*
X118894342Y-132676666D01*
X118894342Y-132676666D02*
X118084819Y-132676666D01*
X119084819Y-131676666D02*
X119084819Y-132248094D01*
X119084819Y-131962380D02*
X118084819Y-131962380D01*
X118084819Y-131962380D02*
X118227676Y-132057618D01*
X118227676Y-132057618D02*
X118322914Y-132152856D01*
X118322914Y-132152856D02*
X118370533Y-132248094D01*
X118084819Y-131343332D02*
X118084819Y-130724285D01*
X118084819Y-130724285D02*
X118465771Y-131057618D01*
X118465771Y-131057618D02*
X118465771Y-130914761D01*
X118465771Y-130914761D02*
X118513390Y-130819523D01*
X118513390Y-130819523D02*
X118561009Y-130771904D01*
X118561009Y-130771904D02*
X118656247Y-130724285D01*
X118656247Y-130724285D02*
X118894342Y-130724285D01*
X118894342Y-130724285D02*
X118989580Y-130771904D01*
X118989580Y-130771904D02*
X119037200Y-130819523D01*
X119037200Y-130819523D02*
X119084819Y-130914761D01*
X119084819Y-130914761D02*
X119084819Y-131200475D01*
X119084819Y-131200475D02*
X119037200Y-131295713D01*
X119037200Y-131295713D02*
X118989580Y-131343332D01*
X225454819Y-114642857D02*
X224978628Y-114976190D01*
X225454819Y-115214285D02*
X224454819Y-115214285D01*
X224454819Y-115214285D02*
X224454819Y-114833333D01*
X224454819Y-114833333D02*
X224502438Y-114738095D01*
X224502438Y-114738095D02*
X224550057Y-114690476D01*
X224550057Y-114690476D02*
X224645295Y-114642857D01*
X224645295Y-114642857D02*
X224788152Y-114642857D01*
X224788152Y-114642857D02*
X224883390Y-114690476D01*
X224883390Y-114690476D02*
X224931009Y-114738095D01*
X224931009Y-114738095D02*
X224978628Y-114833333D01*
X224978628Y-114833333D02*
X224978628Y-115214285D01*
X224454819Y-113738095D02*
X224454819Y-114214285D01*
X224454819Y-114214285D02*
X224931009Y-114261904D01*
X224931009Y-114261904D02*
X224883390Y-114214285D01*
X224883390Y-114214285D02*
X224835771Y-114119047D01*
X224835771Y-114119047D02*
X224835771Y-113880952D01*
X224835771Y-113880952D02*
X224883390Y-113785714D01*
X224883390Y-113785714D02*
X224931009Y-113738095D01*
X224931009Y-113738095D02*
X225026247Y-113690476D01*
X225026247Y-113690476D02*
X225264342Y-113690476D01*
X225264342Y-113690476D02*
X225359580Y-113738095D01*
X225359580Y-113738095D02*
X225407200Y-113785714D01*
X225407200Y-113785714D02*
X225454819Y-113880952D01*
X225454819Y-113880952D02*
X225454819Y-114119047D01*
X225454819Y-114119047D02*
X225407200Y-114214285D01*
X225407200Y-114214285D02*
X225359580Y-114261904D01*
X224883390Y-113119047D02*
X224835771Y-113214285D01*
X224835771Y-113214285D02*
X224788152Y-113261904D01*
X224788152Y-113261904D02*
X224692914Y-113309523D01*
X224692914Y-113309523D02*
X224645295Y-113309523D01*
X224645295Y-113309523D02*
X224550057Y-113261904D01*
X224550057Y-113261904D02*
X224502438Y-113214285D01*
X224502438Y-113214285D02*
X224454819Y-113119047D01*
X224454819Y-113119047D02*
X224454819Y-112928571D01*
X224454819Y-112928571D02*
X224502438Y-112833333D01*
X224502438Y-112833333D02*
X224550057Y-112785714D01*
X224550057Y-112785714D02*
X224645295Y-112738095D01*
X224645295Y-112738095D02*
X224692914Y-112738095D01*
X224692914Y-112738095D02*
X224788152Y-112785714D01*
X224788152Y-112785714D02*
X224835771Y-112833333D01*
X224835771Y-112833333D02*
X224883390Y-112928571D01*
X224883390Y-112928571D02*
X224883390Y-113119047D01*
X224883390Y-113119047D02*
X224931009Y-113214285D01*
X224931009Y-113214285D02*
X224978628Y-113261904D01*
X224978628Y-113261904D02*
X225073866Y-113309523D01*
X225073866Y-113309523D02*
X225264342Y-113309523D01*
X225264342Y-113309523D02*
X225359580Y-113261904D01*
X225359580Y-113261904D02*
X225407200Y-113214285D01*
X225407200Y-113214285D02*
X225454819Y-113119047D01*
X225454819Y-113119047D02*
X225454819Y-112928571D01*
X225454819Y-112928571D02*
X225407200Y-112833333D01*
X225407200Y-112833333D02*
X225359580Y-112785714D01*
X225359580Y-112785714D02*
X225264342Y-112738095D01*
X225264342Y-112738095D02*
X225073866Y-112738095D01*
X225073866Y-112738095D02*
X224978628Y-112785714D01*
X224978628Y-112785714D02*
X224931009Y-112833333D01*
X224931009Y-112833333D02*
X224883390Y-112928571D01*
X205738095Y-128072319D02*
X205738095Y-128881842D01*
X205738095Y-128881842D02*
X205785714Y-128977080D01*
X205785714Y-128977080D02*
X205833333Y-129024700D01*
X205833333Y-129024700D02*
X205928571Y-129072319D01*
X205928571Y-129072319D02*
X206119047Y-129072319D01*
X206119047Y-129072319D02*
X206214285Y-129024700D01*
X206214285Y-129024700D02*
X206261904Y-128977080D01*
X206261904Y-128977080D02*
X206309523Y-128881842D01*
X206309523Y-128881842D02*
X206309523Y-128072319D01*
X207214285Y-128405652D02*
X207214285Y-129072319D01*
X206976190Y-128024700D02*
X206738095Y-128738985D01*
X206738095Y-128738985D02*
X207357142Y-128738985D01*
X225454819Y-130260357D02*
X224978628Y-130593690D01*
X225454819Y-130831785D02*
X224454819Y-130831785D01*
X224454819Y-130831785D02*
X224454819Y-130450833D01*
X224454819Y-130450833D02*
X224502438Y-130355595D01*
X224502438Y-130355595D02*
X224550057Y-130307976D01*
X224550057Y-130307976D02*
X224645295Y-130260357D01*
X224645295Y-130260357D02*
X224788152Y-130260357D01*
X224788152Y-130260357D02*
X224883390Y-130307976D01*
X224883390Y-130307976D02*
X224931009Y-130355595D01*
X224931009Y-130355595D02*
X224978628Y-130450833D01*
X224978628Y-130450833D02*
X224978628Y-130831785D01*
X224454819Y-129403214D02*
X224454819Y-129593690D01*
X224454819Y-129593690D02*
X224502438Y-129688928D01*
X224502438Y-129688928D02*
X224550057Y-129736547D01*
X224550057Y-129736547D02*
X224692914Y-129831785D01*
X224692914Y-129831785D02*
X224883390Y-129879404D01*
X224883390Y-129879404D02*
X225264342Y-129879404D01*
X225264342Y-129879404D02*
X225359580Y-129831785D01*
X225359580Y-129831785D02*
X225407200Y-129784166D01*
X225407200Y-129784166D02*
X225454819Y-129688928D01*
X225454819Y-129688928D02*
X225454819Y-129498452D01*
X225454819Y-129498452D02*
X225407200Y-129403214D01*
X225407200Y-129403214D02*
X225359580Y-129355595D01*
X225359580Y-129355595D02*
X225264342Y-129307976D01*
X225264342Y-129307976D02*
X225026247Y-129307976D01*
X225026247Y-129307976D02*
X224931009Y-129355595D01*
X224931009Y-129355595D02*
X224883390Y-129403214D01*
X224883390Y-129403214D02*
X224835771Y-129498452D01*
X224835771Y-129498452D02*
X224835771Y-129688928D01*
X224835771Y-129688928D02*
X224883390Y-129784166D01*
X224883390Y-129784166D02*
X224931009Y-129831785D01*
X224931009Y-129831785D02*
X225026247Y-129879404D01*
X224454819Y-128974642D02*
X224454819Y-128355595D01*
X224454819Y-128355595D02*
X224835771Y-128688928D01*
X224835771Y-128688928D02*
X224835771Y-128546071D01*
X224835771Y-128546071D02*
X224883390Y-128450833D01*
X224883390Y-128450833D02*
X224931009Y-128403214D01*
X224931009Y-128403214D02*
X225026247Y-128355595D01*
X225026247Y-128355595D02*
X225264342Y-128355595D01*
X225264342Y-128355595D02*
X225359580Y-128403214D01*
X225359580Y-128403214D02*
X225407200Y-128450833D01*
X225407200Y-128450833D02*
X225454819Y-128546071D01*
X225454819Y-128546071D02*
X225454819Y-128831785D01*
X225454819Y-128831785D02*
X225407200Y-128927023D01*
X225407200Y-128927023D02*
X225359580Y-128974642D01*
X85556667Y-147917200D02*
X85699524Y-147964819D01*
X85699524Y-147964819D02*
X85937619Y-147964819D01*
X85937619Y-147964819D02*
X86032857Y-147917200D01*
X86032857Y-147917200D02*
X86080476Y-147869580D01*
X86080476Y-147869580D02*
X86128095Y-147774342D01*
X86128095Y-147774342D02*
X86128095Y-147679104D01*
X86128095Y-147679104D02*
X86080476Y-147583866D01*
X86080476Y-147583866D02*
X86032857Y-147536247D01*
X86032857Y-147536247D02*
X85937619Y-147488628D01*
X85937619Y-147488628D02*
X85747143Y-147441009D01*
X85747143Y-147441009D02*
X85651905Y-147393390D01*
X85651905Y-147393390D02*
X85604286Y-147345771D01*
X85604286Y-147345771D02*
X85556667Y-147250533D01*
X85556667Y-147250533D02*
X85556667Y-147155295D01*
X85556667Y-147155295D02*
X85604286Y-147060057D01*
X85604286Y-147060057D02*
X85651905Y-147012438D01*
X85651905Y-147012438D02*
X85747143Y-146964819D01*
X85747143Y-146964819D02*
X85985238Y-146964819D01*
X85985238Y-146964819D02*
X86128095Y-147012438D01*
X86461429Y-146964819D02*
X86699524Y-147964819D01*
X86699524Y-147964819D02*
X86890000Y-147250533D01*
X86890000Y-147250533D02*
X87080476Y-147964819D01*
X87080476Y-147964819D02*
X87318572Y-146964819D01*
X88128095Y-147298152D02*
X88128095Y-147964819D01*
X87890000Y-146917200D02*
X87651905Y-147631485D01*
X87651905Y-147631485D02*
X88270952Y-147631485D01*
X67204819Y-149238094D02*
X66204819Y-149238094D01*
X66204819Y-149238094D02*
X66204819Y-148999999D01*
X66204819Y-148999999D02*
X66252438Y-148857142D01*
X66252438Y-148857142D02*
X66347676Y-148761904D01*
X66347676Y-148761904D02*
X66442914Y-148714285D01*
X66442914Y-148714285D02*
X66633390Y-148666666D01*
X66633390Y-148666666D02*
X66776247Y-148666666D01*
X66776247Y-148666666D02*
X66966723Y-148714285D01*
X66966723Y-148714285D02*
X67061961Y-148761904D01*
X67061961Y-148761904D02*
X67157200Y-148857142D01*
X67157200Y-148857142D02*
X67204819Y-148999999D01*
X67204819Y-148999999D02*
X67204819Y-149238094D01*
X67204819Y-147714285D02*
X67204819Y-148285713D01*
X67204819Y-147999999D02*
X66204819Y-147999999D01*
X66204819Y-147999999D02*
X66347676Y-148095237D01*
X66347676Y-148095237D02*
X66442914Y-148190475D01*
X66442914Y-148190475D02*
X66490533Y-148285713D01*
X121604819Y-154901785D02*
X120604819Y-154901785D01*
X120604819Y-154901785D02*
X120604819Y-154663690D01*
X120604819Y-154663690D02*
X120652438Y-154520833D01*
X120652438Y-154520833D02*
X120747676Y-154425595D01*
X120747676Y-154425595D02*
X120842914Y-154377976D01*
X120842914Y-154377976D02*
X121033390Y-154330357D01*
X121033390Y-154330357D02*
X121176247Y-154330357D01*
X121176247Y-154330357D02*
X121366723Y-154377976D01*
X121366723Y-154377976D02*
X121461961Y-154425595D01*
X121461961Y-154425595D02*
X121557200Y-154520833D01*
X121557200Y-154520833D02*
X121604819Y-154663690D01*
X121604819Y-154663690D02*
X121604819Y-154901785D01*
X121604819Y-153377976D02*
X121604819Y-153949404D01*
X121604819Y-153663690D02*
X120604819Y-153663690D01*
X120604819Y-153663690D02*
X120747676Y-153758928D01*
X120747676Y-153758928D02*
X120842914Y-153854166D01*
X120842914Y-153854166D02*
X120890533Y-153949404D01*
X120700057Y-152997023D02*
X120652438Y-152949404D01*
X120652438Y-152949404D02*
X120604819Y-152854166D01*
X120604819Y-152854166D02*
X120604819Y-152616071D01*
X120604819Y-152616071D02*
X120652438Y-152520833D01*
X120652438Y-152520833D02*
X120700057Y-152473214D01*
X120700057Y-152473214D02*
X120795295Y-152425595D01*
X120795295Y-152425595D02*
X120890533Y-152425595D01*
X120890533Y-152425595D02*
X121033390Y-152473214D01*
X121033390Y-152473214D02*
X121604819Y-153044642D01*
X121604819Y-153044642D02*
X121604819Y-152425595D01*
X218579526Y-151454819D02*
X218579526Y-150454819D01*
X218579526Y-150454819D02*
X218817621Y-150454819D01*
X218817621Y-150454819D02*
X218960478Y-150502438D01*
X218960478Y-150502438D02*
X219055716Y-150597676D01*
X219055716Y-150597676D02*
X219103335Y-150692914D01*
X219103335Y-150692914D02*
X219150954Y-150883390D01*
X219150954Y-150883390D02*
X219150954Y-151026247D01*
X219150954Y-151026247D02*
X219103335Y-151216723D01*
X219103335Y-151216723D02*
X219055716Y-151311961D01*
X219055716Y-151311961D02*
X218960478Y-151407200D01*
X218960478Y-151407200D02*
X218817621Y-151454819D01*
X218817621Y-151454819D02*
X218579526Y-151454819D01*
X219484288Y-150454819D02*
X220150954Y-150454819D01*
X220150954Y-150454819D02*
X219722383Y-151454819D01*
X222674763Y-151454819D02*
X222341430Y-150978628D01*
X222103335Y-151454819D02*
X222103335Y-150454819D01*
X222103335Y-150454819D02*
X222484287Y-150454819D01*
X222484287Y-150454819D02*
X222579525Y-150502438D01*
X222579525Y-150502438D02*
X222627144Y-150550057D01*
X222627144Y-150550057D02*
X222674763Y-150645295D01*
X222674763Y-150645295D02*
X222674763Y-150788152D01*
X222674763Y-150788152D02*
X222627144Y-150883390D01*
X222627144Y-150883390D02*
X222579525Y-150931009D01*
X222579525Y-150931009D02*
X222484287Y-150978628D01*
X222484287Y-150978628D02*
X222103335Y-150978628D01*
X223531906Y-150454819D02*
X223341430Y-150454819D01*
X223341430Y-150454819D02*
X223246192Y-150502438D01*
X223246192Y-150502438D02*
X223198573Y-150550057D01*
X223198573Y-150550057D02*
X223103335Y-150692914D01*
X223103335Y-150692914D02*
X223055716Y-150883390D01*
X223055716Y-150883390D02*
X223055716Y-151264342D01*
X223055716Y-151264342D02*
X223103335Y-151359580D01*
X223103335Y-151359580D02*
X223150954Y-151407200D01*
X223150954Y-151407200D02*
X223246192Y-151454819D01*
X223246192Y-151454819D02*
X223436668Y-151454819D01*
X223436668Y-151454819D02*
X223531906Y-151407200D01*
X223531906Y-151407200D02*
X223579525Y-151359580D01*
X223579525Y-151359580D02*
X223627144Y-151264342D01*
X223627144Y-151264342D02*
X223627144Y-151026247D01*
X223627144Y-151026247D02*
X223579525Y-150931009D01*
X223579525Y-150931009D02*
X223531906Y-150883390D01*
X223531906Y-150883390D02*
X223436668Y-150835771D01*
X223436668Y-150835771D02*
X223246192Y-150835771D01*
X223246192Y-150835771D02*
X223150954Y-150883390D01*
X223150954Y-150883390D02*
X223103335Y-150931009D01*
X223103335Y-150931009D02*
X223055716Y-151026247D01*
X224103335Y-151454819D02*
X224293811Y-151454819D01*
X224293811Y-151454819D02*
X224389049Y-151407200D01*
X224389049Y-151407200D02*
X224436668Y-151359580D01*
X224436668Y-151359580D02*
X224531906Y-151216723D01*
X224531906Y-151216723D02*
X224579525Y-151026247D01*
X224579525Y-151026247D02*
X224579525Y-150645295D01*
X224579525Y-150645295D02*
X224531906Y-150550057D01*
X224531906Y-150550057D02*
X224484287Y-150502438D01*
X224484287Y-150502438D02*
X224389049Y-150454819D01*
X224389049Y-150454819D02*
X224198573Y-150454819D01*
X224198573Y-150454819D02*
X224103335Y-150502438D01*
X224103335Y-150502438D02*
X224055716Y-150550057D01*
X224055716Y-150550057D02*
X224008097Y-150645295D01*
X224008097Y-150645295D02*
X224008097Y-150883390D01*
X224008097Y-150883390D02*
X224055716Y-150978628D01*
X224055716Y-150978628D02*
X224103335Y-151026247D01*
X224103335Y-151026247D02*
X224198573Y-151073866D01*
X224198573Y-151073866D02*
X224389049Y-151073866D01*
X224389049Y-151073866D02*
X224484287Y-151026247D01*
X224484287Y-151026247D02*
X224531906Y-150978628D01*
X224531906Y-150978628D02*
X224579525Y-150883390D01*
X118084819Y-122248094D02*
X118894342Y-122248094D01*
X118894342Y-122248094D02*
X118989580Y-122200475D01*
X118989580Y-122200475D02*
X119037200Y-122152856D01*
X119037200Y-122152856D02*
X119084819Y-122057618D01*
X119084819Y-122057618D02*
X119084819Y-121867142D01*
X119084819Y-121867142D02*
X119037200Y-121771904D01*
X119037200Y-121771904D02*
X118989580Y-121724285D01*
X118989580Y-121724285D02*
X118894342Y-121676666D01*
X118894342Y-121676666D02*
X118084819Y-121676666D01*
X119084819Y-120676666D02*
X119084819Y-121248094D01*
X119084819Y-120962380D02*
X118084819Y-120962380D01*
X118084819Y-120962380D02*
X118227676Y-121057618D01*
X118227676Y-121057618D02*
X118322914Y-121152856D01*
X118322914Y-121152856D02*
X118370533Y-121248094D01*
X118418152Y-119819523D02*
X119084819Y-119819523D01*
X118037200Y-120057618D02*
X118751485Y-120295713D01*
X118751485Y-120295713D02*
X118751485Y-119676666D01*
X218656667Y-110417200D02*
X218799524Y-110464819D01*
X218799524Y-110464819D02*
X219037619Y-110464819D01*
X219037619Y-110464819D02*
X219132857Y-110417200D01*
X219132857Y-110417200D02*
X219180476Y-110369580D01*
X219180476Y-110369580D02*
X219228095Y-110274342D01*
X219228095Y-110274342D02*
X219228095Y-110179104D01*
X219228095Y-110179104D02*
X219180476Y-110083866D01*
X219180476Y-110083866D02*
X219132857Y-110036247D01*
X219132857Y-110036247D02*
X219037619Y-109988628D01*
X219037619Y-109988628D02*
X218847143Y-109941009D01*
X218847143Y-109941009D02*
X218751905Y-109893390D01*
X218751905Y-109893390D02*
X218704286Y-109845771D01*
X218704286Y-109845771D02*
X218656667Y-109750533D01*
X218656667Y-109750533D02*
X218656667Y-109655295D01*
X218656667Y-109655295D02*
X218704286Y-109560057D01*
X218704286Y-109560057D02*
X218751905Y-109512438D01*
X218751905Y-109512438D02*
X218847143Y-109464819D01*
X218847143Y-109464819D02*
X219085238Y-109464819D01*
X219085238Y-109464819D02*
X219228095Y-109512438D01*
X219561429Y-109464819D02*
X219799524Y-110464819D01*
X219799524Y-110464819D02*
X219990000Y-109750533D01*
X219990000Y-109750533D02*
X220180476Y-110464819D01*
X220180476Y-110464819D02*
X220418572Y-109464819D01*
X220751905Y-109560057D02*
X220799524Y-109512438D01*
X220799524Y-109512438D02*
X220894762Y-109464819D01*
X220894762Y-109464819D02*
X221132857Y-109464819D01*
X221132857Y-109464819D02*
X221228095Y-109512438D01*
X221228095Y-109512438D02*
X221275714Y-109560057D01*
X221275714Y-109560057D02*
X221323333Y-109655295D01*
X221323333Y-109655295D02*
X221323333Y-109750533D01*
X221323333Y-109750533D02*
X221275714Y-109893390D01*
X221275714Y-109893390D02*
X220704286Y-110464819D01*
X220704286Y-110464819D02*
X221323333Y-110464819D01*
X93084819Y-133248094D02*
X93894342Y-133248094D01*
X93894342Y-133248094D02*
X93989580Y-133200475D01*
X93989580Y-133200475D02*
X94037200Y-133152856D01*
X94037200Y-133152856D02*
X94084819Y-133057618D01*
X94084819Y-133057618D02*
X94084819Y-132867142D01*
X94084819Y-132867142D02*
X94037200Y-132771904D01*
X94037200Y-132771904D02*
X93989580Y-132724285D01*
X93989580Y-132724285D02*
X93894342Y-132676666D01*
X93894342Y-132676666D02*
X93084819Y-132676666D01*
X94084819Y-131676666D02*
X94084819Y-132248094D01*
X94084819Y-131962380D02*
X93084819Y-131962380D01*
X93084819Y-131962380D02*
X93227676Y-132057618D01*
X93227676Y-132057618D02*
X93322914Y-132152856D01*
X93322914Y-132152856D02*
X93370533Y-132248094D01*
X93084819Y-131057618D02*
X93084819Y-130962380D01*
X93084819Y-130962380D02*
X93132438Y-130867142D01*
X93132438Y-130867142D02*
X93180057Y-130819523D01*
X93180057Y-130819523D02*
X93275295Y-130771904D01*
X93275295Y-130771904D02*
X93465771Y-130724285D01*
X93465771Y-130724285D02*
X93703866Y-130724285D01*
X93703866Y-130724285D02*
X93894342Y-130771904D01*
X93894342Y-130771904D02*
X93989580Y-130819523D01*
X93989580Y-130819523D02*
X94037200Y-130867142D01*
X94037200Y-130867142D02*
X94084819Y-130962380D01*
X94084819Y-130962380D02*
X94084819Y-131057618D01*
X94084819Y-131057618D02*
X94037200Y-131152856D01*
X94037200Y-131152856D02*
X93989580Y-131200475D01*
X93989580Y-131200475D02*
X93894342Y-131248094D01*
X93894342Y-131248094D02*
X93703866Y-131295713D01*
X93703866Y-131295713D02*
X93465771Y-131295713D01*
X93465771Y-131295713D02*
X93275295Y-131248094D01*
X93275295Y-131248094D02*
X93180057Y-131200475D01*
X93180057Y-131200475D02*
X93132438Y-131152856D01*
X93132438Y-131152856D02*
X93084819Y-131057618D01*
X212826667Y-91897200D02*
X212969524Y-91944819D01*
X212969524Y-91944819D02*
X213207619Y-91944819D01*
X213207619Y-91944819D02*
X213302857Y-91897200D01*
X213302857Y-91897200D02*
X213350476Y-91849580D01*
X213350476Y-91849580D02*
X213398095Y-91754342D01*
X213398095Y-91754342D02*
X213398095Y-91659104D01*
X213398095Y-91659104D02*
X213350476Y-91563866D01*
X213350476Y-91563866D02*
X213302857Y-91516247D01*
X213302857Y-91516247D02*
X213207619Y-91468628D01*
X213207619Y-91468628D02*
X213017143Y-91421009D01*
X213017143Y-91421009D02*
X212921905Y-91373390D01*
X212921905Y-91373390D02*
X212874286Y-91325771D01*
X212874286Y-91325771D02*
X212826667Y-91230533D01*
X212826667Y-91230533D02*
X212826667Y-91135295D01*
X212826667Y-91135295D02*
X212874286Y-91040057D01*
X212874286Y-91040057D02*
X212921905Y-90992438D01*
X212921905Y-90992438D02*
X213017143Y-90944819D01*
X213017143Y-90944819D02*
X213255238Y-90944819D01*
X213255238Y-90944819D02*
X213398095Y-90992438D01*
X213731429Y-90944819D02*
X213969524Y-91944819D01*
X213969524Y-91944819D02*
X214160000Y-91230533D01*
X214160000Y-91230533D02*
X214350476Y-91944819D01*
X214350476Y-91944819D02*
X214588572Y-90944819D01*
X214874286Y-90944819D02*
X215540952Y-90944819D01*
X215540952Y-90944819D02*
X215112381Y-91944819D01*
X217107142Y-140109580D02*
X217059523Y-140157200D01*
X217059523Y-140157200D02*
X216916666Y-140204819D01*
X216916666Y-140204819D02*
X216821428Y-140204819D01*
X216821428Y-140204819D02*
X216678571Y-140157200D01*
X216678571Y-140157200D02*
X216583333Y-140061961D01*
X216583333Y-140061961D02*
X216535714Y-139966723D01*
X216535714Y-139966723D02*
X216488095Y-139776247D01*
X216488095Y-139776247D02*
X216488095Y-139633390D01*
X216488095Y-139633390D02*
X216535714Y-139442914D01*
X216535714Y-139442914D02*
X216583333Y-139347676D01*
X216583333Y-139347676D02*
X216678571Y-139252438D01*
X216678571Y-139252438D02*
X216821428Y-139204819D01*
X216821428Y-139204819D02*
X216916666Y-139204819D01*
X216916666Y-139204819D02*
X217059523Y-139252438D01*
X217059523Y-139252438D02*
X217107142Y-139300057D01*
X218059523Y-140204819D02*
X217488095Y-140204819D01*
X217773809Y-140204819D02*
X217773809Y-139204819D01*
X217773809Y-139204819D02*
X217678571Y-139347676D01*
X217678571Y-139347676D02*
X217583333Y-139442914D01*
X217583333Y-139442914D02*
X217488095Y-139490533D01*
X219011904Y-140204819D02*
X218440476Y-140204819D01*
X218726190Y-140204819D02*
X218726190Y-139204819D01*
X218726190Y-139204819D02*
X218630952Y-139347676D01*
X218630952Y-139347676D02*
X218535714Y-139442914D01*
X218535714Y-139442914D02*
X218440476Y-139490533D01*
X103879819Y-110149404D02*
X104689342Y-110149404D01*
X104689342Y-110149404D02*
X104784580Y-110101785D01*
X104784580Y-110101785D02*
X104832200Y-110054166D01*
X104832200Y-110054166D02*
X104879819Y-109958928D01*
X104879819Y-109958928D02*
X104879819Y-109768452D01*
X104879819Y-109768452D02*
X104832200Y-109673214D01*
X104832200Y-109673214D02*
X104784580Y-109625595D01*
X104784580Y-109625595D02*
X104689342Y-109577976D01*
X104689342Y-109577976D02*
X103879819Y-109577976D01*
X103879819Y-109197023D02*
X103879819Y-108577976D01*
X103879819Y-108577976D02*
X104260771Y-108911309D01*
X104260771Y-108911309D02*
X104260771Y-108768452D01*
X104260771Y-108768452D02*
X104308390Y-108673214D01*
X104308390Y-108673214D02*
X104356009Y-108625595D01*
X104356009Y-108625595D02*
X104451247Y-108577976D01*
X104451247Y-108577976D02*
X104689342Y-108577976D01*
X104689342Y-108577976D02*
X104784580Y-108625595D01*
X104784580Y-108625595D02*
X104832200Y-108673214D01*
X104832200Y-108673214D02*
X104879819Y-108768452D01*
X104879819Y-108768452D02*
X104879819Y-109054166D01*
X104879819Y-109054166D02*
X104832200Y-109149404D01*
X104832200Y-109149404D02*
X104784580Y-109197023D01*
X211859580Y-115166666D02*
X211907200Y-115214285D01*
X211907200Y-115214285D02*
X211954819Y-115357142D01*
X211954819Y-115357142D02*
X211954819Y-115452380D01*
X211954819Y-115452380D02*
X211907200Y-115595237D01*
X211907200Y-115595237D02*
X211811961Y-115690475D01*
X211811961Y-115690475D02*
X211716723Y-115738094D01*
X211716723Y-115738094D02*
X211526247Y-115785713D01*
X211526247Y-115785713D02*
X211383390Y-115785713D01*
X211383390Y-115785713D02*
X211192914Y-115738094D01*
X211192914Y-115738094D02*
X211097676Y-115690475D01*
X211097676Y-115690475D02*
X211002438Y-115595237D01*
X211002438Y-115595237D02*
X210954819Y-115452380D01*
X210954819Y-115452380D02*
X210954819Y-115357142D01*
X210954819Y-115357142D02*
X211002438Y-115214285D01*
X211002438Y-115214285D02*
X211050057Y-115166666D01*
X210954819Y-114833332D02*
X210954819Y-114214285D01*
X210954819Y-114214285D02*
X211335771Y-114547618D01*
X211335771Y-114547618D02*
X211335771Y-114404761D01*
X211335771Y-114404761D02*
X211383390Y-114309523D01*
X211383390Y-114309523D02*
X211431009Y-114261904D01*
X211431009Y-114261904D02*
X211526247Y-114214285D01*
X211526247Y-114214285D02*
X211764342Y-114214285D01*
X211764342Y-114214285D02*
X211859580Y-114261904D01*
X211859580Y-114261904D02*
X211907200Y-114309523D01*
X211907200Y-114309523D02*
X211954819Y-114404761D01*
X211954819Y-114404761D02*
X211954819Y-114690475D01*
X211954819Y-114690475D02*
X211907200Y-114785713D01*
X211907200Y-114785713D02*
X211859580Y-114833332D01*
X65539580Y-124642857D02*
X65587200Y-124690476D01*
X65587200Y-124690476D02*
X65634819Y-124833333D01*
X65634819Y-124833333D02*
X65634819Y-124928571D01*
X65634819Y-124928571D02*
X65587200Y-125071428D01*
X65587200Y-125071428D02*
X65491961Y-125166666D01*
X65491961Y-125166666D02*
X65396723Y-125214285D01*
X65396723Y-125214285D02*
X65206247Y-125261904D01*
X65206247Y-125261904D02*
X65063390Y-125261904D01*
X65063390Y-125261904D02*
X64872914Y-125214285D01*
X64872914Y-125214285D02*
X64777676Y-125166666D01*
X64777676Y-125166666D02*
X64682438Y-125071428D01*
X64682438Y-125071428D02*
X64634819Y-124928571D01*
X64634819Y-124928571D02*
X64634819Y-124833333D01*
X64634819Y-124833333D02*
X64682438Y-124690476D01*
X64682438Y-124690476D02*
X64730057Y-124642857D01*
X64730057Y-124261904D02*
X64682438Y-124214285D01*
X64682438Y-124214285D02*
X64634819Y-124119047D01*
X64634819Y-124119047D02*
X64634819Y-123880952D01*
X64634819Y-123880952D02*
X64682438Y-123785714D01*
X64682438Y-123785714D02*
X64730057Y-123738095D01*
X64730057Y-123738095D02*
X64825295Y-123690476D01*
X64825295Y-123690476D02*
X64920533Y-123690476D01*
X64920533Y-123690476D02*
X65063390Y-123738095D01*
X65063390Y-123738095D02*
X65634819Y-124309523D01*
X65634819Y-124309523D02*
X65634819Y-123690476D01*
X64634819Y-123357142D02*
X64634819Y-122738095D01*
X64634819Y-122738095D02*
X65015771Y-123071428D01*
X65015771Y-123071428D02*
X65015771Y-122928571D01*
X65015771Y-122928571D02*
X65063390Y-122833333D01*
X65063390Y-122833333D02*
X65111009Y-122785714D01*
X65111009Y-122785714D02*
X65206247Y-122738095D01*
X65206247Y-122738095D02*
X65444342Y-122738095D01*
X65444342Y-122738095D02*
X65539580Y-122785714D01*
X65539580Y-122785714D02*
X65587200Y-122833333D01*
X65587200Y-122833333D02*
X65634819Y-122928571D01*
X65634819Y-122928571D02*
X65634819Y-123214285D01*
X65634819Y-123214285D02*
X65587200Y-123309523D01*
X65587200Y-123309523D02*
X65539580Y-123357142D01*
X217738095Y-128072319D02*
X217738095Y-128881842D01*
X217738095Y-128881842D02*
X217785714Y-128977080D01*
X217785714Y-128977080D02*
X217833333Y-129024700D01*
X217833333Y-129024700D02*
X217928571Y-129072319D01*
X217928571Y-129072319D02*
X218119047Y-129072319D01*
X218119047Y-129072319D02*
X218214285Y-129024700D01*
X218214285Y-129024700D02*
X218261904Y-128977080D01*
X218261904Y-128977080D02*
X218309523Y-128881842D01*
X218309523Y-128881842D02*
X218309523Y-128072319D01*
X219261904Y-128072319D02*
X218785714Y-128072319D01*
X218785714Y-128072319D02*
X218738095Y-128548509D01*
X218738095Y-128548509D02*
X218785714Y-128500890D01*
X218785714Y-128500890D02*
X218880952Y-128453271D01*
X218880952Y-128453271D02*
X219119047Y-128453271D01*
X219119047Y-128453271D02*
X219214285Y-128500890D01*
X219214285Y-128500890D02*
X219261904Y-128548509D01*
X219261904Y-128548509D02*
X219309523Y-128643747D01*
X219309523Y-128643747D02*
X219309523Y-128881842D01*
X219309523Y-128881842D02*
X219261904Y-128977080D01*
X219261904Y-128977080D02*
X219214285Y-129024700D01*
X219214285Y-129024700D02*
X219119047Y-129072319D01*
X219119047Y-129072319D02*
X218880952Y-129072319D01*
X218880952Y-129072319D02*
X218785714Y-129024700D01*
X218785714Y-129024700D02*
X218738095Y-128977080D01*
X210687263Y-147454819D02*
X210353930Y-146978628D01*
X210115835Y-147454819D02*
X210115835Y-146454819D01*
X210115835Y-146454819D02*
X210496787Y-146454819D01*
X210496787Y-146454819D02*
X210592025Y-146502438D01*
X210592025Y-146502438D02*
X210639644Y-146550057D01*
X210639644Y-146550057D02*
X210687263Y-146645295D01*
X210687263Y-146645295D02*
X210687263Y-146788152D01*
X210687263Y-146788152D02*
X210639644Y-146883390D01*
X210639644Y-146883390D02*
X210592025Y-146931009D01*
X210592025Y-146931009D02*
X210496787Y-146978628D01*
X210496787Y-146978628D02*
X210115835Y-146978628D01*
X211544406Y-146454819D02*
X211353930Y-146454819D01*
X211353930Y-146454819D02*
X211258692Y-146502438D01*
X211258692Y-146502438D02*
X211211073Y-146550057D01*
X211211073Y-146550057D02*
X211115835Y-146692914D01*
X211115835Y-146692914D02*
X211068216Y-146883390D01*
X211068216Y-146883390D02*
X211068216Y-147264342D01*
X211068216Y-147264342D02*
X211115835Y-147359580D01*
X211115835Y-147359580D02*
X211163454Y-147407200D01*
X211163454Y-147407200D02*
X211258692Y-147454819D01*
X211258692Y-147454819D02*
X211449168Y-147454819D01*
X211449168Y-147454819D02*
X211544406Y-147407200D01*
X211544406Y-147407200D02*
X211592025Y-147359580D01*
X211592025Y-147359580D02*
X211639644Y-147264342D01*
X211639644Y-147264342D02*
X211639644Y-147026247D01*
X211639644Y-147026247D02*
X211592025Y-146931009D01*
X211592025Y-146931009D02*
X211544406Y-146883390D01*
X211544406Y-146883390D02*
X211449168Y-146835771D01*
X211449168Y-146835771D02*
X211258692Y-146835771D01*
X211258692Y-146835771D02*
X211163454Y-146883390D01*
X211163454Y-146883390D02*
X211115835Y-146931009D01*
X211115835Y-146931009D02*
X211068216Y-147026247D01*
X212211073Y-146883390D02*
X212115835Y-146835771D01*
X212115835Y-146835771D02*
X212068216Y-146788152D01*
X212068216Y-146788152D02*
X212020597Y-146692914D01*
X212020597Y-146692914D02*
X212020597Y-146645295D01*
X212020597Y-146645295D02*
X212068216Y-146550057D01*
X212068216Y-146550057D02*
X212115835Y-146502438D01*
X212115835Y-146502438D02*
X212211073Y-146454819D01*
X212211073Y-146454819D02*
X212401549Y-146454819D01*
X212401549Y-146454819D02*
X212496787Y-146502438D01*
X212496787Y-146502438D02*
X212544406Y-146550057D01*
X212544406Y-146550057D02*
X212592025Y-146645295D01*
X212592025Y-146645295D02*
X212592025Y-146692914D01*
X212592025Y-146692914D02*
X212544406Y-146788152D01*
X212544406Y-146788152D02*
X212496787Y-146835771D01*
X212496787Y-146835771D02*
X212401549Y-146883390D01*
X212401549Y-146883390D02*
X212211073Y-146883390D01*
X212211073Y-146883390D02*
X212115835Y-146931009D01*
X212115835Y-146931009D02*
X212068216Y-146978628D01*
X212068216Y-146978628D02*
X212020597Y-147073866D01*
X212020597Y-147073866D02*
X212020597Y-147264342D01*
X212020597Y-147264342D02*
X212068216Y-147359580D01*
X212068216Y-147359580D02*
X212115835Y-147407200D01*
X212115835Y-147407200D02*
X212211073Y-147454819D01*
X212211073Y-147454819D02*
X212401549Y-147454819D01*
X212401549Y-147454819D02*
X212496787Y-147407200D01*
X212496787Y-147407200D02*
X212544406Y-147359580D01*
X212544406Y-147359580D02*
X212592025Y-147264342D01*
X212592025Y-147264342D02*
X212592025Y-147073866D01*
X212592025Y-147073866D02*
X212544406Y-146978628D01*
X212544406Y-146978628D02*
X212496787Y-146931009D01*
X212496787Y-146931009D02*
X212401549Y-146883390D01*
X111024819Y-149916666D02*
X110548628Y-150249999D01*
X111024819Y-150488094D02*
X110024819Y-150488094D01*
X110024819Y-150488094D02*
X110024819Y-150107142D01*
X110024819Y-150107142D02*
X110072438Y-150011904D01*
X110072438Y-150011904D02*
X110120057Y-149964285D01*
X110120057Y-149964285D02*
X110215295Y-149916666D01*
X110215295Y-149916666D02*
X110358152Y-149916666D01*
X110358152Y-149916666D02*
X110453390Y-149964285D01*
X110453390Y-149964285D02*
X110501009Y-150011904D01*
X110501009Y-150011904D02*
X110548628Y-150107142D01*
X110548628Y-150107142D02*
X110548628Y-150488094D01*
X110024819Y-149059523D02*
X110024819Y-149249999D01*
X110024819Y-149249999D02*
X110072438Y-149345237D01*
X110072438Y-149345237D02*
X110120057Y-149392856D01*
X110120057Y-149392856D02*
X110262914Y-149488094D01*
X110262914Y-149488094D02*
X110453390Y-149535713D01*
X110453390Y-149535713D02*
X110834342Y-149535713D01*
X110834342Y-149535713D02*
X110929580Y-149488094D01*
X110929580Y-149488094D02*
X110977200Y-149440475D01*
X110977200Y-149440475D02*
X111024819Y-149345237D01*
X111024819Y-149345237D02*
X111024819Y-149154761D01*
X111024819Y-149154761D02*
X110977200Y-149059523D01*
X110977200Y-149059523D02*
X110929580Y-149011904D01*
X110929580Y-149011904D02*
X110834342Y-148964285D01*
X110834342Y-148964285D02*
X110596247Y-148964285D01*
X110596247Y-148964285D02*
X110501009Y-149011904D01*
X110501009Y-149011904D02*
X110453390Y-149059523D01*
X110453390Y-149059523D02*
X110405771Y-149154761D01*
X110405771Y-149154761D02*
X110405771Y-149345237D01*
X110405771Y-149345237D02*
X110453390Y-149440475D01*
X110453390Y-149440475D02*
X110501009Y-149488094D01*
X110501009Y-149488094D02*
X110596247Y-149535713D01*
X202579526Y-151454819D02*
X202579526Y-150454819D01*
X202579526Y-150454819D02*
X202817621Y-150454819D01*
X202817621Y-150454819D02*
X202960478Y-150502438D01*
X202960478Y-150502438D02*
X203055716Y-150597676D01*
X203055716Y-150597676D02*
X203103335Y-150692914D01*
X203103335Y-150692914D02*
X203150954Y-150883390D01*
X203150954Y-150883390D02*
X203150954Y-151026247D01*
X203150954Y-151026247D02*
X203103335Y-151216723D01*
X203103335Y-151216723D02*
X203055716Y-151311961D01*
X203055716Y-151311961D02*
X202960478Y-151407200D01*
X202960478Y-151407200D02*
X202817621Y-151454819D01*
X202817621Y-151454819D02*
X202579526Y-151454819D01*
X204008097Y-150788152D02*
X204008097Y-151454819D01*
X203770002Y-150407200D02*
X203531907Y-151121485D01*
X203531907Y-151121485D02*
X204150954Y-151121485D01*
X78666666Y-68654819D02*
X78666666Y-69369104D01*
X78666666Y-69369104D02*
X78619047Y-69511961D01*
X78619047Y-69511961D02*
X78523809Y-69607200D01*
X78523809Y-69607200D02*
X78380952Y-69654819D01*
X78380952Y-69654819D02*
X78285714Y-69654819D01*
X79095238Y-68750057D02*
X79142857Y-68702438D01*
X79142857Y-68702438D02*
X79238095Y-68654819D01*
X79238095Y-68654819D02*
X79476190Y-68654819D01*
X79476190Y-68654819D02*
X79571428Y-68702438D01*
X79571428Y-68702438D02*
X79619047Y-68750057D01*
X79619047Y-68750057D02*
X79666666Y-68845295D01*
X79666666Y-68845295D02*
X79666666Y-68940533D01*
X79666666Y-68940533D02*
X79619047Y-69083390D01*
X79619047Y-69083390D02*
X79047619Y-69654819D01*
X79047619Y-69654819D02*
X79666666Y-69654819D01*
X97806667Y-147917200D02*
X97949524Y-147964819D01*
X97949524Y-147964819D02*
X98187619Y-147964819D01*
X98187619Y-147964819D02*
X98282857Y-147917200D01*
X98282857Y-147917200D02*
X98330476Y-147869580D01*
X98330476Y-147869580D02*
X98378095Y-147774342D01*
X98378095Y-147774342D02*
X98378095Y-147679104D01*
X98378095Y-147679104D02*
X98330476Y-147583866D01*
X98330476Y-147583866D02*
X98282857Y-147536247D01*
X98282857Y-147536247D02*
X98187619Y-147488628D01*
X98187619Y-147488628D02*
X97997143Y-147441009D01*
X97997143Y-147441009D02*
X97901905Y-147393390D01*
X97901905Y-147393390D02*
X97854286Y-147345771D01*
X97854286Y-147345771D02*
X97806667Y-147250533D01*
X97806667Y-147250533D02*
X97806667Y-147155295D01*
X97806667Y-147155295D02*
X97854286Y-147060057D01*
X97854286Y-147060057D02*
X97901905Y-147012438D01*
X97901905Y-147012438D02*
X97997143Y-146964819D01*
X97997143Y-146964819D02*
X98235238Y-146964819D01*
X98235238Y-146964819D02*
X98378095Y-147012438D01*
X98711429Y-146964819D02*
X98949524Y-147964819D01*
X98949524Y-147964819D02*
X99140000Y-147250533D01*
X99140000Y-147250533D02*
X99330476Y-147964819D01*
X99330476Y-147964819D02*
X99568572Y-146964819D01*
X99854286Y-146964819D02*
X100473333Y-146964819D01*
X100473333Y-146964819D02*
X100140000Y-147345771D01*
X100140000Y-147345771D02*
X100282857Y-147345771D01*
X100282857Y-147345771D02*
X100378095Y-147393390D01*
X100378095Y-147393390D02*
X100425714Y-147441009D01*
X100425714Y-147441009D02*
X100473333Y-147536247D01*
X100473333Y-147536247D02*
X100473333Y-147774342D01*
X100473333Y-147774342D02*
X100425714Y-147869580D01*
X100425714Y-147869580D02*
X100378095Y-147917200D01*
X100378095Y-147917200D02*
X100282857Y-147964819D01*
X100282857Y-147964819D02*
X99997143Y-147964819D01*
X99997143Y-147964819D02*
X99901905Y-147917200D01*
X99901905Y-147917200D02*
X99854286Y-147869580D01*
X80534819Y-132701904D02*
X81344342Y-132701904D01*
X81344342Y-132701904D02*
X81439580Y-132654285D01*
X81439580Y-132654285D02*
X81487200Y-132606666D01*
X81487200Y-132606666D02*
X81534819Y-132511428D01*
X81534819Y-132511428D02*
X81534819Y-132320952D01*
X81534819Y-132320952D02*
X81487200Y-132225714D01*
X81487200Y-132225714D02*
X81439580Y-132178095D01*
X81439580Y-132178095D02*
X81344342Y-132130476D01*
X81344342Y-132130476D02*
X80534819Y-132130476D01*
X80963390Y-131511428D02*
X80915771Y-131606666D01*
X80915771Y-131606666D02*
X80868152Y-131654285D01*
X80868152Y-131654285D02*
X80772914Y-131701904D01*
X80772914Y-131701904D02*
X80725295Y-131701904D01*
X80725295Y-131701904D02*
X80630057Y-131654285D01*
X80630057Y-131654285D02*
X80582438Y-131606666D01*
X80582438Y-131606666D02*
X80534819Y-131511428D01*
X80534819Y-131511428D02*
X80534819Y-131320952D01*
X80534819Y-131320952D02*
X80582438Y-131225714D01*
X80582438Y-131225714D02*
X80630057Y-131178095D01*
X80630057Y-131178095D02*
X80725295Y-131130476D01*
X80725295Y-131130476D02*
X80772914Y-131130476D01*
X80772914Y-131130476D02*
X80868152Y-131178095D01*
X80868152Y-131178095D02*
X80915771Y-131225714D01*
X80915771Y-131225714D02*
X80963390Y-131320952D01*
X80963390Y-131320952D02*
X80963390Y-131511428D01*
X80963390Y-131511428D02*
X81011009Y-131606666D01*
X81011009Y-131606666D02*
X81058628Y-131654285D01*
X81058628Y-131654285D02*
X81153866Y-131701904D01*
X81153866Y-131701904D02*
X81344342Y-131701904D01*
X81344342Y-131701904D02*
X81439580Y-131654285D01*
X81439580Y-131654285D02*
X81487200Y-131606666D01*
X81487200Y-131606666D02*
X81534819Y-131511428D01*
X81534819Y-131511428D02*
X81534819Y-131320952D01*
X81534819Y-131320952D02*
X81487200Y-131225714D01*
X81487200Y-131225714D02*
X81439580Y-131178095D01*
X81439580Y-131178095D02*
X81344342Y-131130476D01*
X81344342Y-131130476D02*
X81153866Y-131130476D01*
X81153866Y-131130476D02*
X81058628Y-131178095D01*
X81058628Y-131178095D02*
X81011009Y-131225714D01*
X81011009Y-131225714D02*
X80963390Y-131320952D01*
X126988095Y-72454819D02*
X126988095Y-71454819D01*
X126988095Y-71931009D02*
X127559523Y-71931009D01*
X127559523Y-72454819D02*
X127559523Y-71454819D01*
X128511904Y-71454819D02*
X128035714Y-71454819D01*
X128035714Y-71454819D02*
X127988095Y-71931009D01*
X127988095Y-71931009D02*
X128035714Y-71883390D01*
X128035714Y-71883390D02*
X128130952Y-71835771D01*
X128130952Y-71835771D02*
X128369047Y-71835771D01*
X128369047Y-71835771D02*
X128464285Y-71883390D01*
X128464285Y-71883390D02*
X128511904Y-71931009D01*
X128511904Y-71931009D02*
X128559523Y-72026247D01*
X128559523Y-72026247D02*
X128559523Y-72264342D01*
X128559523Y-72264342D02*
X128511904Y-72359580D01*
X128511904Y-72359580D02*
X128464285Y-72407200D01*
X128464285Y-72407200D02*
X128369047Y-72454819D01*
X128369047Y-72454819D02*
X128130952Y-72454819D01*
X128130952Y-72454819D02*
X128035714Y-72407200D01*
X128035714Y-72407200D02*
X127988095Y-72359580D01*
X188488095Y-164704819D02*
X188488095Y-165514342D01*
X188488095Y-165514342D02*
X188535714Y-165609580D01*
X188535714Y-165609580D02*
X188583333Y-165657200D01*
X188583333Y-165657200D02*
X188678571Y-165704819D01*
X188678571Y-165704819D02*
X188869047Y-165704819D01*
X188869047Y-165704819D02*
X188964285Y-165657200D01*
X188964285Y-165657200D02*
X189011904Y-165609580D01*
X189011904Y-165609580D02*
X189059523Y-165514342D01*
X189059523Y-165514342D02*
X189059523Y-164704819D01*
X190059523Y-165704819D02*
X189488095Y-165704819D01*
X189773809Y-165704819D02*
X189773809Y-164704819D01*
X189773809Y-164704819D02*
X189678571Y-164847676D01*
X189678571Y-164847676D02*
X189583333Y-164942914D01*
X189583333Y-164942914D02*
X189488095Y-164990533D01*
X102574819Y-95478094D02*
X103384342Y-95478094D01*
X103384342Y-95478094D02*
X103479580Y-95430475D01*
X103479580Y-95430475D02*
X103527200Y-95382856D01*
X103527200Y-95382856D02*
X103574819Y-95287618D01*
X103574819Y-95287618D02*
X103574819Y-95097142D01*
X103574819Y-95097142D02*
X103527200Y-95001904D01*
X103527200Y-95001904D02*
X103479580Y-94954285D01*
X103479580Y-94954285D02*
X103384342Y-94906666D01*
X103384342Y-94906666D02*
X102574819Y-94906666D01*
X103574819Y-93906666D02*
X103574819Y-94478094D01*
X103574819Y-94192380D02*
X102574819Y-94192380D01*
X102574819Y-94192380D02*
X102717676Y-94287618D01*
X102717676Y-94287618D02*
X102812914Y-94382856D01*
X102812914Y-94382856D02*
X102860533Y-94478094D01*
X102574819Y-93001904D02*
X102574819Y-93478094D01*
X102574819Y-93478094D02*
X103051009Y-93525713D01*
X103051009Y-93525713D02*
X103003390Y-93478094D01*
X103003390Y-93478094D02*
X102955771Y-93382856D01*
X102955771Y-93382856D02*
X102955771Y-93144761D01*
X102955771Y-93144761D02*
X103003390Y-93049523D01*
X103003390Y-93049523D02*
X103051009Y-93001904D01*
X103051009Y-93001904D02*
X103146247Y-92954285D01*
X103146247Y-92954285D02*
X103384342Y-92954285D01*
X103384342Y-92954285D02*
X103479580Y-93001904D01*
X103479580Y-93001904D02*
X103527200Y-93049523D01*
X103527200Y-93049523D02*
X103574819Y-93144761D01*
X103574819Y-93144761D02*
X103574819Y-93382856D01*
X103574819Y-93382856D02*
X103527200Y-93478094D01*
X103527200Y-93478094D02*
X103479580Y-93525713D01*
X210454819Y-114642857D02*
X209978628Y-114976190D01*
X210454819Y-115214285D02*
X209454819Y-115214285D01*
X209454819Y-115214285D02*
X209454819Y-114833333D01*
X209454819Y-114833333D02*
X209502438Y-114738095D01*
X209502438Y-114738095D02*
X209550057Y-114690476D01*
X209550057Y-114690476D02*
X209645295Y-114642857D01*
X209645295Y-114642857D02*
X209788152Y-114642857D01*
X209788152Y-114642857D02*
X209883390Y-114690476D01*
X209883390Y-114690476D02*
X209931009Y-114738095D01*
X209931009Y-114738095D02*
X209978628Y-114833333D01*
X209978628Y-114833333D02*
X209978628Y-115214285D01*
X209454819Y-113738095D02*
X209454819Y-114214285D01*
X209454819Y-114214285D02*
X209931009Y-114261904D01*
X209931009Y-114261904D02*
X209883390Y-114214285D01*
X209883390Y-114214285D02*
X209835771Y-114119047D01*
X209835771Y-114119047D02*
X209835771Y-113880952D01*
X209835771Y-113880952D02*
X209883390Y-113785714D01*
X209883390Y-113785714D02*
X209931009Y-113738095D01*
X209931009Y-113738095D02*
X210026247Y-113690476D01*
X210026247Y-113690476D02*
X210264342Y-113690476D01*
X210264342Y-113690476D02*
X210359580Y-113738095D01*
X210359580Y-113738095D02*
X210407200Y-113785714D01*
X210407200Y-113785714D02*
X210454819Y-113880952D01*
X210454819Y-113880952D02*
X210454819Y-114119047D01*
X210454819Y-114119047D02*
X210407200Y-114214285D01*
X210407200Y-114214285D02*
X210359580Y-114261904D01*
X209454819Y-112833333D02*
X209454819Y-113023809D01*
X209454819Y-113023809D02*
X209502438Y-113119047D01*
X209502438Y-113119047D02*
X209550057Y-113166666D01*
X209550057Y-113166666D02*
X209692914Y-113261904D01*
X209692914Y-113261904D02*
X209883390Y-113309523D01*
X209883390Y-113309523D02*
X210264342Y-113309523D01*
X210264342Y-113309523D02*
X210359580Y-113261904D01*
X210359580Y-113261904D02*
X210407200Y-113214285D01*
X210407200Y-113214285D02*
X210454819Y-113119047D01*
X210454819Y-113119047D02*
X210454819Y-112928571D01*
X210454819Y-112928571D02*
X210407200Y-112833333D01*
X210407200Y-112833333D02*
X210359580Y-112785714D01*
X210359580Y-112785714D02*
X210264342Y-112738095D01*
X210264342Y-112738095D02*
X210026247Y-112738095D01*
X210026247Y-112738095D02*
X209931009Y-112785714D01*
X209931009Y-112785714D02*
X209883390Y-112833333D01*
X209883390Y-112833333D02*
X209835771Y-112928571D01*
X209835771Y-112928571D02*
X209835771Y-113119047D01*
X209835771Y-113119047D02*
X209883390Y-113214285D01*
X209883390Y-113214285D02*
X209931009Y-113261904D01*
X209931009Y-113261904D02*
X210026247Y-113309523D01*
X223269642Y-125422319D02*
X222936309Y-124946128D01*
X222698214Y-125422319D02*
X222698214Y-124422319D01*
X222698214Y-124422319D02*
X223079166Y-124422319D01*
X223079166Y-124422319D02*
X223174404Y-124469938D01*
X223174404Y-124469938D02*
X223222023Y-124517557D01*
X223222023Y-124517557D02*
X223269642Y-124612795D01*
X223269642Y-124612795D02*
X223269642Y-124755652D01*
X223269642Y-124755652D02*
X223222023Y-124850890D01*
X223222023Y-124850890D02*
X223174404Y-124898509D01*
X223174404Y-124898509D02*
X223079166Y-124946128D01*
X223079166Y-124946128D02*
X222698214Y-124946128D01*
X224126785Y-124422319D02*
X223936309Y-124422319D01*
X223936309Y-124422319D02*
X223841071Y-124469938D01*
X223841071Y-124469938D02*
X223793452Y-124517557D01*
X223793452Y-124517557D02*
X223698214Y-124660414D01*
X223698214Y-124660414D02*
X223650595Y-124850890D01*
X223650595Y-124850890D02*
X223650595Y-125231842D01*
X223650595Y-125231842D02*
X223698214Y-125327080D01*
X223698214Y-125327080D02*
X223745833Y-125374700D01*
X223745833Y-125374700D02*
X223841071Y-125422319D01*
X223841071Y-125422319D02*
X224031547Y-125422319D01*
X224031547Y-125422319D02*
X224126785Y-125374700D01*
X224126785Y-125374700D02*
X224174404Y-125327080D01*
X224174404Y-125327080D02*
X224222023Y-125231842D01*
X224222023Y-125231842D02*
X224222023Y-124993747D01*
X224222023Y-124993747D02*
X224174404Y-124898509D01*
X224174404Y-124898509D02*
X224126785Y-124850890D01*
X224126785Y-124850890D02*
X224031547Y-124803271D01*
X224031547Y-124803271D02*
X223841071Y-124803271D01*
X223841071Y-124803271D02*
X223745833Y-124850890D01*
X223745833Y-124850890D02*
X223698214Y-124898509D01*
X223698214Y-124898509D02*
X223650595Y-124993747D01*
X224602976Y-124517557D02*
X224650595Y-124469938D01*
X224650595Y-124469938D02*
X224745833Y-124422319D01*
X224745833Y-124422319D02*
X224983928Y-124422319D01*
X224983928Y-124422319D02*
X225079166Y-124469938D01*
X225079166Y-124469938D02*
X225126785Y-124517557D01*
X225126785Y-124517557D02*
X225174404Y-124612795D01*
X225174404Y-124612795D02*
X225174404Y-124708033D01*
X225174404Y-124708033D02*
X225126785Y-124850890D01*
X225126785Y-124850890D02*
X224555357Y-125422319D01*
X224555357Y-125422319D02*
X225174404Y-125422319D01*
X204607142Y-140609580D02*
X204559523Y-140657200D01*
X204559523Y-140657200D02*
X204416666Y-140704819D01*
X204416666Y-140704819D02*
X204321428Y-140704819D01*
X204321428Y-140704819D02*
X204178571Y-140657200D01*
X204178571Y-140657200D02*
X204083333Y-140561961D01*
X204083333Y-140561961D02*
X204035714Y-140466723D01*
X204035714Y-140466723D02*
X203988095Y-140276247D01*
X203988095Y-140276247D02*
X203988095Y-140133390D01*
X203988095Y-140133390D02*
X204035714Y-139942914D01*
X204035714Y-139942914D02*
X204083333Y-139847676D01*
X204083333Y-139847676D02*
X204178571Y-139752438D01*
X204178571Y-139752438D02*
X204321428Y-139704819D01*
X204321428Y-139704819D02*
X204416666Y-139704819D01*
X204416666Y-139704819D02*
X204559523Y-139752438D01*
X204559523Y-139752438D02*
X204607142Y-139800057D01*
X205559523Y-140704819D02*
X204988095Y-140704819D01*
X205273809Y-140704819D02*
X205273809Y-139704819D01*
X205273809Y-139704819D02*
X205178571Y-139847676D01*
X205178571Y-139847676D02*
X205083333Y-139942914D01*
X205083333Y-139942914D02*
X204988095Y-139990533D01*
X206178571Y-139704819D02*
X206273809Y-139704819D01*
X206273809Y-139704819D02*
X206369047Y-139752438D01*
X206369047Y-139752438D02*
X206416666Y-139800057D01*
X206416666Y-139800057D02*
X206464285Y-139895295D01*
X206464285Y-139895295D02*
X206511904Y-140085771D01*
X206511904Y-140085771D02*
X206511904Y-140323866D01*
X206511904Y-140323866D02*
X206464285Y-140514342D01*
X206464285Y-140514342D02*
X206416666Y-140609580D01*
X206416666Y-140609580D02*
X206369047Y-140657200D01*
X206369047Y-140657200D02*
X206273809Y-140704819D01*
X206273809Y-140704819D02*
X206178571Y-140704819D01*
X206178571Y-140704819D02*
X206083333Y-140657200D01*
X206083333Y-140657200D02*
X206035714Y-140609580D01*
X206035714Y-140609580D02*
X205988095Y-140514342D01*
X205988095Y-140514342D02*
X205940476Y-140323866D01*
X205940476Y-140323866D02*
X205940476Y-140085771D01*
X205940476Y-140085771D02*
X205988095Y-139895295D01*
X205988095Y-139895295D02*
X206035714Y-139800057D01*
X206035714Y-139800057D02*
X206083333Y-139752438D01*
X206083333Y-139752438D02*
X206178571Y-139704819D01*
X65624819Y-95178094D02*
X66434342Y-95178094D01*
X66434342Y-95178094D02*
X66529580Y-95130475D01*
X66529580Y-95130475D02*
X66577200Y-95082856D01*
X66577200Y-95082856D02*
X66624819Y-94987618D01*
X66624819Y-94987618D02*
X66624819Y-94797142D01*
X66624819Y-94797142D02*
X66577200Y-94701904D01*
X66577200Y-94701904D02*
X66529580Y-94654285D01*
X66529580Y-94654285D02*
X66434342Y-94606666D01*
X66434342Y-94606666D02*
X65624819Y-94606666D01*
X65720057Y-94178094D02*
X65672438Y-94130475D01*
X65672438Y-94130475D02*
X65624819Y-94035237D01*
X65624819Y-94035237D02*
X65624819Y-93797142D01*
X65624819Y-93797142D02*
X65672438Y-93701904D01*
X65672438Y-93701904D02*
X65720057Y-93654285D01*
X65720057Y-93654285D02*
X65815295Y-93606666D01*
X65815295Y-93606666D02*
X65910533Y-93606666D01*
X65910533Y-93606666D02*
X66053390Y-93654285D01*
X66053390Y-93654285D02*
X66624819Y-94225713D01*
X66624819Y-94225713D02*
X66624819Y-93606666D01*
X65624819Y-92987618D02*
X65624819Y-92892380D01*
X65624819Y-92892380D02*
X65672438Y-92797142D01*
X65672438Y-92797142D02*
X65720057Y-92749523D01*
X65720057Y-92749523D02*
X65815295Y-92701904D01*
X65815295Y-92701904D02*
X66005771Y-92654285D01*
X66005771Y-92654285D02*
X66243866Y-92654285D01*
X66243866Y-92654285D02*
X66434342Y-92701904D01*
X66434342Y-92701904D02*
X66529580Y-92749523D01*
X66529580Y-92749523D02*
X66577200Y-92797142D01*
X66577200Y-92797142D02*
X66624819Y-92892380D01*
X66624819Y-92892380D02*
X66624819Y-92987618D01*
X66624819Y-92987618D02*
X66577200Y-93082856D01*
X66577200Y-93082856D02*
X66529580Y-93130475D01*
X66529580Y-93130475D02*
X66434342Y-93178094D01*
X66434342Y-93178094D02*
X66243866Y-93225713D01*
X66243866Y-93225713D02*
X66005771Y-93225713D01*
X66005771Y-93225713D02*
X65815295Y-93178094D01*
X65815295Y-93178094D02*
X65720057Y-93130475D01*
X65720057Y-93130475D02*
X65672438Y-93082856D01*
X65672438Y-93082856D02*
X65624819Y-92987618D01*
X214579526Y-151454819D02*
X214579526Y-150454819D01*
X214579526Y-150454819D02*
X214817621Y-150454819D01*
X214817621Y-150454819D02*
X214960478Y-150502438D01*
X214960478Y-150502438D02*
X215055716Y-150597676D01*
X215055716Y-150597676D02*
X215103335Y-150692914D01*
X215103335Y-150692914D02*
X215150954Y-150883390D01*
X215150954Y-150883390D02*
X215150954Y-151026247D01*
X215150954Y-151026247D02*
X215103335Y-151216723D01*
X215103335Y-151216723D02*
X215055716Y-151311961D01*
X215055716Y-151311961D02*
X214960478Y-151407200D01*
X214960478Y-151407200D02*
X214817621Y-151454819D01*
X214817621Y-151454819D02*
X214579526Y-151454819D01*
X216055716Y-150454819D02*
X215579526Y-150454819D01*
X215579526Y-150454819D02*
X215531907Y-150931009D01*
X215531907Y-150931009D02*
X215579526Y-150883390D01*
X215579526Y-150883390D02*
X215674764Y-150835771D01*
X215674764Y-150835771D02*
X215912859Y-150835771D01*
X215912859Y-150835771D02*
X216008097Y-150883390D01*
X216008097Y-150883390D02*
X216055716Y-150931009D01*
X216055716Y-150931009D02*
X216103335Y-151026247D01*
X216103335Y-151026247D02*
X216103335Y-151264342D01*
X216103335Y-151264342D02*
X216055716Y-151359580D01*
X216055716Y-151359580D02*
X216008097Y-151407200D01*
X216008097Y-151407200D02*
X215912859Y-151454819D01*
X215912859Y-151454819D02*
X215674764Y-151454819D01*
X215674764Y-151454819D02*
X215579526Y-151407200D01*
X215579526Y-151407200D02*
X215531907Y-151359580D01*
X212704819Y-124892857D02*
X212228628Y-125226190D01*
X212704819Y-125464285D02*
X211704819Y-125464285D01*
X211704819Y-125464285D02*
X211704819Y-125083333D01*
X211704819Y-125083333D02*
X211752438Y-124988095D01*
X211752438Y-124988095D02*
X211800057Y-124940476D01*
X211800057Y-124940476D02*
X211895295Y-124892857D01*
X211895295Y-124892857D02*
X212038152Y-124892857D01*
X212038152Y-124892857D02*
X212133390Y-124940476D01*
X212133390Y-124940476D02*
X212181009Y-124988095D01*
X212181009Y-124988095D02*
X212228628Y-125083333D01*
X212228628Y-125083333D02*
X212228628Y-125464285D01*
X211704819Y-123988095D02*
X211704819Y-124464285D01*
X211704819Y-124464285D02*
X212181009Y-124511904D01*
X212181009Y-124511904D02*
X212133390Y-124464285D01*
X212133390Y-124464285D02*
X212085771Y-124369047D01*
X212085771Y-124369047D02*
X212085771Y-124130952D01*
X212085771Y-124130952D02*
X212133390Y-124035714D01*
X212133390Y-124035714D02*
X212181009Y-123988095D01*
X212181009Y-123988095D02*
X212276247Y-123940476D01*
X212276247Y-123940476D02*
X212514342Y-123940476D01*
X212514342Y-123940476D02*
X212609580Y-123988095D01*
X212609580Y-123988095D02*
X212657200Y-124035714D01*
X212657200Y-124035714D02*
X212704819Y-124130952D01*
X212704819Y-124130952D02*
X212704819Y-124369047D01*
X212704819Y-124369047D02*
X212657200Y-124464285D01*
X212657200Y-124464285D02*
X212609580Y-124511904D01*
X211704819Y-123607142D02*
X211704819Y-122940476D01*
X211704819Y-122940476D02*
X212704819Y-123369047D01*
X108104819Y-154450594D02*
X107104819Y-154450594D01*
X107104819Y-154450594D02*
X107104819Y-154212499D01*
X107104819Y-154212499D02*
X107152438Y-154069642D01*
X107152438Y-154069642D02*
X107247676Y-153974404D01*
X107247676Y-153974404D02*
X107342914Y-153926785D01*
X107342914Y-153926785D02*
X107533390Y-153879166D01*
X107533390Y-153879166D02*
X107676247Y-153879166D01*
X107676247Y-153879166D02*
X107866723Y-153926785D01*
X107866723Y-153926785D02*
X107961961Y-153974404D01*
X107961961Y-153974404D02*
X108057200Y-154069642D01*
X108057200Y-154069642D02*
X108104819Y-154212499D01*
X108104819Y-154212499D02*
X108104819Y-154450594D01*
X108104819Y-153402975D02*
X108104819Y-153212499D01*
X108104819Y-153212499D02*
X108057200Y-153117261D01*
X108057200Y-153117261D02*
X108009580Y-153069642D01*
X108009580Y-153069642D02*
X107866723Y-152974404D01*
X107866723Y-152974404D02*
X107676247Y-152926785D01*
X107676247Y-152926785D02*
X107295295Y-152926785D01*
X107295295Y-152926785D02*
X107200057Y-152974404D01*
X107200057Y-152974404D02*
X107152438Y-153022023D01*
X107152438Y-153022023D02*
X107104819Y-153117261D01*
X107104819Y-153117261D02*
X107104819Y-153307737D01*
X107104819Y-153307737D02*
X107152438Y-153402975D01*
X107152438Y-153402975D02*
X107200057Y-153450594D01*
X107200057Y-153450594D02*
X107295295Y-153498213D01*
X107295295Y-153498213D02*
X107533390Y-153498213D01*
X107533390Y-153498213D02*
X107628628Y-153450594D01*
X107628628Y-153450594D02*
X107676247Y-153402975D01*
X107676247Y-153402975D02*
X107723866Y-153307737D01*
X107723866Y-153307737D02*
X107723866Y-153117261D01*
X107723866Y-153117261D02*
X107676247Y-153022023D01*
X107676247Y-153022023D02*
X107628628Y-152974404D01*
X107628628Y-152974404D02*
X107533390Y-152926785D01*
X58511905Y-87704819D02*
X58511905Y-88514342D01*
X58511905Y-88514342D02*
X58559524Y-88609580D01*
X58559524Y-88609580D02*
X58607143Y-88657200D01*
X58607143Y-88657200D02*
X58702381Y-88704819D01*
X58702381Y-88704819D02*
X58892857Y-88704819D01*
X58892857Y-88704819D02*
X58988095Y-88657200D01*
X58988095Y-88657200D02*
X59035714Y-88609580D01*
X59035714Y-88609580D02*
X59083333Y-88514342D01*
X59083333Y-88514342D02*
X59083333Y-87704819D01*
X59511905Y-87800057D02*
X59559524Y-87752438D01*
X59559524Y-87752438D02*
X59654762Y-87704819D01*
X59654762Y-87704819D02*
X59892857Y-87704819D01*
X59892857Y-87704819D02*
X59988095Y-87752438D01*
X59988095Y-87752438D02*
X60035714Y-87800057D01*
X60035714Y-87800057D02*
X60083333Y-87895295D01*
X60083333Y-87895295D02*
X60083333Y-87990533D01*
X60083333Y-87990533D02*
X60035714Y-88133390D01*
X60035714Y-88133390D02*
X59464286Y-88704819D01*
X59464286Y-88704819D02*
X60083333Y-88704819D01*
X61035714Y-88704819D02*
X60464286Y-88704819D01*
X60750000Y-88704819D02*
X60750000Y-87704819D01*
X60750000Y-87704819D02*
X60654762Y-87847676D01*
X60654762Y-87847676D02*
X60559524Y-87942914D01*
X60559524Y-87942914D02*
X60464286Y-87990533D01*
X111024819Y-160067857D02*
X110548628Y-160401190D01*
X111024819Y-160639285D02*
X110024819Y-160639285D01*
X110024819Y-160639285D02*
X110024819Y-160258333D01*
X110024819Y-160258333D02*
X110072438Y-160163095D01*
X110072438Y-160163095D02*
X110120057Y-160115476D01*
X110120057Y-160115476D02*
X110215295Y-160067857D01*
X110215295Y-160067857D02*
X110358152Y-160067857D01*
X110358152Y-160067857D02*
X110453390Y-160115476D01*
X110453390Y-160115476D02*
X110501009Y-160163095D01*
X110501009Y-160163095D02*
X110548628Y-160258333D01*
X110548628Y-160258333D02*
X110548628Y-160639285D01*
X110024819Y-159734523D02*
X110024819Y-159067857D01*
X110024819Y-159067857D02*
X111024819Y-159496428D01*
X110358152Y-158258333D02*
X111024819Y-158258333D01*
X109977200Y-158496428D02*
X110691485Y-158734523D01*
X110691485Y-158734523D02*
X110691485Y-158115476D01*
X216066666Y-98154819D02*
X216066666Y-98869104D01*
X216066666Y-98869104D02*
X216019047Y-99011961D01*
X216019047Y-99011961D02*
X215923809Y-99107200D01*
X215923809Y-99107200D02*
X215780952Y-99154819D01*
X215780952Y-99154819D02*
X215685714Y-99154819D01*
X216590476Y-99154819D02*
X216780952Y-99154819D01*
X216780952Y-99154819D02*
X216876190Y-99107200D01*
X216876190Y-99107200D02*
X216923809Y-99059580D01*
X216923809Y-99059580D02*
X217019047Y-98916723D01*
X217019047Y-98916723D02*
X217066666Y-98726247D01*
X217066666Y-98726247D02*
X217066666Y-98345295D01*
X217066666Y-98345295D02*
X217019047Y-98250057D01*
X217019047Y-98250057D02*
X216971428Y-98202438D01*
X216971428Y-98202438D02*
X216876190Y-98154819D01*
X216876190Y-98154819D02*
X216685714Y-98154819D01*
X216685714Y-98154819D02*
X216590476Y-98202438D01*
X216590476Y-98202438D02*
X216542857Y-98250057D01*
X216542857Y-98250057D02*
X216495238Y-98345295D01*
X216495238Y-98345295D02*
X216495238Y-98583390D01*
X216495238Y-98583390D02*
X216542857Y-98678628D01*
X216542857Y-98678628D02*
X216590476Y-98726247D01*
X216590476Y-98726247D02*
X216685714Y-98773866D01*
X216685714Y-98773866D02*
X216876190Y-98773866D01*
X216876190Y-98773866D02*
X216971428Y-98726247D01*
X216971428Y-98726247D02*
X217019047Y-98678628D01*
X217019047Y-98678628D02*
X217066666Y-98583390D01*
X104179580Y-102642857D02*
X104227200Y-102690476D01*
X104227200Y-102690476D02*
X104274819Y-102833333D01*
X104274819Y-102833333D02*
X104274819Y-102928571D01*
X104274819Y-102928571D02*
X104227200Y-103071428D01*
X104227200Y-103071428D02*
X104131961Y-103166666D01*
X104131961Y-103166666D02*
X104036723Y-103214285D01*
X104036723Y-103214285D02*
X103846247Y-103261904D01*
X103846247Y-103261904D02*
X103703390Y-103261904D01*
X103703390Y-103261904D02*
X103512914Y-103214285D01*
X103512914Y-103214285D02*
X103417676Y-103166666D01*
X103417676Y-103166666D02*
X103322438Y-103071428D01*
X103322438Y-103071428D02*
X103274819Y-102928571D01*
X103274819Y-102928571D02*
X103274819Y-102833333D01*
X103274819Y-102833333D02*
X103322438Y-102690476D01*
X103322438Y-102690476D02*
X103370057Y-102642857D01*
X103370057Y-102261904D02*
X103322438Y-102214285D01*
X103322438Y-102214285D02*
X103274819Y-102119047D01*
X103274819Y-102119047D02*
X103274819Y-101880952D01*
X103274819Y-101880952D02*
X103322438Y-101785714D01*
X103322438Y-101785714D02*
X103370057Y-101738095D01*
X103370057Y-101738095D02*
X103465295Y-101690476D01*
X103465295Y-101690476D02*
X103560533Y-101690476D01*
X103560533Y-101690476D02*
X103703390Y-101738095D01*
X103703390Y-101738095D02*
X104274819Y-102309523D01*
X104274819Y-102309523D02*
X104274819Y-101690476D01*
X103274819Y-101357142D02*
X103274819Y-100690476D01*
X103274819Y-100690476D02*
X104274819Y-101119047D01*
X67416666Y-68654819D02*
X67416666Y-69369104D01*
X67416666Y-69369104D02*
X67369047Y-69511961D01*
X67369047Y-69511961D02*
X67273809Y-69607200D01*
X67273809Y-69607200D02*
X67130952Y-69654819D01*
X67130952Y-69654819D02*
X67035714Y-69654819D01*
X68416666Y-69654819D02*
X67845238Y-69654819D01*
X68130952Y-69654819D02*
X68130952Y-68654819D01*
X68130952Y-68654819D02*
X68035714Y-68797676D01*
X68035714Y-68797676D02*
X67940476Y-68892914D01*
X67940476Y-68892914D02*
X67845238Y-68940533D01*
X178440476Y-68654819D02*
X178440476Y-69369104D01*
X178440476Y-69369104D02*
X178392857Y-69511961D01*
X178392857Y-69511961D02*
X178297619Y-69607200D01*
X178297619Y-69607200D02*
X178154762Y-69654819D01*
X178154762Y-69654819D02*
X178059524Y-69654819D01*
X179440476Y-69654819D02*
X178869048Y-69654819D01*
X179154762Y-69654819D02*
X179154762Y-68654819D01*
X179154762Y-68654819D02*
X179059524Y-68797676D01*
X179059524Y-68797676D02*
X178964286Y-68892914D01*
X178964286Y-68892914D02*
X178869048Y-68940533D01*
X179821429Y-68750057D02*
X179869048Y-68702438D01*
X179869048Y-68702438D02*
X179964286Y-68654819D01*
X179964286Y-68654819D02*
X180202381Y-68654819D01*
X180202381Y-68654819D02*
X180297619Y-68702438D01*
X180297619Y-68702438D02*
X180345238Y-68750057D01*
X180345238Y-68750057D02*
X180392857Y-68845295D01*
X180392857Y-68845295D02*
X180392857Y-68940533D01*
X180392857Y-68940533D02*
X180345238Y-69083390D01*
X180345238Y-69083390D02*
X179773810Y-69654819D01*
X179773810Y-69654819D02*
X180392857Y-69654819D01*
X121604819Y-164676785D02*
X120604819Y-164676785D01*
X120604819Y-164676785D02*
X120604819Y-164438690D01*
X120604819Y-164438690D02*
X120652438Y-164295833D01*
X120652438Y-164295833D02*
X120747676Y-164200595D01*
X120747676Y-164200595D02*
X120842914Y-164152976D01*
X120842914Y-164152976D02*
X121033390Y-164105357D01*
X121033390Y-164105357D02*
X121176247Y-164105357D01*
X121176247Y-164105357D02*
X121366723Y-164152976D01*
X121366723Y-164152976D02*
X121461961Y-164200595D01*
X121461961Y-164200595D02*
X121557200Y-164295833D01*
X121557200Y-164295833D02*
X121604819Y-164438690D01*
X121604819Y-164438690D02*
X121604819Y-164676785D01*
X121604819Y-163152976D02*
X121604819Y-163724404D01*
X121604819Y-163438690D02*
X120604819Y-163438690D01*
X120604819Y-163438690D02*
X120747676Y-163533928D01*
X120747676Y-163533928D02*
X120842914Y-163629166D01*
X120842914Y-163629166D02*
X120890533Y-163724404D01*
X121604819Y-162200595D02*
X121604819Y-162772023D01*
X121604819Y-162486309D02*
X120604819Y-162486309D01*
X120604819Y-162486309D02*
X120747676Y-162581547D01*
X120747676Y-162581547D02*
X120842914Y-162676785D01*
X120842914Y-162676785D02*
X120890533Y-162772023D01*
X104774819Y-160105357D02*
X104298628Y-160438690D01*
X104774819Y-160676785D02*
X103774819Y-160676785D01*
X103774819Y-160676785D02*
X103774819Y-160295833D01*
X103774819Y-160295833D02*
X103822438Y-160200595D01*
X103822438Y-160200595D02*
X103870057Y-160152976D01*
X103870057Y-160152976D02*
X103965295Y-160105357D01*
X103965295Y-160105357D02*
X104108152Y-160105357D01*
X104108152Y-160105357D02*
X104203390Y-160152976D01*
X104203390Y-160152976D02*
X104251009Y-160200595D01*
X104251009Y-160200595D02*
X104298628Y-160295833D01*
X104298628Y-160295833D02*
X104298628Y-160676785D01*
X103774819Y-159772023D02*
X103774819Y-159105357D01*
X103774819Y-159105357D02*
X104774819Y-159533928D01*
X103774819Y-158533928D02*
X103774819Y-158438690D01*
X103774819Y-158438690D02*
X103822438Y-158343452D01*
X103822438Y-158343452D02*
X103870057Y-158295833D01*
X103870057Y-158295833D02*
X103965295Y-158248214D01*
X103965295Y-158248214D02*
X104155771Y-158200595D01*
X104155771Y-158200595D02*
X104393866Y-158200595D01*
X104393866Y-158200595D02*
X104584342Y-158248214D01*
X104584342Y-158248214D02*
X104679580Y-158295833D01*
X104679580Y-158295833D02*
X104727200Y-158343452D01*
X104727200Y-158343452D02*
X104774819Y-158438690D01*
X104774819Y-158438690D02*
X104774819Y-158533928D01*
X104774819Y-158533928D02*
X104727200Y-158629166D01*
X104727200Y-158629166D02*
X104679580Y-158676785D01*
X104679580Y-158676785D02*
X104584342Y-158724404D01*
X104584342Y-158724404D02*
X104393866Y-158772023D01*
X104393866Y-158772023D02*
X104155771Y-158772023D01*
X104155771Y-158772023D02*
X103965295Y-158724404D01*
X103965295Y-158724404D02*
X103870057Y-158676785D01*
X103870057Y-158676785D02*
X103822438Y-158629166D01*
X103822438Y-158629166D02*
X103774819Y-158533928D01*
X57238095Y-159254819D02*
X57238095Y-158254819D01*
X57238095Y-158731009D02*
X57809523Y-158731009D01*
X57809523Y-159254819D02*
X57809523Y-158254819D01*
X58809523Y-159254819D02*
X58238095Y-159254819D01*
X58523809Y-159254819D02*
X58523809Y-158254819D01*
X58523809Y-158254819D02*
X58428571Y-158397676D01*
X58428571Y-158397676D02*
X58333333Y-158492914D01*
X58333333Y-158492914D02*
X58238095Y-158540533D01*
X133916666Y-68654819D02*
X133916666Y-69369104D01*
X133916666Y-69369104D02*
X133869047Y-69511961D01*
X133869047Y-69511961D02*
X133773809Y-69607200D01*
X133773809Y-69607200D02*
X133630952Y-69654819D01*
X133630952Y-69654819D02*
X133535714Y-69654819D01*
X134297619Y-68654819D02*
X134964285Y-68654819D01*
X134964285Y-68654819D02*
X134535714Y-69654819D01*
X77604819Y-144661904D02*
X78414342Y-144661904D01*
X78414342Y-144661904D02*
X78509580Y-144614285D01*
X78509580Y-144614285D02*
X78557200Y-144566666D01*
X78557200Y-144566666D02*
X78604819Y-144471428D01*
X78604819Y-144471428D02*
X78604819Y-144280952D01*
X78604819Y-144280952D02*
X78557200Y-144185714D01*
X78557200Y-144185714D02*
X78509580Y-144138095D01*
X78509580Y-144138095D02*
X78414342Y-144090476D01*
X78414342Y-144090476D02*
X77604819Y-144090476D01*
X77700057Y-143661904D02*
X77652438Y-143614285D01*
X77652438Y-143614285D02*
X77604819Y-143519047D01*
X77604819Y-143519047D02*
X77604819Y-143280952D01*
X77604819Y-143280952D02*
X77652438Y-143185714D01*
X77652438Y-143185714D02*
X77700057Y-143138095D01*
X77700057Y-143138095D02*
X77795295Y-143090476D01*
X77795295Y-143090476D02*
X77890533Y-143090476D01*
X77890533Y-143090476D02*
X78033390Y-143138095D01*
X78033390Y-143138095D02*
X78604819Y-143709523D01*
X78604819Y-143709523D02*
X78604819Y-143090476D01*
X205033333Y-130504819D02*
X204557143Y-130504819D01*
X204557143Y-130504819D02*
X204557143Y-129504819D01*
X205890476Y-130504819D02*
X205319048Y-130504819D01*
X205604762Y-130504819D02*
X205604762Y-129504819D01*
X205604762Y-129504819D02*
X205509524Y-129647676D01*
X205509524Y-129647676D02*
X205414286Y-129742914D01*
X205414286Y-129742914D02*
X205319048Y-129790533D01*
X218833333Y-118609580D02*
X218785714Y-118657200D01*
X218785714Y-118657200D02*
X218642857Y-118704819D01*
X218642857Y-118704819D02*
X218547619Y-118704819D01*
X218547619Y-118704819D02*
X218404762Y-118657200D01*
X218404762Y-118657200D02*
X218309524Y-118561961D01*
X218309524Y-118561961D02*
X218261905Y-118466723D01*
X218261905Y-118466723D02*
X218214286Y-118276247D01*
X218214286Y-118276247D02*
X218214286Y-118133390D01*
X218214286Y-118133390D02*
X218261905Y-117942914D01*
X218261905Y-117942914D02*
X218309524Y-117847676D01*
X218309524Y-117847676D02*
X218404762Y-117752438D01*
X218404762Y-117752438D02*
X218547619Y-117704819D01*
X218547619Y-117704819D02*
X218642857Y-117704819D01*
X218642857Y-117704819D02*
X218785714Y-117752438D01*
X218785714Y-117752438D02*
X218833333Y-117800057D01*
X219738095Y-117704819D02*
X219261905Y-117704819D01*
X219261905Y-117704819D02*
X219214286Y-118181009D01*
X219214286Y-118181009D02*
X219261905Y-118133390D01*
X219261905Y-118133390D02*
X219357143Y-118085771D01*
X219357143Y-118085771D02*
X219595238Y-118085771D01*
X219595238Y-118085771D02*
X219690476Y-118133390D01*
X219690476Y-118133390D02*
X219738095Y-118181009D01*
X219738095Y-118181009D02*
X219785714Y-118276247D01*
X219785714Y-118276247D02*
X219785714Y-118514342D01*
X219785714Y-118514342D02*
X219738095Y-118609580D01*
X219738095Y-118609580D02*
X219690476Y-118657200D01*
X219690476Y-118657200D02*
X219595238Y-118704819D01*
X219595238Y-118704819D02*
X219357143Y-118704819D01*
X219357143Y-118704819D02*
X219261905Y-118657200D01*
X219261905Y-118657200D02*
X219214286Y-118609580D01*
X189690476Y-68654819D02*
X189690476Y-69369104D01*
X189690476Y-69369104D02*
X189642857Y-69511961D01*
X189642857Y-69511961D02*
X189547619Y-69607200D01*
X189547619Y-69607200D02*
X189404762Y-69654819D01*
X189404762Y-69654819D02*
X189309524Y-69654819D01*
X190690476Y-69654819D02*
X190119048Y-69654819D01*
X190404762Y-69654819D02*
X190404762Y-68654819D01*
X190404762Y-68654819D02*
X190309524Y-68797676D01*
X190309524Y-68797676D02*
X190214286Y-68892914D01*
X190214286Y-68892914D02*
X190119048Y-68940533D01*
X191023810Y-68654819D02*
X191642857Y-68654819D01*
X191642857Y-68654819D02*
X191309524Y-69035771D01*
X191309524Y-69035771D02*
X191452381Y-69035771D01*
X191452381Y-69035771D02*
X191547619Y-69083390D01*
X191547619Y-69083390D02*
X191595238Y-69131009D01*
X191595238Y-69131009D02*
X191642857Y-69226247D01*
X191642857Y-69226247D02*
X191642857Y-69464342D01*
X191642857Y-69464342D02*
X191595238Y-69559580D01*
X191595238Y-69559580D02*
X191547619Y-69607200D01*
X191547619Y-69607200D02*
X191452381Y-69654819D01*
X191452381Y-69654819D02*
X191166667Y-69654819D01*
X191166667Y-69654819D02*
X191071429Y-69607200D01*
X191071429Y-69607200D02*
X191023810Y-69559580D01*
X57511905Y-109704819D02*
X57511905Y-110514342D01*
X57511905Y-110514342D02*
X57559524Y-110609580D01*
X57559524Y-110609580D02*
X57607143Y-110657200D01*
X57607143Y-110657200D02*
X57702381Y-110704819D01*
X57702381Y-110704819D02*
X57892857Y-110704819D01*
X57892857Y-110704819D02*
X57988095Y-110657200D01*
X57988095Y-110657200D02*
X58035714Y-110609580D01*
X58035714Y-110609580D02*
X58083333Y-110514342D01*
X58083333Y-110514342D02*
X58083333Y-109704819D01*
X58511905Y-109800057D02*
X58559524Y-109752438D01*
X58559524Y-109752438D02*
X58654762Y-109704819D01*
X58654762Y-109704819D02*
X58892857Y-109704819D01*
X58892857Y-109704819D02*
X58988095Y-109752438D01*
X58988095Y-109752438D02*
X59035714Y-109800057D01*
X59035714Y-109800057D02*
X59083333Y-109895295D01*
X59083333Y-109895295D02*
X59083333Y-109990533D01*
X59083333Y-109990533D02*
X59035714Y-110133390D01*
X59035714Y-110133390D02*
X58464286Y-110704819D01*
X58464286Y-110704819D02*
X59083333Y-110704819D01*
X59464286Y-109800057D02*
X59511905Y-109752438D01*
X59511905Y-109752438D02*
X59607143Y-109704819D01*
X59607143Y-109704819D02*
X59845238Y-109704819D01*
X59845238Y-109704819D02*
X59940476Y-109752438D01*
X59940476Y-109752438D02*
X59988095Y-109800057D01*
X59988095Y-109800057D02*
X60035714Y-109895295D01*
X60035714Y-109895295D02*
X60035714Y-109990533D01*
X60035714Y-109990533D02*
X59988095Y-110133390D01*
X59988095Y-110133390D02*
X59416667Y-110704819D01*
X59416667Y-110704819D02*
X60035714Y-110704819D01*
X54738095Y-77204819D02*
X54738095Y-76204819D01*
X54738095Y-76681009D02*
X55309523Y-76681009D01*
X55309523Y-77204819D02*
X55309523Y-76204819D01*
X56214285Y-76538152D02*
X56214285Y-77204819D01*
X55976190Y-76157200D02*
X55738095Y-76871485D01*
X55738095Y-76871485D02*
X56357142Y-76871485D01*
X214333333Y-129039580D02*
X214285714Y-129087200D01*
X214285714Y-129087200D02*
X214142857Y-129134819D01*
X214142857Y-129134819D02*
X214047619Y-129134819D01*
X214047619Y-129134819D02*
X213904762Y-129087200D01*
X213904762Y-129087200D02*
X213809524Y-128991961D01*
X213809524Y-128991961D02*
X213761905Y-128896723D01*
X213761905Y-128896723D02*
X213714286Y-128706247D01*
X213714286Y-128706247D02*
X213714286Y-128563390D01*
X213714286Y-128563390D02*
X213761905Y-128372914D01*
X213761905Y-128372914D02*
X213809524Y-128277676D01*
X213809524Y-128277676D02*
X213904762Y-128182438D01*
X213904762Y-128182438D02*
X214047619Y-128134819D01*
X214047619Y-128134819D02*
X214142857Y-128134819D01*
X214142857Y-128134819D02*
X214285714Y-128182438D01*
X214285714Y-128182438D02*
X214333333Y-128230057D01*
X214809524Y-129134819D02*
X215000000Y-129134819D01*
X215000000Y-129134819D02*
X215095238Y-129087200D01*
X215095238Y-129087200D02*
X215142857Y-129039580D01*
X215142857Y-129039580D02*
X215238095Y-128896723D01*
X215238095Y-128896723D02*
X215285714Y-128706247D01*
X215285714Y-128706247D02*
X215285714Y-128325295D01*
X215285714Y-128325295D02*
X215238095Y-128230057D01*
X215238095Y-128230057D02*
X215190476Y-128182438D01*
X215190476Y-128182438D02*
X215095238Y-128134819D01*
X215095238Y-128134819D02*
X214904762Y-128134819D01*
X214904762Y-128134819D02*
X214809524Y-128182438D01*
X214809524Y-128182438D02*
X214761905Y-128230057D01*
X214761905Y-128230057D02*
X214714286Y-128325295D01*
X214714286Y-128325295D02*
X214714286Y-128563390D01*
X214714286Y-128563390D02*
X214761905Y-128658628D01*
X214761905Y-128658628D02*
X214809524Y-128706247D01*
X214809524Y-128706247D02*
X214904762Y-128753866D01*
X214904762Y-128753866D02*
X215095238Y-128753866D01*
X215095238Y-128753866D02*
X215190476Y-128706247D01*
X215190476Y-128706247D02*
X215238095Y-128658628D01*
X215238095Y-128658628D02*
X215285714Y-128563390D01*
X102319642Y-105024819D02*
X101986309Y-104548628D01*
X101748214Y-105024819D02*
X101748214Y-104024819D01*
X101748214Y-104024819D02*
X102129166Y-104024819D01*
X102129166Y-104024819D02*
X102224404Y-104072438D01*
X102224404Y-104072438D02*
X102272023Y-104120057D01*
X102272023Y-104120057D02*
X102319642Y-104215295D01*
X102319642Y-104215295D02*
X102319642Y-104358152D01*
X102319642Y-104358152D02*
X102272023Y-104453390D01*
X102272023Y-104453390D02*
X102224404Y-104501009D01*
X102224404Y-104501009D02*
X102129166Y-104548628D01*
X102129166Y-104548628D02*
X101748214Y-104548628D01*
X102700595Y-104120057D02*
X102748214Y-104072438D01*
X102748214Y-104072438D02*
X102843452Y-104024819D01*
X102843452Y-104024819D02*
X103081547Y-104024819D01*
X103081547Y-104024819D02*
X103176785Y-104072438D01*
X103176785Y-104072438D02*
X103224404Y-104120057D01*
X103224404Y-104120057D02*
X103272023Y-104215295D01*
X103272023Y-104215295D02*
X103272023Y-104310533D01*
X103272023Y-104310533D02*
X103224404Y-104453390D01*
X103224404Y-104453390D02*
X102652976Y-105024819D01*
X102652976Y-105024819D02*
X103272023Y-105024819D01*
X103891071Y-104024819D02*
X103986309Y-104024819D01*
X103986309Y-104024819D02*
X104081547Y-104072438D01*
X104081547Y-104072438D02*
X104129166Y-104120057D01*
X104129166Y-104120057D02*
X104176785Y-104215295D01*
X104176785Y-104215295D02*
X104224404Y-104405771D01*
X104224404Y-104405771D02*
X104224404Y-104643866D01*
X104224404Y-104643866D02*
X104176785Y-104834342D01*
X104176785Y-104834342D02*
X104129166Y-104929580D01*
X104129166Y-104929580D02*
X104081547Y-104977200D01*
X104081547Y-104977200D02*
X103986309Y-105024819D01*
X103986309Y-105024819D02*
X103891071Y-105024819D01*
X103891071Y-105024819D02*
X103795833Y-104977200D01*
X103795833Y-104977200D02*
X103748214Y-104929580D01*
X103748214Y-104929580D02*
X103700595Y-104834342D01*
X103700595Y-104834342D02*
X103652976Y-104643866D01*
X103652976Y-104643866D02*
X103652976Y-104405771D01*
X103652976Y-104405771D02*
X103700595Y-104215295D01*
X103700595Y-104215295D02*
X103748214Y-104120057D01*
X103748214Y-104120057D02*
X103795833Y-104072438D01*
X103795833Y-104072438D02*
X103891071Y-104024819D01*
X198261905Y-138704819D02*
X198261905Y-137704819D01*
X198261905Y-137704819D02*
X198500000Y-137704819D01*
X198500000Y-137704819D02*
X198642857Y-137752438D01*
X198642857Y-137752438D02*
X198738095Y-137847676D01*
X198738095Y-137847676D02*
X198785714Y-137942914D01*
X198785714Y-137942914D02*
X198833333Y-138133390D01*
X198833333Y-138133390D02*
X198833333Y-138276247D01*
X198833333Y-138276247D02*
X198785714Y-138466723D01*
X198785714Y-138466723D02*
X198738095Y-138561961D01*
X198738095Y-138561961D02*
X198642857Y-138657200D01*
X198642857Y-138657200D02*
X198500000Y-138704819D01*
X198500000Y-138704819D02*
X198261905Y-138704819D01*
X199214286Y-137800057D02*
X199261905Y-137752438D01*
X199261905Y-137752438D02*
X199357143Y-137704819D01*
X199357143Y-137704819D02*
X199595238Y-137704819D01*
X199595238Y-137704819D02*
X199690476Y-137752438D01*
X199690476Y-137752438D02*
X199738095Y-137800057D01*
X199738095Y-137800057D02*
X199785714Y-137895295D01*
X199785714Y-137895295D02*
X199785714Y-137990533D01*
X199785714Y-137990533D02*
X199738095Y-138133390D01*
X199738095Y-138133390D02*
X199166667Y-138704819D01*
X199166667Y-138704819D02*
X199785714Y-138704819D01*
X69774819Y-151642857D02*
X69298628Y-151976190D01*
X69774819Y-152214285D02*
X68774819Y-152214285D01*
X68774819Y-152214285D02*
X68774819Y-151833333D01*
X68774819Y-151833333D02*
X68822438Y-151738095D01*
X68822438Y-151738095D02*
X68870057Y-151690476D01*
X68870057Y-151690476D02*
X68965295Y-151642857D01*
X68965295Y-151642857D02*
X69108152Y-151642857D01*
X69108152Y-151642857D02*
X69203390Y-151690476D01*
X69203390Y-151690476D02*
X69251009Y-151738095D01*
X69251009Y-151738095D02*
X69298628Y-151833333D01*
X69298628Y-151833333D02*
X69298628Y-152214285D01*
X68870057Y-151261904D02*
X68822438Y-151214285D01*
X68822438Y-151214285D02*
X68774819Y-151119047D01*
X68774819Y-151119047D02*
X68774819Y-150880952D01*
X68774819Y-150880952D02*
X68822438Y-150785714D01*
X68822438Y-150785714D02*
X68870057Y-150738095D01*
X68870057Y-150738095D02*
X68965295Y-150690476D01*
X68965295Y-150690476D02*
X69060533Y-150690476D01*
X69060533Y-150690476D02*
X69203390Y-150738095D01*
X69203390Y-150738095D02*
X69774819Y-151309523D01*
X69774819Y-151309523D02*
X69774819Y-150690476D01*
X68870057Y-150309523D02*
X68822438Y-150261904D01*
X68822438Y-150261904D02*
X68774819Y-150166666D01*
X68774819Y-150166666D02*
X68774819Y-149928571D01*
X68774819Y-149928571D02*
X68822438Y-149833333D01*
X68822438Y-149833333D02*
X68870057Y-149785714D01*
X68870057Y-149785714D02*
X68965295Y-149738095D01*
X68965295Y-149738095D02*
X69060533Y-149738095D01*
X69060533Y-149738095D02*
X69203390Y-149785714D01*
X69203390Y-149785714D02*
X69774819Y-150357142D01*
X69774819Y-150357142D02*
X69774819Y-149738095D01*
X90324819Y-95478094D02*
X91134342Y-95478094D01*
X91134342Y-95478094D02*
X91229580Y-95430475D01*
X91229580Y-95430475D02*
X91277200Y-95382856D01*
X91277200Y-95382856D02*
X91324819Y-95287618D01*
X91324819Y-95287618D02*
X91324819Y-95097142D01*
X91324819Y-95097142D02*
X91277200Y-95001904D01*
X91277200Y-95001904D02*
X91229580Y-94954285D01*
X91229580Y-94954285D02*
X91134342Y-94906666D01*
X91134342Y-94906666D02*
X90324819Y-94906666D01*
X91324819Y-93906666D02*
X91324819Y-94478094D01*
X91324819Y-94192380D02*
X90324819Y-94192380D01*
X90324819Y-94192380D02*
X90467676Y-94287618D01*
X90467676Y-94287618D02*
X90562914Y-94382856D01*
X90562914Y-94382856D02*
X90610533Y-94478094D01*
X90324819Y-93049523D02*
X90324819Y-93239999D01*
X90324819Y-93239999D02*
X90372438Y-93335237D01*
X90372438Y-93335237D02*
X90420057Y-93382856D01*
X90420057Y-93382856D02*
X90562914Y-93478094D01*
X90562914Y-93478094D02*
X90753390Y-93525713D01*
X90753390Y-93525713D02*
X91134342Y-93525713D01*
X91134342Y-93525713D02*
X91229580Y-93478094D01*
X91229580Y-93478094D02*
X91277200Y-93430475D01*
X91277200Y-93430475D02*
X91324819Y-93335237D01*
X91324819Y-93335237D02*
X91324819Y-93144761D01*
X91324819Y-93144761D02*
X91277200Y-93049523D01*
X91277200Y-93049523D02*
X91229580Y-93001904D01*
X91229580Y-93001904D02*
X91134342Y-92954285D01*
X91134342Y-92954285D02*
X90896247Y-92954285D01*
X90896247Y-92954285D02*
X90801009Y-93001904D01*
X90801009Y-93001904D02*
X90753390Y-93049523D01*
X90753390Y-93049523D02*
X90705771Y-93144761D01*
X90705771Y-93144761D02*
X90705771Y-93335237D01*
X90705771Y-93335237D02*
X90753390Y-93430475D01*
X90753390Y-93430475D02*
X90801009Y-93478094D01*
X90801009Y-93478094D02*
X90896247Y-93525713D01*
X217238095Y-69704819D02*
X217238095Y-68704819D01*
X217238095Y-69181009D02*
X217809523Y-69181009D01*
X217809523Y-69704819D02*
X217809523Y-68704819D01*
X218714285Y-68704819D02*
X218523809Y-68704819D01*
X218523809Y-68704819D02*
X218428571Y-68752438D01*
X218428571Y-68752438D02*
X218380952Y-68800057D01*
X218380952Y-68800057D02*
X218285714Y-68942914D01*
X218285714Y-68942914D02*
X218238095Y-69133390D01*
X218238095Y-69133390D02*
X218238095Y-69514342D01*
X218238095Y-69514342D02*
X218285714Y-69609580D01*
X218285714Y-69609580D02*
X218333333Y-69657200D01*
X218333333Y-69657200D02*
X218428571Y-69704819D01*
X218428571Y-69704819D02*
X218619047Y-69704819D01*
X218619047Y-69704819D02*
X218714285Y-69657200D01*
X218714285Y-69657200D02*
X218761904Y-69609580D01*
X218761904Y-69609580D02*
X218809523Y-69514342D01*
X218809523Y-69514342D02*
X218809523Y-69276247D01*
X218809523Y-69276247D02*
X218761904Y-69181009D01*
X218761904Y-69181009D02*
X218714285Y-69133390D01*
X218714285Y-69133390D02*
X218619047Y-69085771D01*
X218619047Y-69085771D02*
X218428571Y-69085771D01*
X218428571Y-69085771D02*
X218333333Y-69133390D01*
X218333333Y-69133390D02*
X218285714Y-69181009D01*
X218285714Y-69181009D02*
X218238095Y-69276247D01*
X118274819Y-149916666D02*
X117798628Y-150249999D01*
X118274819Y-150488094D02*
X117274819Y-150488094D01*
X117274819Y-150488094D02*
X117274819Y-150107142D01*
X117274819Y-150107142D02*
X117322438Y-150011904D01*
X117322438Y-150011904D02*
X117370057Y-149964285D01*
X117370057Y-149964285D02*
X117465295Y-149916666D01*
X117465295Y-149916666D02*
X117608152Y-149916666D01*
X117608152Y-149916666D02*
X117703390Y-149964285D01*
X117703390Y-149964285D02*
X117751009Y-150011904D01*
X117751009Y-150011904D02*
X117798628Y-150107142D01*
X117798628Y-150107142D02*
X117798628Y-150488094D01*
X117274819Y-149011904D02*
X117274819Y-149488094D01*
X117274819Y-149488094D02*
X117751009Y-149535713D01*
X117751009Y-149535713D02*
X117703390Y-149488094D01*
X117703390Y-149488094D02*
X117655771Y-149392856D01*
X117655771Y-149392856D02*
X117655771Y-149154761D01*
X117655771Y-149154761D02*
X117703390Y-149059523D01*
X117703390Y-149059523D02*
X117751009Y-149011904D01*
X117751009Y-149011904D02*
X117846247Y-148964285D01*
X117846247Y-148964285D02*
X118084342Y-148964285D01*
X118084342Y-148964285D02*
X118179580Y-149011904D01*
X118179580Y-149011904D02*
X118227200Y-149059523D01*
X118227200Y-149059523D02*
X118274819Y-149154761D01*
X118274819Y-149154761D02*
X118274819Y-149392856D01*
X118274819Y-149392856D02*
X118227200Y-149488094D01*
X118227200Y-149488094D02*
X118179580Y-149535713D01*
X69539580Y-125142857D02*
X69587200Y-125190476D01*
X69587200Y-125190476D02*
X69634819Y-125333333D01*
X69634819Y-125333333D02*
X69634819Y-125428571D01*
X69634819Y-125428571D02*
X69587200Y-125571428D01*
X69587200Y-125571428D02*
X69491961Y-125666666D01*
X69491961Y-125666666D02*
X69396723Y-125714285D01*
X69396723Y-125714285D02*
X69206247Y-125761904D01*
X69206247Y-125761904D02*
X69063390Y-125761904D01*
X69063390Y-125761904D02*
X68872914Y-125714285D01*
X68872914Y-125714285D02*
X68777676Y-125666666D01*
X68777676Y-125666666D02*
X68682438Y-125571428D01*
X68682438Y-125571428D02*
X68634819Y-125428571D01*
X68634819Y-125428571D02*
X68634819Y-125333333D01*
X68634819Y-125333333D02*
X68682438Y-125190476D01*
X68682438Y-125190476D02*
X68730057Y-125142857D01*
X68730057Y-124761904D02*
X68682438Y-124714285D01*
X68682438Y-124714285D02*
X68634819Y-124619047D01*
X68634819Y-124619047D02*
X68634819Y-124380952D01*
X68634819Y-124380952D02*
X68682438Y-124285714D01*
X68682438Y-124285714D02*
X68730057Y-124238095D01*
X68730057Y-124238095D02*
X68825295Y-124190476D01*
X68825295Y-124190476D02*
X68920533Y-124190476D01*
X68920533Y-124190476D02*
X69063390Y-124238095D01*
X69063390Y-124238095D02*
X69634819Y-124809523D01*
X69634819Y-124809523D02*
X69634819Y-124190476D01*
X68634819Y-123333333D02*
X68634819Y-123523809D01*
X68634819Y-123523809D02*
X68682438Y-123619047D01*
X68682438Y-123619047D02*
X68730057Y-123666666D01*
X68730057Y-123666666D02*
X68872914Y-123761904D01*
X68872914Y-123761904D02*
X69063390Y-123809523D01*
X69063390Y-123809523D02*
X69444342Y-123809523D01*
X69444342Y-123809523D02*
X69539580Y-123761904D01*
X69539580Y-123761904D02*
X69587200Y-123714285D01*
X69587200Y-123714285D02*
X69634819Y-123619047D01*
X69634819Y-123619047D02*
X69634819Y-123428571D01*
X69634819Y-123428571D02*
X69587200Y-123333333D01*
X69587200Y-123333333D02*
X69539580Y-123285714D01*
X69539580Y-123285714D02*
X69444342Y-123238095D01*
X69444342Y-123238095D02*
X69206247Y-123238095D01*
X69206247Y-123238095D02*
X69111009Y-123285714D01*
X69111009Y-123285714D02*
X69063390Y-123333333D01*
X69063390Y-123333333D02*
X69015771Y-123428571D01*
X69015771Y-123428571D02*
X69015771Y-123619047D01*
X69015771Y-123619047D02*
X69063390Y-123714285D01*
X69063390Y-123714285D02*
X69111009Y-123761904D01*
X69111009Y-123761904D02*
X69206247Y-123809523D01*
X69394642Y-122634819D02*
X69061309Y-122158628D01*
X68823214Y-122634819D02*
X68823214Y-121634819D01*
X68823214Y-121634819D02*
X69204166Y-121634819D01*
X69204166Y-121634819D02*
X69299404Y-121682438D01*
X69299404Y-121682438D02*
X69347023Y-121730057D01*
X69347023Y-121730057D02*
X69394642Y-121825295D01*
X69394642Y-121825295D02*
X69394642Y-121968152D01*
X69394642Y-121968152D02*
X69347023Y-122063390D01*
X69347023Y-122063390D02*
X69299404Y-122111009D01*
X69299404Y-122111009D02*
X69204166Y-122158628D01*
X69204166Y-122158628D02*
X68823214Y-122158628D01*
X69775595Y-121730057D02*
X69823214Y-121682438D01*
X69823214Y-121682438D02*
X69918452Y-121634819D01*
X69918452Y-121634819D02*
X70156547Y-121634819D01*
X70156547Y-121634819D02*
X70251785Y-121682438D01*
X70251785Y-121682438D02*
X70299404Y-121730057D01*
X70299404Y-121730057D02*
X70347023Y-121825295D01*
X70347023Y-121825295D02*
X70347023Y-121920533D01*
X70347023Y-121920533D02*
X70299404Y-122063390D01*
X70299404Y-122063390D02*
X69727976Y-122634819D01*
X69727976Y-122634819D02*
X70347023Y-122634819D01*
X70680357Y-121634819D02*
X71299404Y-121634819D01*
X71299404Y-121634819D02*
X70966071Y-122015771D01*
X70966071Y-122015771D02*
X71108928Y-122015771D01*
X71108928Y-122015771D02*
X71204166Y-122063390D01*
X71204166Y-122063390D02*
X71251785Y-122111009D01*
X71251785Y-122111009D02*
X71299404Y-122206247D01*
X71299404Y-122206247D02*
X71299404Y-122444342D01*
X71299404Y-122444342D02*
X71251785Y-122539580D01*
X71251785Y-122539580D02*
X71204166Y-122587200D01*
X71204166Y-122587200D02*
X71108928Y-122634819D01*
X71108928Y-122634819D02*
X70823214Y-122634819D01*
X70823214Y-122634819D02*
X70727976Y-122587200D01*
X70727976Y-122587200D02*
X70680357Y-122539580D01*
X145166666Y-68654819D02*
X145166666Y-69369104D01*
X145166666Y-69369104D02*
X145119047Y-69511961D01*
X145119047Y-69511961D02*
X145023809Y-69607200D01*
X145023809Y-69607200D02*
X144880952Y-69654819D01*
X144880952Y-69654819D02*
X144785714Y-69654819D01*
X145785714Y-69083390D02*
X145690476Y-69035771D01*
X145690476Y-69035771D02*
X145642857Y-68988152D01*
X145642857Y-68988152D02*
X145595238Y-68892914D01*
X145595238Y-68892914D02*
X145595238Y-68845295D01*
X145595238Y-68845295D02*
X145642857Y-68750057D01*
X145642857Y-68750057D02*
X145690476Y-68702438D01*
X145690476Y-68702438D02*
X145785714Y-68654819D01*
X145785714Y-68654819D02*
X145976190Y-68654819D01*
X145976190Y-68654819D02*
X146071428Y-68702438D01*
X146071428Y-68702438D02*
X146119047Y-68750057D01*
X146119047Y-68750057D02*
X146166666Y-68845295D01*
X146166666Y-68845295D02*
X146166666Y-68892914D01*
X146166666Y-68892914D02*
X146119047Y-68988152D01*
X146119047Y-68988152D02*
X146071428Y-69035771D01*
X146071428Y-69035771D02*
X145976190Y-69083390D01*
X145976190Y-69083390D02*
X145785714Y-69083390D01*
X145785714Y-69083390D02*
X145690476Y-69131009D01*
X145690476Y-69131009D02*
X145642857Y-69178628D01*
X145642857Y-69178628D02*
X145595238Y-69273866D01*
X145595238Y-69273866D02*
X145595238Y-69464342D01*
X145595238Y-69464342D02*
X145642857Y-69559580D01*
X145642857Y-69559580D02*
X145690476Y-69607200D01*
X145690476Y-69607200D02*
X145785714Y-69654819D01*
X145785714Y-69654819D02*
X145976190Y-69654819D01*
X145976190Y-69654819D02*
X146071428Y-69607200D01*
X146071428Y-69607200D02*
X146119047Y-69559580D01*
X146119047Y-69559580D02*
X146166666Y-69464342D01*
X146166666Y-69464342D02*
X146166666Y-69273866D01*
X146166666Y-69273866D02*
X146119047Y-69178628D01*
X146119047Y-69178628D02*
X146071428Y-69131009D01*
X146071428Y-69131009D02*
X145976190Y-69083390D01*
X85556667Y-160667200D02*
X85699524Y-160714819D01*
X85699524Y-160714819D02*
X85937619Y-160714819D01*
X85937619Y-160714819D02*
X86032857Y-160667200D01*
X86032857Y-160667200D02*
X86080476Y-160619580D01*
X86080476Y-160619580D02*
X86128095Y-160524342D01*
X86128095Y-160524342D02*
X86128095Y-160429104D01*
X86128095Y-160429104D02*
X86080476Y-160333866D01*
X86080476Y-160333866D02*
X86032857Y-160286247D01*
X86032857Y-160286247D02*
X85937619Y-160238628D01*
X85937619Y-160238628D02*
X85747143Y-160191009D01*
X85747143Y-160191009D02*
X85651905Y-160143390D01*
X85651905Y-160143390D02*
X85604286Y-160095771D01*
X85604286Y-160095771D02*
X85556667Y-160000533D01*
X85556667Y-160000533D02*
X85556667Y-159905295D01*
X85556667Y-159905295D02*
X85604286Y-159810057D01*
X85604286Y-159810057D02*
X85651905Y-159762438D01*
X85651905Y-159762438D02*
X85747143Y-159714819D01*
X85747143Y-159714819D02*
X85985238Y-159714819D01*
X85985238Y-159714819D02*
X86128095Y-159762438D01*
X86461429Y-159714819D02*
X86699524Y-160714819D01*
X86699524Y-160714819D02*
X86890000Y-160000533D01*
X86890000Y-160000533D02*
X87080476Y-160714819D01*
X87080476Y-160714819D02*
X87318572Y-159714819D01*
X88128095Y-159714819D02*
X87937619Y-159714819D01*
X87937619Y-159714819D02*
X87842381Y-159762438D01*
X87842381Y-159762438D02*
X87794762Y-159810057D01*
X87794762Y-159810057D02*
X87699524Y-159952914D01*
X87699524Y-159952914D02*
X87651905Y-160143390D01*
X87651905Y-160143390D02*
X87651905Y-160524342D01*
X87651905Y-160524342D02*
X87699524Y-160619580D01*
X87699524Y-160619580D02*
X87747143Y-160667200D01*
X87747143Y-160667200D02*
X87842381Y-160714819D01*
X87842381Y-160714819D02*
X88032857Y-160714819D01*
X88032857Y-160714819D02*
X88128095Y-160667200D01*
X88128095Y-160667200D02*
X88175714Y-160619580D01*
X88175714Y-160619580D02*
X88223333Y-160524342D01*
X88223333Y-160524342D02*
X88223333Y-160286247D01*
X88223333Y-160286247D02*
X88175714Y-160191009D01*
X88175714Y-160191009D02*
X88128095Y-160143390D01*
X88128095Y-160143390D02*
X88032857Y-160095771D01*
X88032857Y-160095771D02*
X87842381Y-160095771D01*
X87842381Y-160095771D02*
X87747143Y-160143390D01*
X87747143Y-160143390D02*
X87699524Y-160191009D01*
X87699524Y-160191009D02*
X87651905Y-160286247D01*
X105584819Y-133248094D02*
X106394342Y-133248094D01*
X106394342Y-133248094D02*
X106489580Y-133200475D01*
X106489580Y-133200475D02*
X106537200Y-133152856D01*
X106537200Y-133152856D02*
X106584819Y-133057618D01*
X106584819Y-133057618D02*
X106584819Y-132867142D01*
X106584819Y-132867142D02*
X106537200Y-132771904D01*
X106537200Y-132771904D02*
X106489580Y-132724285D01*
X106489580Y-132724285D02*
X106394342Y-132676666D01*
X106394342Y-132676666D02*
X105584819Y-132676666D01*
X106584819Y-131676666D02*
X106584819Y-132248094D01*
X106584819Y-131962380D02*
X105584819Y-131962380D01*
X105584819Y-131962380D02*
X105727676Y-132057618D01*
X105727676Y-132057618D02*
X105822914Y-132152856D01*
X105822914Y-132152856D02*
X105870533Y-132248094D01*
X105680057Y-131295713D02*
X105632438Y-131248094D01*
X105632438Y-131248094D02*
X105584819Y-131152856D01*
X105584819Y-131152856D02*
X105584819Y-130914761D01*
X105584819Y-130914761D02*
X105632438Y-130819523D01*
X105632438Y-130819523D02*
X105680057Y-130771904D01*
X105680057Y-130771904D02*
X105775295Y-130724285D01*
X105775295Y-130724285D02*
X105870533Y-130724285D01*
X105870533Y-130724285D02*
X106013390Y-130771904D01*
X106013390Y-130771904D02*
X106584819Y-131343332D01*
X106584819Y-131343332D02*
X106584819Y-130724285D01*
X118234819Y-160142857D02*
X117758628Y-160476190D01*
X118234819Y-160714285D02*
X117234819Y-160714285D01*
X117234819Y-160714285D02*
X117234819Y-160333333D01*
X117234819Y-160333333D02*
X117282438Y-160238095D01*
X117282438Y-160238095D02*
X117330057Y-160190476D01*
X117330057Y-160190476D02*
X117425295Y-160142857D01*
X117425295Y-160142857D02*
X117568152Y-160142857D01*
X117568152Y-160142857D02*
X117663390Y-160190476D01*
X117663390Y-160190476D02*
X117711009Y-160238095D01*
X117711009Y-160238095D02*
X117758628Y-160333333D01*
X117758628Y-160333333D02*
X117758628Y-160714285D01*
X117234819Y-159809523D02*
X117234819Y-159142857D01*
X117234819Y-159142857D02*
X118234819Y-159571428D01*
X117234819Y-158285714D02*
X117234819Y-158761904D01*
X117234819Y-158761904D02*
X117711009Y-158809523D01*
X117711009Y-158809523D02*
X117663390Y-158761904D01*
X117663390Y-158761904D02*
X117615771Y-158666666D01*
X117615771Y-158666666D02*
X117615771Y-158428571D01*
X117615771Y-158428571D02*
X117663390Y-158333333D01*
X117663390Y-158333333D02*
X117711009Y-158285714D01*
X117711009Y-158285714D02*
X117806247Y-158238095D01*
X117806247Y-158238095D02*
X118044342Y-158238095D01*
X118044342Y-158238095D02*
X118139580Y-158285714D01*
X118139580Y-158285714D02*
X118187200Y-158333333D01*
X118187200Y-158333333D02*
X118234819Y-158428571D01*
X118234819Y-158428571D02*
X118234819Y-158666666D01*
X118234819Y-158666666D02*
X118187200Y-158761904D01*
X118187200Y-158761904D02*
X118139580Y-158809523D01*
X71346666Y-155879819D02*
X71346666Y-156594104D01*
X71346666Y-156594104D02*
X71299047Y-156736961D01*
X71299047Y-156736961D02*
X71203809Y-156832200D01*
X71203809Y-156832200D02*
X71060952Y-156879819D01*
X71060952Y-156879819D02*
X70965714Y-156879819D01*
X72251428Y-156213152D02*
X72251428Y-156879819D01*
X72013333Y-155832200D02*
X71775238Y-156546485D01*
X71775238Y-156546485D02*
X72394285Y-156546485D01*
X73357142Y-119179580D02*
X73309523Y-119227200D01*
X73309523Y-119227200D02*
X73166666Y-119274819D01*
X73166666Y-119274819D02*
X73071428Y-119274819D01*
X73071428Y-119274819D02*
X72928571Y-119227200D01*
X72928571Y-119227200D02*
X72833333Y-119131961D01*
X72833333Y-119131961D02*
X72785714Y-119036723D01*
X72785714Y-119036723D02*
X72738095Y-118846247D01*
X72738095Y-118846247D02*
X72738095Y-118703390D01*
X72738095Y-118703390D02*
X72785714Y-118512914D01*
X72785714Y-118512914D02*
X72833333Y-118417676D01*
X72833333Y-118417676D02*
X72928571Y-118322438D01*
X72928571Y-118322438D02*
X73071428Y-118274819D01*
X73071428Y-118274819D02*
X73166666Y-118274819D01*
X73166666Y-118274819D02*
X73309523Y-118322438D01*
X73309523Y-118322438D02*
X73357142Y-118370057D01*
X73738095Y-118370057D02*
X73785714Y-118322438D01*
X73785714Y-118322438D02*
X73880952Y-118274819D01*
X73880952Y-118274819D02*
X74119047Y-118274819D01*
X74119047Y-118274819D02*
X74214285Y-118322438D01*
X74214285Y-118322438D02*
X74261904Y-118370057D01*
X74261904Y-118370057D02*
X74309523Y-118465295D01*
X74309523Y-118465295D02*
X74309523Y-118560533D01*
X74309523Y-118560533D02*
X74261904Y-118703390D01*
X74261904Y-118703390D02*
X73690476Y-119274819D01*
X73690476Y-119274819D02*
X74309523Y-119274819D01*
X75214285Y-118274819D02*
X74738095Y-118274819D01*
X74738095Y-118274819D02*
X74690476Y-118751009D01*
X74690476Y-118751009D02*
X74738095Y-118703390D01*
X74738095Y-118703390D02*
X74833333Y-118655771D01*
X74833333Y-118655771D02*
X75071428Y-118655771D01*
X75071428Y-118655771D02*
X75166666Y-118703390D01*
X75166666Y-118703390D02*
X75214285Y-118751009D01*
X75214285Y-118751009D02*
X75261904Y-118846247D01*
X75261904Y-118846247D02*
X75261904Y-119084342D01*
X75261904Y-119084342D02*
X75214285Y-119179580D01*
X75214285Y-119179580D02*
X75166666Y-119227200D01*
X75166666Y-119227200D02*
X75071428Y-119274819D01*
X75071428Y-119274819D02*
X74833333Y-119274819D01*
X74833333Y-119274819D02*
X74738095Y-119227200D01*
X74738095Y-119227200D02*
X74690476Y-119179580D01*
X211261905Y-138204819D02*
X211261905Y-137204819D01*
X211261905Y-137204819D02*
X211500000Y-137204819D01*
X211500000Y-137204819D02*
X211642857Y-137252438D01*
X211642857Y-137252438D02*
X211738095Y-137347676D01*
X211738095Y-137347676D02*
X211785714Y-137442914D01*
X211785714Y-137442914D02*
X211833333Y-137633390D01*
X211833333Y-137633390D02*
X211833333Y-137776247D01*
X211833333Y-137776247D02*
X211785714Y-137966723D01*
X211785714Y-137966723D02*
X211738095Y-138061961D01*
X211738095Y-138061961D02*
X211642857Y-138157200D01*
X211642857Y-138157200D02*
X211500000Y-138204819D01*
X211500000Y-138204819D02*
X211261905Y-138204819D01*
X212166667Y-137204819D02*
X212785714Y-137204819D01*
X212785714Y-137204819D02*
X212452381Y-137585771D01*
X212452381Y-137585771D02*
X212595238Y-137585771D01*
X212595238Y-137585771D02*
X212690476Y-137633390D01*
X212690476Y-137633390D02*
X212738095Y-137681009D01*
X212738095Y-137681009D02*
X212785714Y-137776247D01*
X212785714Y-137776247D02*
X212785714Y-138014342D01*
X212785714Y-138014342D02*
X212738095Y-138109580D01*
X212738095Y-138109580D02*
X212690476Y-138157200D01*
X212690476Y-138157200D02*
X212595238Y-138204819D01*
X212595238Y-138204819D02*
X212309524Y-138204819D01*
X212309524Y-138204819D02*
X212214286Y-138157200D01*
X212214286Y-138157200D02*
X212166667Y-138109580D01*
X198833333Y-122859580D02*
X198785714Y-122907200D01*
X198785714Y-122907200D02*
X198642857Y-122954819D01*
X198642857Y-122954819D02*
X198547619Y-122954819D01*
X198547619Y-122954819D02*
X198404762Y-122907200D01*
X198404762Y-122907200D02*
X198309524Y-122811961D01*
X198309524Y-122811961D02*
X198261905Y-122716723D01*
X198261905Y-122716723D02*
X198214286Y-122526247D01*
X198214286Y-122526247D02*
X198214286Y-122383390D01*
X198214286Y-122383390D02*
X198261905Y-122192914D01*
X198261905Y-122192914D02*
X198309524Y-122097676D01*
X198309524Y-122097676D02*
X198404762Y-122002438D01*
X198404762Y-122002438D02*
X198547619Y-121954819D01*
X198547619Y-121954819D02*
X198642857Y-121954819D01*
X198642857Y-121954819D02*
X198785714Y-122002438D01*
X198785714Y-122002438D02*
X198833333Y-122050057D01*
X199214286Y-122050057D02*
X199261905Y-122002438D01*
X199261905Y-122002438D02*
X199357143Y-121954819D01*
X199357143Y-121954819D02*
X199595238Y-121954819D01*
X199595238Y-121954819D02*
X199690476Y-122002438D01*
X199690476Y-122002438D02*
X199738095Y-122050057D01*
X199738095Y-122050057D02*
X199785714Y-122145295D01*
X199785714Y-122145295D02*
X199785714Y-122240533D01*
X199785714Y-122240533D02*
X199738095Y-122383390D01*
X199738095Y-122383390D02*
X199166667Y-122954819D01*
X199166667Y-122954819D02*
X199785714Y-122954819D01*
X112416666Y-68654819D02*
X112416666Y-69369104D01*
X112416666Y-69369104D02*
X112369047Y-69511961D01*
X112369047Y-69511961D02*
X112273809Y-69607200D01*
X112273809Y-69607200D02*
X112130952Y-69654819D01*
X112130952Y-69654819D02*
X112035714Y-69654819D01*
X113321428Y-68654819D02*
X113130952Y-68654819D01*
X113130952Y-68654819D02*
X113035714Y-68702438D01*
X113035714Y-68702438D02*
X112988095Y-68750057D01*
X112988095Y-68750057D02*
X112892857Y-68892914D01*
X112892857Y-68892914D02*
X112845238Y-69083390D01*
X112845238Y-69083390D02*
X112845238Y-69464342D01*
X112845238Y-69464342D02*
X112892857Y-69559580D01*
X112892857Y-69559580D02*
X112940476Y-69607200D01*
X112940476Y-69607200D02*
X113035714Y-69654819D01*
X113035714Y-69654819D02*
X113226190Y-69654819D01*
X113226190Y-69654819D02*
X113321428Y-69607200D01*
X113321428Y-69607200D02*
X113369047Y-69559580D01*
X113369047Y-69559580D02*
X113416666Y-69464342D01*
X113416666Y-69464342D02*
X113416666Y-69226247D01*
X113416666Y-69226247D02*
X113369047Y-69131009D01*
X113369047Y-69131009D02*
X113321428Y-69083390D01*
X113321428Y-69083390D02*
X113226190Y-69035771D01*
X113226190Y-69035771D02*
X113035714Y-69035771D01*
X113035714Y-69035771D02*
X112940476Y-69083390D01*
X112940476Y-69083390D02*
X112892857Y-69131009D01*
X112892857Y-69131009D02*
X112845238Y-69226247D01*
X68154819Y-118511904D02*
X68964342Y-118511904D01*
X68964342Y-118511904D02*
X69059580Y-118464285D01*
X69059580Y-118464285D02*
X69107200Y-118416666D01*
X69107200Y-118416666D02*
X69154819Y-118321428D01*
X69154819Y-118321428D02*
X69154819Y-118130952D01*
X69154819Y-118130952D02*
X69107200Y-118035714D01*
X69107200Y-118035714D02*
X69059580Y-117988095D01*
X69059580Y-117988095D02*
X68964342Y-117940476D01*
X68964342Y-117940476D02*
X68154819Y-117940476D01*
X68154819Y-117035714D02*
X68154819Y-117226190D01*
X68154819Y-117226190D02*
X68202438Y-117321428D01*
X68202438Y-117321428D02*
X68250057Y-117369047D01*
X68250057Y-117369047D02*
X68392914Y-117464285D01*
X68392914Y-117464285D02*
X68583390Y-117511904D01*
X68583390Y-117511904D02*
X68964342Y-117511904D01*
X68964342Y-117511904D02*
X69059580Y-117464285D01*
X69059580Y-117464285D02*
X69107200Y-117416666D01*
X69107200Y-117416666D02*
X69154819Y-117321428D01*
X69154819Y-117321428D02*
X69154819Y-117130952D01*
X69154819Y-117130952D02*
X69107200Y-117035714D01*
X69107200Y-117035714D02*
X69059580Y-116988095D01*
X69059580Y-116988095D02*
X68964342Y-116940476D01*
X68964342Y-116940476D02*
X68726247Y-116940476D01*
X68726247Y-116940476D02*
X68631009Y-116988095D01*
X68631009Y-116988095D02*
X68583390Y-117035714D01*
X68583390Y-117035714D02*
X68535771Y-117130952D01*
X68535771Y-117130952D02*
X68535771Y-117321428D01*
X68535771Y-117321428D02*
X68583390Y-117416666D01*
X68583390Y-117416666D02*
X68631009Y-117464285D01*
X68631009Y-117464285D02*
X68726247Y-117511904D01*
X201633333Y-129039580D02*
X201585714Y-129087200D01*
X201585714Y-129087200D02*
X201442857Y-129134819D01*
X201442857Y-129134819D02*
X201347619Y-129134819D01*
X201347619Y-129134819D02*
X201204762Y-129087200D01*
X201204762Y-129087200D02*
X201109524Y-128991961D01*
X201109524Y-128991961D02*
X201061905Y-128896723D01*
X201061905Y-128896723D02*
X201014286Y-128706247D01*
X201014286Y-128706247D02*
X201014286Y-128563390D01*
X201014286Y-128563390D02*
X201061905Y-128372914D01*
X201061905Y-128372914D02*
X201109524Y-128277676D01*
X201109524Y-128277676D02*
X201204762Y-128182438D01*
X201204762Y-128182438D02*
X201347619Y-128134819D01*
X201347619Y-128134819D02*
X201442857Y-128134819D01*
X201442857Y-128134819D02*
X201585714Y-128182438D01*
X201585714Y-128182438D02*
X201633333Y-128230057D01*
X202204762Y-128563390D02*
X202109524Y-128515771D01*
X202109524Y-128515771D02*
X202061905Y-128468152D01*
X202061905Y-128468152D02*
X202014286Y-128372914D01*
X202014286Y-128372914D02*
X202014286Y-128325295D01*
X202014286Y-128325295D02*
X202061905Y-128230057D01*
X202061905Y-128230057D02*
X202109524Y-128182438D01*
X202109524Y-128182438D02*
X202204762Y-128134819D01*
X202204762Y-128134819D02*
X202395238Y-128134819D01*
X202395238Y-128134819D02*
X202490476Y-128182438D01*
X202490476Y-128182438D02*
X202538095Y-128230057D01*
X202538095Y-128230057D02*
X202585714Y-128325295D01*
X202585714Y-128325295D02*
X202585714Y-128372914D01*
X202585714Y-128372914D02*
X202538095Y-128468152D01*
X202538095Y-128468152D02*
X202490476Y-128515771D01*
X202490476Y-128515771D02*
X202395238Y-128563390D01*
X202395238Y-128563390D02*
X202204762Y-128563390D01*
X202204762Y-128563390D02*
X202109524Y-128611009D01*
X202109524Y-128611009D02*
X202061905Y-128658628D01*
X202061905Y-128658628D02*
X202014286Y-128753866D01*
X202014286Y-128753866D02*
X202014286Y-128944342D01*
X202014286Y-128944342D02*
X202061905Y-129039580D01*
X202061905Y-129039580D02*
X202109524Y-129087200D01*
X202109524Y-129087200D02*
X202204762Y-129134819D01*
X202204762Y-129134819D02*
X202395238Y-129134819D01*
X202395238Y-129134819D02*
X202490476Y-129087200D01*
X202490476Y-129087200D02*
X202538095Y-129039580D01*
X202538095Y-129039580D02*
X202585714Y-128944342D01*
X202585714Y-128944342D02*
X202585714Y-128753866D01*
X202585714Y-128753866D02*
X202538095Y-128658628D01*
X202538095Y-128658628D02*
X202490476Y-128611009D01*
X202490476Y-128611009D02*
X202395238Y-128563390D01*
X206554526Y-151454819D02*
X206554526Y-150454819D01*
X206554526Y-150454819D02*
X206792621Y-150454819D01*
X206792621Y-150454819D02*
X206935478Y-150502438D01*
X206935478Y-150502438D02*
X207030716Y-150597676D01*
X207030716Y-150597676D02*
X207078335Y-150692914D01*
X207078335Y-150692914D02*
X207125954Y-150883390D01*
X207125954Y-150883390D02*
X207125954Y-151026247D01*
X207125954Y-151026247D02*
X207078335Y-151216723D01*
X207078335Y-151216723D02*
X207030716Y-151311961D01*
X207030716Y-151311961D02*
X206935478Y-151407200D01*
X206935478Y-151407200D02*
X206792621Y-151454819D01*
X206792621Y-151454819D02*
X206554526Y-151454819D01*
X207983097Y-150454819D02*
X207792621Y-150454819D01*
X207792621Y-150454819D02*
X207697383Y-150502438D01*
X207697383Y-150502438D02*
X207649764Y-150550057D01*
X207649764Y-150550057D02*
X207554526Y-150692914D01*
X207554526Y-150692914D02*
X207506907Y-150883390D01*
X207506907Y-150883390D02*
X207506907Y-151264342D01*
X207506907Y-151264342D02*
X207554526Y-151359580D01*
X207554526Y-151359580D02*
X207602145Y-151407200D01*
X207602145Y-151407200D02*
X207697383Y-151454819D01*
X207697383Y-151454819D02*
X207887859Y-151454819D01*
X207887859Y-151454819D02*
X207983097Y-151407200D01*
X207983097Y-151407200D02*
X208030716Y-151359580D01*
X208030716Y-151359580D02*
X208078335Y-151264342D01*
X208078335Y-151264342D02*
X208078335Y-151026247D01*
X208078335Y-151026247D02*
X208030716Y-150931009D01*
X208030716Y-150931009D02*
X207983097Y-150883390D01*
X207983097Y-150883390D02*
X207887859Y-150835771D01*
X207887859Y-150835771D02*
X207697383Y-150835771D01*
X207697383Y-150835771D02*
X207602145Y-150883390D01*
X207602145Y-150883390D02*
X207554526Y-150931009D01*
X207554526Y-150931009D02*
X207506907Y-151026247D01*
X167190476Y-68654819D02*
X167190476Y-69369104D01*
X167190476Y-69369104D02*
X167142857Y-69511961D01*
X167142857Y-69511961D02*
X167047619Y-69607200D01*
X167047619Y-69607200D02*
X166904762Y-69654819D01*
X166904762Y-69654819D02*
X166809524Y-69654819D01*
X168190476Y-69654819D02*
X167619048Y-69654819D01*
X167904762Y-69654819D02*
X167904762Y-68654819D01*
X167904762Y-68654819D02*
X167809524Y-68797676D01*
X167809524Y-68797676D02*
X167714286Y-68892914D01*
X167714286Y-68892914D02*
X167619048Y-68940533D01*
X169142857Y-69654819D02*
X168571429Y-69654819D01*
X168857143Y-69654819D02*
X168857143Y-68654819D01*
X168857143Y-68654819D02*
X168761905Y-68797676D01*
X168761905Y-68797676D02*
X168666667Y-68892914D01*
X168666667Y-68892914D02*
X168571429Y-68940533D01*
X97706667Y-160619700D02*
X97849524Y-160667319D01*
X97849524Y-160667319D02*
X98087619Y-160667319D01*
X98087619Y-160667319D02*
X98182857Y-160619700D01*
X98182857Y-160619700D02*
X98230476Y-160572080D01*
X98230476Y-160572080D02*
X98278095Y-160476842D01*
X98278095Y-160476842D02*
X98278095Y-160381604D01*
X98278095Y-160381604D02*
X98230476Y-160286366D01*
X98230476Y-160286366D02*
X98182857Y-160238747D01*
X98182857Y-160238747D02*
X98087619Y-160191128D01*
X98087619Y-160191128D02*
X97897143Y-160143509D01*
X97897143Y-160143509D02*
X97801905Y-160095890D01*
X97801905Y-160095890D02*
X97754286Y-160048271D01*
X97754286Y-160048271D02*
X97706667Y-159953033D01*
X97706667Y-159953033D02*
X97706667Y-159857795D01*
X97706667Y-159857795D02*
X97754286Y-159762557D01*
X97754286Y-159762557D02*
X97801905Y-159714938D01*
X97801905Y-159714938D02*
X97897143Y-159667319D01*
X97897143Y-159667319D02*
X98135238Y-159667319D01*
X98135238Y-159667319D02*
X98278095Y-159714938D01*
X98611429Y-159667319D02*
X98849524Y-160667319D01*
X98849524Y-160667319D02*
X99040000Y-159953033D01*
X99040000Y-159953033D02*
X99230476Y-160667319D01*
X99230476Y-160667319D02*
X99468572Y-159667319D01*
X100325714Y-159667319D02*
X99849524Y-159667319D01*
X99849524Y-159667319D02*
X99801905Y-160143509D01*
X99801905Y-160143509D02*
X99849524Y-160095890D01*
X99849524Y-160095890D02*
X99944762Y-160048271D01*
X99944762Y-160048271D02*
X100182857Y-160048271D01*
X100182857Y-160048271D02*
X100278095Y-160095890D01*
X100278095Y-160095890D02*
X100325714Y-160143509D01*
X100325714Y-160143509D02*
X100373333Y-160238747D01*
X100373333Y-160238747D02*
X100373333Y-160476842D01*
X100373333Y-160476842D02*
X100325714Y-160572080D01*
X100325714Y-160572080D02*
X100278095Y-160619700D01*
X100278095Y-160619700D02*
X100182857Y-160667319D01*
X100182857Y-160667319D02*
X99944762Y-160667319D01*
X99944762Y-160667319D02*
X99849524Y-160619700D01*
X99849524Y-160619700D02*
X99801905Y-160572080D01*
X114354819Y-164639285D02*
X113354819Y-164639285D01*
X113354819Y-164639285D02*
X113354819Y-164401190D01*
X113354819Y-164401190D02*
X113402438Y-164258333D01*
X113402438Y-164258333D02*
X113497676Y-164163095D01*
X113497676Y-164163095D02*
X113592914Y-164115476D01*
X113592914Y-164115476D02*
X113783390Y-164067857D01*
X113783390Y-164067857D02*
X113926247Y-164067857D01*
X113926247Y-164067857D02*
X114116723Y-164115476D01*
X114116723Y-164115476D02*
X114211961Y-164163095D01*
X114211961Y-164163095D02*
X114307200Y-164258333D01*
X114307200Y-164258333D02*
X114354819Y-164401190D01*
X114354819Y-164401190D02*
X114354819Y-164639285D01*
X114354819Y-163115476D02*
X114354819Y-163686904D01*
X114354819Y-163401190D02*
X113354819Y-163401190D01*
X113354819Y-163401190D02*
X113497676Y-163496428D01*
X113497676Y-163496428D02*
X113592914Y-163591666D01*
X113592914Y-163591666D02*
X113640533Y-163686904D01*
X113354819Y-162496428D02*
X113354819Y-162401190D01*
X113354819Y-162401190D02*
X113402438Y-162305952D01*
X113402438Y-162305952D02*
X113450057Y-162258333D01*
X113450057Y-162258333D02*
X113545295Y-162210714D01*
X113545295Y-162210714D02*
X113735771Y-162163095D01*
X113735771Y-162163095D02*
X113973866Y-162163095D01*
X113973866Y-162163095D02*
X114164342Y-162210714D01*
X114164342Y-162210714D02*
X114259580Y-162258333D01*
X114259580Y-162258333D02*
X114307200Y-162305952D01*
X114307200Y-162305952D02*
X114354819Y-162401190D01*
X114354819Y-162401190D02*
X114354819Y-162496428D01*
X114354819Y-162496428D02*
X114307200Y-162591666D01*
X114307200Y-162591666D02*
X114259580Y-162639285D01*
X114259580Y-162639285D02*
X114164342Y-162686904D01*
X114164342Y-162686904D02*
X113973866Y-162734523D01*
X113973866Y-162734523D02*
X113735771Y-162734523D01*
X113735771Y-162734523D02*
X113545295Y-162686904D01*
X113545295Y-162686904D02*
X113450057Y-162639285D01*
X113450057Y-162639285D02*
X113402438Y-162591666D01*
X113402438Y-162591666D02*
X113354819Y-162496428D01*
X217333333Y-130504819D02*
X216857143Y-130504819D01*
X216857143Y-130504819D02*
X216857143Y-129504819D01*
X217619048Y-129600057D02*
X217666667Y-129552438D01*
X217666667Y-129552438D02*
X217761905Y-129504819D01*
X217761905Y-129504819D02*
X218000000Y-129504819D01*
X218000000Y-129504819D02*
X218095238Y-129552438D01*
X218095238Y-129552438D02*
X218142857Y-129600057D01*
X218142857Y-129600057D02*
X218190476Y-129695295D01*
X218190476Y-129695295D02*
X218190476Y-129790533D01*
X218190476Y-129790533D02*
X218142857Y-129933390D01*
X218142857Y-129933390D02*
X217571429Y-130504819D01*
X217571429Y-130504819D02*
X218190476Y-130504819D01*
X108229819Y-164260594D02*
X107229819Y-164260594D01*
X107229819Y-164260594D02*
X107229819Y-164022499D01*
X107229819Y-164022499D02*
X107277438Y-163879642D01*
X107277438Y-163879642D02*
X107372676Y-163784404D01*
X107372676Y-163784404D02*
X107467914Y-163736785D01*
X107467914Y-163736785D02*
X107658390Y-163689166D01*
X107658390Y-163689166D02*
X107801247Y-163689166D01*
X107801247Y-163689166D02*
X107991723Y-163736785D01*
X107991723Y-163736785D02*
X108086961Y-163784404D01*
X108086961Y-163784404D02*
X108182200Y-163879642D01*
X108182200Y-163879642D02*
X108229819Y-164022499D01*
X108229819Y-164022499D02*
X108229819Y-164260594D01*
X107658390Y-163117737D02*
X107610771Y-163212975D01*
X107610771Y-163212975D02*
X107563152Y-163260594D01*
X107563152Y-163260594D02*
X107467914Y-163308213D01*
X107467914Y-163308213D02*
X107420295Y-163308213D01*
X107420295Y-163308213D02*
X107325057Y-163260594D01*
X107325057Y-163260594D02*
X107277438Y-163212975D01*
X107277438Y-163212975D02*
X107229819Y-163117737D01*
X107229819Y-163117737D02*
X107229819Y-162927261D01*
X107229819Y-162927261D02*
X107277438Y-162832023D01*
X107277438Y-162832023D02*
X107325057Y-162784404D01*
X107325057Y-162784404D02*
X107420295Y-162736785D01*
X107420295Y-162736785D02*
X107467914Y-162736785D01*
X107467914Y-162736785D02*
X107563152Y-162784404D01*
X107563152Y-162784404D02*
X107610771Y-162832023D01*
X107610771Y-162832023D02*
X107658390Y-162927261D01*
X107658390Y-162927261D02*
X107658390Y-163117737D01*
X107658390Y-163117737D02*
X107706009Y-163212975D01*
X107706009Y-163212975D02*
X107753628Y-163260594D01*
X107753628Y-163260594D02*
X107848866Y-163308213D01*
X107848866Y-163308213D02*
X108039342Y-163308213D01*
X108039342Y-163308213D02*
X108134580Y-163260594D01*
X108134580Y-163260594D02*
X108182200Y-163212975D01*
X108182200Y-163212975D02*
X108229819Y-163117737D01*
X108229819Y-163117737D02*
X108229819Y-162927261D01*
X108229819Y-162927261D02*
X108182200Y-162832023D01*
X108182200Y-162832023D02*
X108134580Y-162784404D01*
X108134580Y-162784404D02*
X108039342Y-162736785D01*
X108039342Y-162736785D02*
X107848866Y-162736785D01*
X107848866Y-162736785D02*
X107753628Y-162784404D01*
X107753628Y-162784404D02*
X107706009Y-162832023D01*
X107706009Y-162832023D02*
X107658390Y-162927261D01*
X221238095Y-159254819D02*
X221238095Y-158254819D01*
X221238095Y-158731009D02*
X221809523Y-158731009D01*
X221809523Y-159254819D02*
X221809523Y-158254819D01*
X222190476Y-158254819D02*
X222809523Y-158254819D01*
X222809523Y-158254819D02*
X222476190Y-158635771D01*
X222476190Y-158635771D02*
X222619047Y-158635771D01*
X222619047Y-158635771D02*
X222714285Y-158683390D01*
X222714285Y-158683390D02*
X222761904Y-158731009D01*
X222761904Y-158731009D02*
X222809523Y-158826247D01*
X222809523Y-158826247D02*
X222809523Y-159064342D01*
X222809523Y-159064342D02*
X222761904Y-159159580D01*
X222761904Y-159159580D02*
X222714285Y-159207200D01*
X222714285Y-159207200D02*
X222619047Y-159254819D01*
X222619047Y-159254819D02*
X222333333Y-159254819D01*
X222333333Y-159254819D02*
X222238095Y-159207200D01*
X222238095Y-159207200D02*
X222190476Y-159159580D01*
X74704819Y-151642857D02*
X74228628Y-151976190D01*
X74704819Y-152214285D02*
X73704819Y-152214285D01*
X73704819Y-152214285D02*
X73704819Y-151833333D01*
X73704819Y-151833333D02*
X73752438Y-151738095D01*
X73752438Y-151738095D02*
X73800057Y-151690476D01*
X73800057Y-151690476D02*
X73895295Y-151642857D01*
X73895295Y-151642857D02*
X74038152Y-151642857D01*
X74038152Y-151642857D02*
X74133390Y-151690476D01*
X74133390Y-151690476D02*
X74181009Y-151738095D01*
X74181009Y-151738095D02*
X74228628Y-151833333D01*
X74228628Y-151833333D02*
X74228628Y-152214285D01*
X73800057Y-151261904D02*
X73752438Y-151214285D01*
X73752438Y-151214285D02*
X73704819Y-151119047D01*
X73704819Y-151119047D02*
X73704819Y-150880952D01*
X73704819Y-150880952D02*
X73752438Y-150785714D01*
X73752438Y-150785714D02*
X73800057Y-150738095D01*
X73800057Y-150738095D02*
X73895295Y-150690476D01*
X73895295Y-150690476D02*
X73990533Y-150690476D01*
X73990533Y-150690476D02*
X74133390Y-150738095D01*
X74133390Y-150738095D02*
X74704819Y-151309523D01*
X74704819Y-151309523D02*
X74704819Y-150690476D01*
X74704819Y-149738095D02*
X74704819Y-150309523D01*
X74704819Y-150023809D02*
X73704819Y-150023809D01*
X73704819Y-150023809D02*
X73847676Y-150119047D01*
X73847676Y-150119047D02*
X73942914Y-150214285D01*
X73942914Y-150214285D02*
X73990533Y-150309523D01*
X114354819Y-154901785D02*
X113354819Y-154901785D01*
X113354819Y-154901785D02*
X113354819Y-154663690D01*
X113354819Y-154663690D02*
X113402438Y-154520833D01*
X113402438Y-154520833D02*
X113497676Y-154425595D01*
X113497676Y-154425595D02*
X113592914Y-154377976D01*
X113592914Y-154377976D02*
X113783390Y-154330357D01*
X113783390Y-154330357D02*
X113926247Y-154330357D01*
X113926247Y-154330357D02*
X114116723Y-154377976D01*
X114116723Y-154377976D02*
X114211961Y-154425595D01*
X114211961Y-154425595D02*
X114307200Y-154520833D01*
X114307200Y-154520833D02*
X114354819Y-154663690D01*
X114354819Y-154663690D02*
X114354819Y-154901785D01*
X114354819Y-153377976D02*
X114354819Y-153949404D01*
X114354819Y-153663690D02*
X113354819Y-153663690D01*
X113354819Y-153663690D02*
X113497676Y-153758928D01*
X113497676Y-153758928D02*
X113592914Y-153854166D01*
X113592914Y-153854166D02*
X113640533Y-153949404D01*
X113354819Y-153044642D02*
X113354819Y-152425595D01*
X113354819Y-152425595D02*
X113735771Y-152758928D01*
X113735771Y-152758928D02*
X113735771Y-152616071D01*
X113735771Y-152616071D02*
X113783390Y-152520833D01*
X113783390Y-152520833D02*
X113831009Y-152473214D01*
X113831009Y-152473214D02*
X113926247Y-152425595D01*
X113926247Y-152425595D02*
X114164342Y-152425595D01*
X114164342Y-152425595D02*
X114259580Y-152473214D01*
X114259580Y-152473214D02*
X114307200Y-152520833D01*
X114307200Y-152520833D02*
X114354819Y-152616071D01*
X114354819Y-152616071D02*
X114354819Y-152901785D01*
X114354819Y-152901785D02*
X114307200Y-152997023D01*
X114307200Y-152997023D02*
X114259580Y-153044642D01*
X105584819Y-122248094D02*
X106394342Y-122248094D01*
X106394342Y-122248094D02*
X106489580Y-122200475D01*
X106489580Y-122200475D02*
X106537200Y-122152856D01*
X106537200Y-122152856D02*
X106584819Y-122057618D01*
X106584819Y-122057618D02*
X106584819Y-121867142D01*
X106584819Y-121867142D02*
X106537200Y-121771904D01*
X106537200Y-121771904D02*
X106489580Y-121724285D01*
X106489580Y-121724285D02*
X106394342Y-121676666D01*
X106394342Y-121676666D02*
X105584819Y-121676666D01*
X106584819Y-120676666D02*
X106584819Y-121248094D01*
X106584819Y-120962380D02*
X105584819Y-120962380D01*
X105584819Y-120962380D02*
X105727676Y-121057618D01*
X105727676Y-121057618D02*
X105822914Y-121152856D01*
X105822914Y-121152856D02*
X105870533Y-121248094D01*
X106584819Y-119724285D02*
X106584819Y-120295713D01*
X106584819Y-120009999D02*
X105584819Y-120009999D01*
X105584819Y-120009999D02*
X105727676Y-120105237D01*
X105727676Y-120105237D02*
X105822914Y-120200475D01*
X105822914Y-120200475D02*
X105870533Y-120295713D01*
X101166666Y-68654819D02*
X101166666Y-69369104D01*
X101166666Y-69369104D02*
X101119047Y-69511961D01*
X101119047Y-69511961D02*
X101023809Y-69607200D01*
X101023809Y-69607200D02*
X100880952Y-69654819D01*
X100880952Y-69654819D02*
X100785714Y-69654819D01*
X102119047Y-68654819D02*
X101642857Y-68654819D01*
X101642857Y-68654819D02*
X101595238Y-69131009D01*
X101595238Y-69131009D02*
X101642857Y-69083390D01*
X101642857Y-69083390D02*
X101738095Y-69035771D01*
X101738095Y-69035771D02*
X101976190Y-69035771D01*
X101976190Y-69035771D02*
X102071428Y-69083390D01*
X102071428Y-69083390D02*
X102119047Y-69131009D01*
X102119047Y-69131009D02*
X102166666Y-69226247D01*
X102166666Y-69226247D02*
X102166666Y-69464342D01*
X102166666Y-69464342D02*
X102119047Y-69559580D01*
X102119047Y-69559580D02*
X102071428Y-69607200D01*
X102071428Y-69607200D02*
X101976190Y-69654819D01*
X101976190Y-69654819D02*
X101738095Y-69654819D01*
X101738095Y-69654819D02*
X101642857Y-69607200D01*
X101642857Y-69607200D02*
X101595238Y-69559580D01*
X78124819Y-105728094D02*
X78934342Y-105728094D01*
X78934342Y-105728094D02*
X79029580Y-105680475D01*
X79029580Y-105680475D02*
X79077200Y-105632856D01*
X79077200Y-105632856D02*
X79124819Y-105537618D01*
X79124819Y-105537618D02*
X79124819Y-105347142D01*
X79124819Y-105347142D02*
X79077200Y-105251904D01*
X79077200Y-105251904D02*
X79029580Y-105204285D01*
X79029580Y-105204285D02*
X78934342Y-105156666D01*
X78934342Y-105156666D02*
X78124819Y-105156666D01*
X79124819Y-104156666D02*
X79124819Y-104728094D01*
X79124819Y-104442380D02*
X78124819Y-104442380D01*
X78124819Y-104442380D02*
X78267676Y-104537618D01*
X78267676Y-104537618D02*
X78362914Y-104632856D01*
X78362914Y-104632856D02*
X78410533Y-104728094D01*
X78124819Y-103823332D02*
X78124819Y-103156666D01*
X78124819Y-103156666D02*
X79124819Y-103585237D01*
X65624819Y-105548094D02*
X66434342Y-105548094D01*
X66434342Y-105548094D02*
X66529580Y-105500475D01*
X66529580Y-105500475D02*
X66577200Y-105452856D01*
X66577200Y-105452856D02*
X66624819Y-105357618D01*
X66624819Y-105357618D02*
X66624819Y-105167142D01*
X66624819Y-105167142D02*
X66577200Y-105071904D01*
X66577200Y-105071904D02*
X66529580Y-105024285D01*
X66529580Y-105024285D02*
X66434342Y-104976666D01*
X66434342Y-104976666D02*
X65624819Y-104976666D01*
X66624819Y-103976666D02*
X66624819Y-104548094D01*
X66624819Y-104262380D02*
X65624819Y-104262380D01*
X65624819Y-104262380D02*
X65767676Y-104357618D01*
X65767676Y-104357618D02*
X65862914Y-104452856D01*
X65862914Y-104452856D02*
X65910533Y-104548094D01*
X66624819Y-103500475D02*
X66624819Y-103309999D01*
X66624819Y-103309999D02*
X66577200Y-103214761D01*
X66577200Y-103214761D02*
X66529580Y-103167142D01*
X66529580Y-103167142D02*
X66386723Y-103071904D01*
X66386723Y-103071904D02*
X66196247Y-103024285D01*
X66196247Y-103024285D02*
X65815295Y-103024285D01*
X65815295Y-103024285D02*
X65720057Y-103071904D01*
X65720057Y-103071904D02*
X65672438Y-103119523D01*
X65672438Y-103119523D02*
X65624819Y-103214761D01*
X65624819Y-103214761D02*
X65624819Y-103405237D01*
X65624819Y-103405237D02*
X65672438Y-103500475D01*
X65672438Y-103500475D02*
X65720057Y-103548094D01*
X65720057Y-103548094D02*
X65815295Y-103595713D01*
X65815295Y-103595713D02*
X66053390Y-103595713D01*
X66053390Y-103595713D02*
X66148628Y-103548094D01*
X66148628Y-103548094D02*
X66196247Y-103500475D01*
X66196247Y-103500475D02*
X66243866Y-103405237D01*
X66243866Y-103405237D02*
X66243866Y-103214761D01*
X66243866Y-103214761D02*
X66196247Y-103119523D01*
X66196247Y-103119523D02*
X66148628Y-103071904D01*
X66148628Y-103071904D02*
X66053390Y-103024285D01*
X204156667Y-110417200D02*
X204299524Y-110464819D01*
X204299524Y-110464819D02*
X204537619Y-110464819D01*
X204537619Y-110464819D02*
X204632857Y-110417200D01*
X204632857Y-110417200D02*
X204680476Y-110369580D01*
X204680476Y-110369580D02*
X204728095Y-110274342D01*
X204728095Y-110274342D02*
X204728095Y-110179104D01*
X204728095Y-110179104D02*
X204680476Y-110083866D01*
X204680476Y-110083866D02*
X204632857Y-110036247D01*
X204632857Y-110036247D02*
X204537619Y-109988628D01*
X204537619Y-109988628D02*
X204347143Y-109941009D01*
X204347143Y-109941009D02*
X204251905Y-109893390D01*
X204251905Y-109893390D02*
X204204286Y-109845771D01*
X204204286Y-109845771D02*
X204156667Y-109750533D01*
X204156667Y-109750533D02*
X204156667Y-109655295D01*
X204156667Y-109655295D02*
X204204286Y-109560057D01*
X204204286Y-109560057D02*
X204251905Y-109512438D01*
X204251905Y-109512438D02*
X204347143Y-109464819D01*
X204347143Y-109464819D02*
X204585238Y-109464819D01*
X204585238Y-109464819D02*
X204728095Y-109512438D01*
X205061429Y-109464819D02*
X205299524Y-110464819D01*
X205299524Y-110464819D02*
X205490000Y-109750533D01*
X205490000Y-109750533D02*
X205680476Y-110464819D01*
X205680476Y-110464819D02*
X205918572Y-109464819D01*
X206823333Y-110464819D02*
X206251905Y-110464819D01*
X206537619Y-110464819D02*
X206537619Y-109464819D01*
X206537619Y-109464819D02*
X206442381Y-109607676D01*
X206442381Y-109607676D02*
X206347143Y-109702914D01*
X206347143Y-109702914D02*
X206251905Y-109750533D01*
X205383333Y-118359580D02*
X205335714Y-118407200D01*
X205335714Y-118407200D02*
X205192857Y-118454819D01*
X205192857Y-118454819D02*
X205097619Y-118454819D01*
X205097619Y-118454819D02*
X204954762Y-118407200D01*
X204954762Y-118407200D02*
X204859524Y-118311961D01*
X204859524Y-118311961D02*
X204811905Y-118216723D01*
X204811905Y-118216723D02*
X204764286Y-118026247D01*
X204764286Y-118026247D02*
X204764286Y-117883390D01*
X204764286Y-117883390D02*
X204811905Y-117692914D01*
X204811905Y-117692914D02*
X204859524Y-117597676D01*
X204859524Y-117597676D02*
X204954762Y-117502438D01*
X204954762Y-117502438D02*
X205097619Y-117454819D01*
X205097619Y-117454819D02*
X205192857Y-117454819D01*
X205192857Y-117454819D02*
X205335714Y-117502438D01*
X205335714Y-117502438D02*
X205383333Y-117550057D01*
X206240476Y-117788152D02*
X206240476Y-118454819D01*
X206002381Y-117407200D02*
X205764286Y-118121485D01*
X205764286Y-118121485D02*
X206383333Y-118121485D01*
X155940476Y-68654819D02*
X155940476Y-69369104D01*
X155940476Y-69369104D02*
X155892857Y-69511961D01*
X155892857Y-69511961D02*
X155797619Y-69607200D01*
X155797619Y-69607200D02*
X155654762Y-69654819D01*
X155654762Y-69654819D02*
X155559524Y-69654819D01*
X156940476Y-69654819D02*
X156369048Y-69654819D01*
X156654762Y-69654819D02*
X156654762Y-68654819D01*
X156654762Y-68654819D02*
X156559524Y-68797676D01*
X156559524Y-68797676D02*
X156464286Y-68892914D01*
X156464286Y-68892914D02*
X156369048Y-68940533D01*
X157559524Y-68654819D02*
X157654762Y-68654819D01*
X157654762Y-68654819D02*
X157750000Y-68702438D01*
X157750000Y-68702438D02*
X157797619Y-68750057D01*
X157797619Y-68750057D02*
X157845238Y-68845295D01*
X157845238Y-68845295D02*
X157892857Y-69035771D01*
X157892857Y-69035771D02*
X157892857Y-69273866D01*
X157892857Y-69273866D02*
X157845238Y-69464342D01*
X157845238Y-69464342D02*
X157797619Y-69559580D01*
X157797619Y-69559580D02*
X157750000Y-69607200D01*
X157750000Y-69607200D02*
X157654762Y-69654819D01*
X157654762Y-69654819D02*
X157559524Y-69654819D01*
X157559524Y-69654819D02*
X157464286Y-69607200D01*
X157464286Y-69607200D02*
X157416667Y-69559580D01*
X157416667Y-69559580D02*
X157369048Y-69464342D01*
X157369048Y-69464342D02*
X157321429Y-69273866D01*
X157321429Y-69273866D02*
X157321429Y-69035771D01*
X157321429Y-69035771D02*
X157369048Y-68845295D01*
X157369048Y-68845295D02*
X157416667Y-68750057D01*
X157416667Y-68750057D02*
X157464286Y-68702438D01*
X157464286Y-68702438D02*
X157559524Y-68654819D01*
X225604819Y-122760357D02*
X225128628Y-123093690D01*
X225604819Y-123331785D02*
X224604819Y-123331785D01*
X224604819Y-123331785D02*
X224604819Y-122950833D01*
X224604819Y-122950833D02*
X224652438Y-122855595D01*
X224652438Y-122855595D02*
X224700057Y-122807976D01*
X224700057Y-122807976D02*
X224795295Y-122760357D01*
X224795295Y-122760357D02*
X224938152Y-122760357D01*
X224938152Y-122760357D02*
X225033390Y-122807976D01*
X225033390Y-122807976D02*
X225081009Y-122855595D01*
X225081009Y-122855595D02*
X225128628Y-122950833D01*
X225128628Y-122950833D02*
X225128628Y-123331785D01*
X224604819Y-121855595D02*
X224604819Y-122331785D01*
X224604819Y-122331785D02*
X225081009Y-122379404D01*
X225081009Y-122379404D02*
X225033390Y-122331785D01*
X225033390Y-122331785D02*
X224985771Y-122236547D01*
X224985771Y-122236547D02*
X224985771Y-121998452D01*
X224985771Y-121998452D02*
X225033390Y-121903214D01*
X225033390Y-121903214D02*
X225081009Y-121855595D01*
X225081009Y-121855595D02*
X225176247Y-121807976D01*
X225176247Y-121807976D02*
X225414342Y-121807976D01*
X225414342Y-121807976D02*
X225509580Y-121855595D01*
X225509580Y-121855595D02*
X225557200Y-121903214D01*
X225557200Y-121903214D02*
X225604819Y-121998452D01*
X225604819Y-121998452D02*
X225604819Y-122236547D01*
X225604819Y-122236547D02*
X225557200Y-122331785D01*
X225557200Y-122331785D02*
X225509580Y-122379404D01*
X225604819Y-121331785D02*
X225604819Y-121141309D01*
X225604819Y-121141309D02*
X225557200Y-121046071D01*
X225557200Y-121046071D02*
X225509580Y-120998452D01*
X225509580Y-120998452D02*
X225366723Y-120903214D01*
X225366723Y-120903214D02*
X225176247Y-120855595D01*
X225176247Y-120855595D02*
X224795295Y-120855595D01*
X224795295Y-120855595D02*
X224700057Y-120903214D01*
X224700057Y-120903214D02*
X224652438Y-120950833D01*
X224652438Y-120950833D02*
X224604819Y-121046071D01*
X224604819Y-121046071D02*
X224604819Y-121236547D01*
X224604819Y-121236547D02*
X224652438Y-121331785D01*
X224652438Y-121331785D02*
X224700057Y-121379404D01*
X224700057Y-121379404D02*
X224795295Y-121427023D01*
X224795295Y-121427023D02*
X225033390Y-121427023D01*
X225033390Y-121427023D02*
X225128628Y-121379404D01*
X225128628Y-121379404D02*
X225176247Y-121331785D01*
X225176247Y-121331785D02*
X225223866Y-121236547D01*
X225223866Y-121236547D02*
X225223866Y-121046071D01*
X225223866Y-121046071D02*
X225176247Y-120950833D01*
X225176247Y-120950833D02*
X225128628Y-120903214D01*
X225128628Y-120903214D02*
X225033390Y-120855595D01*
X93034819Y-121951904D02*
X93844342Y-121951904D01*
X93844342Y-121951904D02*
X93939580Y-121904285D01*
X93939580Y-121904285D02*
X93987200Y-121856666D01*
X93987200Y-121856666D02*
X94034819Y-121761428D01*
X94034819Y-121761428D02*
X94034819Y-121570952D01*
X94034819Y-121570952D02*
X93987200Y-121475714D01*
X93987200Y-121475714D02*
X93939580Y-121428095D01*
X93939580Y-121428095D02*
X93844342Y-121380476D01*
X93844342Y-121380476D02*
X93034819Y-121380476D01*
X94034819Y-120856666D02*
X94034819Y-120666190D01*
X94034819Y-120666190D02*
X93987200Y-120570952D01*
X93987200Y-120570952D02*
X93939580Y-120523333D01*
X93939580Y-120523333D02*
X93796723Y-120428095D01*
X93796723Y-120428095D02*
X93606247Y-120380476D01*
X93606247Y-120380476D02*
X93225295Y-120380476D01*
X93225295Y-120380476D02*
X93130057Y-120428095D01*
X93130057Y-120428095D02*
X93082438Y-120475714D01*
X93082438Y-120475714D02*
X93034819Y-120570952D01*
X93034819Y-120570952D02*
X93034819Y-120761428D01*
X93034819Y-120761428D02*
X93082438Y-120856666D01*
X93082438Y-120856666D02*
X93130057Y-120904285D01*
X93130057Y-120904285D02*
X93225295Y-120951904D01*
X93225295Y-120951904D02*
X93463390Y-120951904D01*
X93463390Y-120951904D02*
X93558628Y-120904285D01*
X93558628Y-120904285D02*
X93606247Y-120856666D01*
X93606247Y-120856666D02*
X93653866Y-120761428D01*
X93653866Y-120761428D02*
X93653866Y-120570952D01*
X93653866Y-120570952D02*
X93606247Y-120475714D01*
X93606247Y-120475714D02*
X93558628Y-120428095D01*
X93558628Y-120428095D02*
X93463390Y-120380476D01*
X98357142Y-108289580D02*
X98309523Y-108337200D01*
X98309523Y-108337200D02*
X98166666Y-108384819D01*
X98166666Y-108384819D02*
X98071428Y-108384819D01*
X98071428Y-108384819D02*
X97928571Y-108337200D01*
X97928571Y-108337200D02*
X97833333Y-108241961D01*
X97833333Y-108241961D02*
X97785714Y-108146723D01*
X97785714Y-108146723D02*
X97738095Y-107956247D01*
X97738095Y-107956247D02*
X97738095Y-107813390D01*
X97738095Y-107813390D02*
X97785714Y-107622914D01*
X97785714Y-107622914D02*
X97833333Y-107527676D01*
X97833333Y-107527676D02*
X97928571Y-107432438D01*
X97928571Y-107432438D02*
X98071428Y-107384819D01*
X98071428Y-107384819D02*
X98166666Y-107384819D01*
X98166666Y-107384819D02*
X98309523Y-107432438D01*
X98309523Y-107432438D02*
X98357142Y-107480057D01*
X98738095Y-107480057D02*
X98785714Y-107432438D01*
X98785714Y-107432438D02*
X98880952Y-107384819D01*
X98880952Y-107384819D02*
X99119047Y-107384819D01*
X99119047Y-107384819D02*
X99214285Y-107432438D01*
X99214285Y-107432438D02*
X99261904Y-107480057D01*
X99261904Y-107480057D02*
X99309523Y-107575295D01*
X99309523Y-107575295D02*
X99309523Y-107670533D01*
X99309523Y-107670533D02*
X99261904Y-107813390D01*
X99261904Y-107813390D02*
X98690476Y-108384819D01*
X98690476Y-108384819D02*
X99309523Y-108384819D01*
X100166666Y-107718152D02*
X100166666Y-108384819D01*
X99928571Y-107337200D02*
X99690476Y-108051485D01*
X99690476Y-108051485D02*
X100309523Y-108051485D01*
X68084819Y-132771904D02*
X68894342Y-132771904D01*
X68894342Y-132771904D02*
X68989580Y-132724285D01*
X68989580Y-132724285D02*
X69037200Y-132676666D01*
X69037200Y-132676666D02*
X69084819Y-132581428D01*
X69084819Y-132581428D02*
X69084819Y-132390952D01*
X69084819Y-132390952D02*
X69037200Y-132295714D01*
X69037200Y-132295714D02*
X68989580Y-132248095D01*
X68989580Y-132248095D02*
X68894342Y-132200476D01*
X68894342Y-132200476D02*
X68084819Y-132200476D01*
X68084819Y-131819523D02*
X68084819Y-131152857D01*
X68084819Y-131152857D02*
X69084819Y-131581428D01*
X200940476Y-68654819D02*
X200940476Y-69369104D01*
X200940476Y-69369104D02*
X200892857Y-69511961D01*
X200892857Y-69511961D02*
X200797619Y-69607200D01*
X200797619Y-69607200D02*
X200654762Y-69654819D01*
X200654762Y-69654819D02*
X200559524Y-69654819D01*
X201940476Y-69654819D02*
X201369048Y-69654819D01*
X201654762Y-69654819D02*
X201654762Y-68654819D01*
X201654762Y-68654819D02*
X201559524Y-68797676D01*
X201559524Y-68797676D02*
X201464286Y-68892914D01*
X201464286Y-68892914D02*
X201369048Y-68940533D01*
X202797619Y-68988152D02*
X202797619Y-69654819D01*
X202559524Y-68607200D02*
X202321429Y-69321485D01*
X202321429Y-69321485D02*
X202940476Y-69321485D01*
X104774819Y-150355357D02*
X104298628Y-150688690D01*
X104774819Y-150926785D02*
X103774819Y-150926785D01*
X103774819Y-150926785D02*
X103774819Y-150545833D01*
X103774819Y-150545833D02*
X103822438Y-150450595D01*
X103822438Y-150450595D02*
X103870057Y-150402976D01*
X103870057Y-150402976D02*
X103965295Y-150355357D01*
X103965295Y-150355357D02*
X104108152Y-150355357D01*
X104108152Y-150355357D02*
X104203390Y-150402976D01*
X104203390Y-150402976D02*
X104251009Y-150450595D01*
X104251009Y-150450595D02*
X104298628Y-150545833D01*
X104298628Y-150545833D02*
X104298628Y-150926785D01*
X103774819Y-150022023D02*
X103774819Y-149355357D01*
X103774819Y-149355357D02*
X104774819Y-149783928D01*
X104774819Y-148450595D02*
X104774819Y-149022023D01*
X104774819Y-148736309D02*
X103774819Y-148736309D01*
X103774819Y-148736309D02*
X103917676Y-148831547D01*
X103917676Y-148831547D02*
X104012914Y-148926785D01*
X104012914Y-148926785D02*
X104060533Y-149022023D01*
D11*
%TO.C,C22*%
X108765000Y-103048752D02*
X108765000Y-102526248D01*
X110235000Y-103048752D02*
X110235000Y-102526248D01*
%TO.C,J3*%
X84900000Y-70000000D02*
X84900000Y-71250000D01*
X85190000Y-70290000D02*
X85190000Y-76260000D01*
X85190000Y-76260000D02*
X95310000Y-76260000D01*
X85200000Y-70300000D02*
X85200000Y-71050000D01*
X85200000Y-71050000D02*
X87000000Y-71050000D01*
X85200000Y-72550000D02*
X85950000Y-72550000D01*
X85950000Y-72550000D02*
X85950000Y-73890000D01*
X86150000Y-70000000D02*
X84900000Y-70000000D01*
X87000000Y-70300000D02*
X85200000Y-70300000D01*
X87000000Y-71050000D02*
X87000000Y-70300000D01*
X88500000Y-70300000D02*
X88500000Y-71050000D01*
X88500000Y-71050000D02*
X92000000Y-71050000D01*
X90250000Y-75500000D02*
X87010000Y-75500000D01*
X92000000Y-70300000D02*
X88500000Y-70300000D01*
X92000000Y-71050000D02*
X92000000Y-70300000D01*
X93500000Y-70300000D02*
X93500000Y-71050000D01*
X93500000Y-71050000D02*
X95300000Y-71050000D01*
X94550000Y-72550000D02*
X94550000Y-75500000D01*
X94550000Y-75500000D02*
X90250000Y-75500000D01*
X95300000Y-70300000D02*
X93500000Y-70300000D01*
X95300000Y-71050000D02*
X95300000Y-70300000D01*
X95300000Y-72550000D02*
X94550000Y-72550000D01*
X95310000Y-70290000D02*
X85190000Y-70290000D01*
X95310000Y-76260000D02*
X95310000Y-70290000D01*
%TO.C,U18*%
X79620000Y-91590000D02*
X79620000Y-93240000D01*
X79620000Y-95240000D02*
X79620000Y-96890000D01*
X79620000Y-96890000D02*
X89900000Y-96890000D01*
X89900000Y-91590000D02*
X79620000Y-91590000D01*
X89900000Y-96890000D02*
X89900000Y-91590000D01*
X79620000Y-93240000D02*
G75*
G02*
X79620000Y-95240000I0J-1000000D01*
G01*
%TO.C,U13*%
X107350000Y-129360000D02*
X107350000Y-134660000D01*
X107350000Y-134660000D02*
X117630000Y-134660000D01*
X117630000Y-129360000D02*
X107350000Y-129360000D01*
X117630000Y-131010000D02*
X117630000Y-129360000D01*
X117630000Y-134660000D02*
X117630000Y-133010000D01*
X117630000Y-133010000D02*
G75*
G02*
X117630000Y-131010000I0J1000000D01*
G01*
%TO.C,R58*%
X223265000Y-116860436D02*
X223265000Y-117314564D01*
X224735000Y-116860436D02*
X224735000Y-117314564D01*
D10*
%TO.C,U4*%
X203790000Y-125972500D02*
X203790000Y-121822500D01*
X208940000Y-125972500D02*
X208940000Y-121822500D01*
D11*
X203865000Y-126397500D02*
X203535000Y-126637500D01*
X203535000Y-126157500D01*
X203865000Y-126397500D01*
G36*
X203865000Y-126397500D02*
G01*
X203535000Y-126637500D01*
X203535000Y-126157500D01*
X203865000Y-126397500D01*
G37*
%TO.C,R63*%
X222265000Y-129844564D02*
X222265000Y-129390436D01*
X223735000Y-129844564D02*
X223735000Y-129390436D01*
%TO.C,SW4*%
X80490000Y-148240000D02*
X89310000Y-148240000D01*
X80490000Y-148550000D02*
X80490000Y-148240000D01*
X80490000Y-152760000D02*
X80490000Y-152450000D01*
X82400000Y-147540000D02*
X82900000Y-148040000D01*
X82900000Y-148040000D02*
X83400000Y-147540000D01*
X83400000Y-147540000D02*
X82400000Y-147540000D01*
X89310000Y-148240000D02*
X89310000Y-148550000D01*
X89310000Y-152760000D02*
X80490000Y-152760000D01*
X89310000Y-152760000D02*
X89310000Y-152450000D01*
%TO.C,D1*%
X62600000Y-143990000D02*
X62600000Y-151000000D01*
X65900000Y-143990000D02*
X62600000Y-143990000D01*
X65900000Y-143990000D02*
X65900000Y-151000000D01*
%TO.C,D12*%
X118540000Y-151827500D02*
X118540000Y-154687500D01*
X120460000Y-151827500D02*
X118540000Y-151827500D01*
X120460000Y-154687500D02*
X120460000Y-151827500D01*
%TO.C,D7*%
X218292621Y-149960000D02*
X221152621Y-149960000D01*
X221152621Y-148040000D02*
X218292621Y-148040000D01*
X221152621Y-149960000D02*
X221152621Y-148040000D01*
%TO.C,R69*%
X223068869Y-148305000D02*
X223591373Y-148305000D01*
X223068869Y-149775000D02*
X223591373Y-149775000D01*
%TO.C,U14*%
X107350000Y-118360000D02*
X107350000Y-123660000D01*
X107350000Y-123660000D02*
X117630000Y-123660000D01*
X117630000Y-118360000D02*
X107350000Y-118360000D01*
X117630000Y-120010000D02*
X117630000Y-118360000D01*
X117630000Y-123660000D02*
X117630000Y-122010000D01*
X117630000Y-122010000D02*
G75*
G02*
X117630000Y-120010000I0J1000000D01*
G01*
%TO.C,SW2*%
X213590000Y-110740000D02*
X222410000Y-110740000D01*
X213590000Y-111050000D02*
X213590000Y-110740000D01*
X213590000Y-115260000D02*
X213590000Y-114950000D01*
X215500000Y-110040000D02*
X216000000Y-110540000D01*
X216000000Y-110540000D02*
X216500000Y-110040000D01*
X216500000Y-110040000D02*
X215500000Y-110040000D01*
X222410000Y-110740000D02*
X222410000Y-111050000D01*
X222410000Y-115260000D02*
X213590000Y-115260000D01*
X222410000Y-115260000D02*
X222410000Y-114950000D01*
%TO.C,U10*%
X82350000Y-129360000D02*
X82350000Y-134660000D01*
X82350000Y-134660000D02*
X92630000Y-134660000D01*
X92630000Y-129360000D02*
X82350000Y-129360000D01*
X92630000Y-131010000D02*
X92630000Y-129360000D01*
X92630000Y-134660000D02*
X92630000Y-133010000D01*
X92630000Y-133010000D02*
G75*
G02*
X92630000Y-131010000I0J1000000D01*
G01*
%TO.C,SW7*%
X211740000Y-86240000D02*
X211740000Y-86550000D01*
X211740000Y-86240000D02*
X220560000Y-86240000D01*
X211740000Y-90760000D02*
X211740000Y-90450000D01*
X217650000Y-91460000D02*
X218650000Y-91460000D01*
X218150000Y-90960000D02*
X217650000Y-91460000D01*
X218650000Y-91460000D02*
X218150000Y-90960000D01*
X220560000Y-86240000D02*
X220560000Y-86550000D01*
X220560000Y-90450000D02*
X220560000Y-90760000D01*
X220560000Y-90760000D02*
X211740000Y-90760000D01*
%TO.C,C11*%
X218067380Y-141161000D02*
X218697380Y-141161000D01*
X218382380Y-140846000D02*
X218382380Y-141476000D01*
X221567621Y-139770000D02*
X221567621Y-146230000D01*
X221607621Y-139770000D02*
X221607621Y-146230000D01*
X221647621Y-139770000D02*
X221647621Y-146230000D01*
X221687621Y-139772000D02*
X221687621Y-146228000D01*
X221727621Y-139773000D02*
X221727621Y-146227000D01*
X221767621Y-139776000D02*
X221767621Y-146224000D01*
X221807621Y-139778000D02*
X221807621Y-141960000D01*
X221807621Y-144040000D02*
X221807621Y-146222000D01*
X221847621Y-139782000D02*
X221847621Y-141960000D01*
X221847621Y-144040000D02*
X221847621Y-146218000D01*
X221887621Y-139785000D02*
X221887621Y-141960000D01*
X221887621Y-144040000D02*
X221887621Y-146215000D01*
X221927621Y-139789000D02*
X221927621Y-141960000D01*
X221927621Y-144040000D02*
X221927621Y-146211000D01*
X221967621Y-139794000D02*
X221967621Y-141960000D01*
X221967621Y-144040000D02*
X221967621Y-146206000D01*
X222007621Y-139799000D02*
X222007621Y-141960000D01*
X222007621Y-144040000D02*
X222007621Y-146201000D01*
X222047621Y-139805000D02*
X222047621Y-141960000D01*
X222047621Y-144040000D02*
X222047621Y-146195000D01*
X222087621Y-139811000D02*
X222087621Y-141960000D01*
X222087621Y-144040000D02*
X222087621Y-146189000D01*
X222127621Y-139818000D02*
X222127621Y-141960000D01*
X222127621Y-144040000D02*
X222127621Y-146182000D01*
X222167621Y-139825000D02*
X222167621Y-141960000D01*
X222167621Y-144040000D02*
X222167621Y-146175000D01*
X222207621Y-139833000D02*
X222207621Y-141960000D01*
X222207621Y-144040000D02*
X222207621Y-146167000D01*
X222247621Y-139841000D02*
X222247621Y-141960000D01*
X222247621Y-144040000D02*
X222247621Y-146159000D01*
X222288621Y-139850000D02*
X222288621Y-141960000D01*
X222288621Y-144040000D02*
X222288621Y-146150000D01*
X222328621Y-139859000D02*
X222328621Y-141960000D01*
X222328621Y-144040000D02*
X222328621Y-146141000D01*
X222368621Y-139869000D02*
X222368621Y-141960000D01*
X222368621Y-144040000D02*
X222368621Y-146131000D01*
X222408621Y-139879000D02*
X222408621Y-141960000D01*
X222408621Y-144040000D02*
X222408621Y-146121000D01*
X222448621Y-139890000D02*
X222448621Y-141960000D01*
X222448621Y-144040000D02*
X222448621Y-146110000D01*
X222488621Y-139902000D02*
X222488621Y-141960000D01*
X222488621Y-144040000D02*
X222488621Y-146098000D01*
X222528621Y-139914000D02*
X222528621Y-141960000D01*
X222528621Y-144040000D02*
X222528621Y-146086000D01*
X222568621Y-139926000D02*
X222568621Y-141960000D01*
X222568621Y-144040000D02*
X222568621Y-146074000D01*
X222608621Y-139939000D02*
X222608621Y-141960000D01*
X222608621Y-144040000D02*
X222608621Y-146061000D01*
X222648621Y-139953000D02*
X222648621Y-141960000D01*
X222648621Y-144040000D02*
X222648621Y-146047000D01*
X222688621Y-139967000D02*
X222688621Y-141960000D01*
X222688621Y-144040000D02*
X222688621Y-146033000D01*
X222728621Y-139982000D02*
X222728621Y-141960000D01*
X222728621Y-144040000D02*
X222728621Y-146018000D01*
X222768621Y-139998000D02*
X222768621Y-141960000D01*
X222768621Y-144040000D02*
X222768621Y-146002000D01*
X222808621Y-140014000D02*
X222808621Y-141960000D01*
X222808621Y-144040000D02*
X222808621Y-145986000D01*
X222848621Y-140030000D02*
X222848621Y-141960000D01*
X222848621Y-144040000D02*
X222848621Y-145970000D01*
X222888621Y-140048000D02*
X222888621Y-141960000D01*
X222888621Y-144040000D02*
X222888621Y-145952000D01*
X222928621Y-140066000D02*
X222928621Y-141960000D01*
X222928621Y-144040000D02*
X222928621Y-145934000D01*
X222968621Y-140084000D02*
X222968621Y-141960000D01*
X222968621Y-144040000D02*
X222968621Y-145916000D01*
X223008621Y-140104000D02*
X223008621Y-141960000D01*
X223008621Y-144040000D02*
X223008621Y-145896000D01*
X223048621Y-140124000D02*
X223048621Y-141960000D01*
X223048621Y-144040000D02*
X223048621Y-145876000D01*
X223088621Y-140144000D02*
X223088621Y-141960000D01*
X223088621Y-144040000D02*
X223088621Y-145856000D01*
X223128621Y-140166000D02*
X223128621Y-141960000D01*
X223128621Y-144040000D02*
X223128621Y-145834000D01*
X223168621Y-140188000D02*
X223168621Y-141960000D01*
X223168621Y-144040000D02*
X223168621Y-145812000D01*
X223208621Y-140210000D02*
X223208621Y-141960000D01*
X223208621Y-144040000D02*
X223208621Y-145790000D01*
X223248621Y-140234000D02*
X223248621Y-141960000D01*
X223248621Y-144040000D02*
X223248621Y-145766000D01*
X223288621Y-140258000D02*
X223288621Y-141960000D01*
X223288621Y-144040000D02*
X223288621Y-145742000D01*
X223328621Y-140284000D02*
X223328621Y-141960000D01*
X223328621Y-144040000D02*
X223328621Y-145716000D01*
X223368621Y-140310000D02*
X223368621Y-141960000D01*
X223368621Y-144040000D02*
X223368621Y-145690000D01*
X223408621Y-140336000D02*
X223408621Y-141960000D01*
X223408621Y-144040000D02*
X223408621Y-145664000D01*
X223448621Y-140364000D02*
X223448621Y-141960000D01*
X223448621Y-144040000D02*
X223448621Y-145636000D01*
X223488621Y-140393000D02*
X223488621Y-141960000D01*
X223488621Y-144040000D02*
X223488621Y-145607000D01*
X223528621Y-140422000D02*
X223528621Y-141960000D01*
X223528621Y-144040000D02*
X223528621Y-145578000D01*
X223568621Y-140452000D02*
X223568621Y-141960000D01*
X223568621Y-144040000D02*
X223568621Y-145548000D01*
X223608621Y-140484000D02*
X223608621Y-141960000D01*
X223608621Y-144040000D02*
X223608621Y-145516000D01*
X223648621Y-140516000D02*
X223648621Y-141960000D01*
X223648621Y-144040000D02*
X223648621Y-145484000D01*
X223688621Y-140550000D02*
X223688621Y-141960000D01*
X223688621Y-144040000D02*
X223688621Y-145450000D01*
X223728621Y-140584000D02*
X223728621Y-141960000D01*
X223728621Y-144040000D02*
X223728621Y-145416000D01*
X223768621Y-140620000D02*
X223768621Y-141960000D01*
X223768621Y-144040000D02*
X223768621Y-145380000D01*
X223808621Y-140657000D02*
X223808621Y-141960000D01*
X223808621Y-144040000D02*
X223808621Y-145343000D01*
X223848621Y-140695000D02*
X223848621Y-141960000D01*
X223848621Y-144040000D02*
X223848621Y-145305000D01*
X223888621Y-140735000D02*
X223888621Y-145265000D01*
X223928621Y-140776000D02*
X223928621Y-145224000D01*
X223968621Y-140818000D02*
X223968621Y-145182000D01*
X224008621Y-140863000D02*
X224008621Y-145137000D01*
X224048621Y-140908000D02*
X224048621Y-145092000D01*
X224088621Y-140956000D02*
X224088621Y-145044000D01*
X224128621Y-141005000D02*
X224128621Y-144995000D01*
X224168621Y-141056000D02*
X224168621Y-144944000D01*
X224208621Y-141110000D02*
X224208621Y-144890000D01*
X224248621Y-141166000D02*
X224248621Y-144834000D01*
X224288621Y-141224000D02*
X224288621Y-144776000D01*
X224328621Y-141286000D02*
X224328621Y-144714000D01*
X224368621Y-141350000D02*
X224368621Y-144650000D01*
X224408621Y-141419000D02*
X224408621Y-144581000D01*
X224448621Y-141491000D02*
X224448621Y-144509000D01*
X224488621Y-141568000D02*
X224488621Y-144432000D01*
X224528621Y-141650000D02*
X224528621Y-144350000D01*
X224568621Y-141738000D02*
X224568621Y-144262000D01*
X224608621Y-141835000D02*
X224608621Y-144165000D01*
X224648621Y-141941000D02*
X224648621Y-144059000D01*
X224688621Y-142060000D02*
X224688621Y-143940000D01*
X224728621Y-142198000D02*
X224728621Y-143802000D01*
X224768621Y-142367000D02*
X224768621Y-143633000D01*
X224808621Y-142598000D02*
X224808621Y-143402000D01*
X224837621Y-143000000D02*
G75*
G02*
X218297621Y-143000000I-3270000J0D01*
G01*
X218297621Y-143000000D02*
G75*
G02*
X224837621Y-143000000I3270000J0D01*
G01*
%TO.C,U3*%
X105140000Y-109387500D02*
X105140000Y-107187500D01*
X105140000Y-109387500D02*
X105140000Y-111587500D01*
X110610000Y-109387500D02*
X110610000Y-107187500D01*
X110610000Y-109387500D02*
X110610000Y-111587500D01*
X105840000Y-113577500D02*
X105360000Y-113577500D01*
X105600000Y-113247500D01*
X105840000Y-113577500D01*
G36*
X105840000Y-113577500D02*
G01*
X105360000Y-113577500D01*
X105600000Y-113247500D01*
X105840000Y-113577500D01*
G37*
%TO.C,C3*%
X210899000Y-118784000D02*
X210899000Y-118216000D01*
X210939000Y-119018000D02*
X210939000Y-117982000D01*
X210979000Y-119177000D02*
X210979000Y-117823000D01*
X211019000Y-119305000D02*
X211019000Y-117695000D01*
X211059000Y-119415000D02*
X211059000Y-117585000D01*
X211099000Y-119511000D02*
X211099000Y-117489000D01*
X211139000Y-119598000D02*
X211139000Y-117402000D01*
X211179000Y-119678000D02*
X211179000Y-117322000D01*
X211219000Y-119751000D02*
X211219000Y-117249000D01*
X211259000Y-119819000D02*
X211259000Y-117181000D01*
X211299000Y-119883000D02*
X211299000Y-117117000D01*
X211339000Y-119943000D02*
X211339000Y-117057000D01*
X211379000Y-120000000D02*
X211379000Y-117000000D01*
X211419000Y-120054000D02*
X211419000Y-116946000D01*
X211459000Y-120105000D02*
X211459000Y-116895000D01*
X211499000Y-117460000D02*
X211499000Y-116847000D01*
X211499000Y-120153000D02*
X211499000Y-119540000D01*
X211539000Y-117460000D02*
X211539000Y-116801000D01*
X211539000Y-120199000D02*
X211539000Y-119540000D01*
X211579000Y-117460000D02*
X211579000Y-116757000D01*
X211579000Y-120243000D02*
X211579000Y-119540000D01*
X211619000Y-117460000D02*
X211619000Y-116715000D01*
X211619000Y-120285000D02*
X211619000Y-119540000D01*
X211659000Y-117460000D02*
X211659000Y-116674000D01*
X211659000Y-120326000D02*
X211659000Y-119540000D01*
X211699000Y-117460000D02*
X211699000Y-116636000D01*
X211699000Y-120364000D02*
X211699000Y-119540000D01*
X211739000Y-117460000D02*
X211739000Y-116599000D01*
X211739000Y-120401000D02*
X211739000Y-119540000D01*
X211779000Y-117460000D02*
X211779000Y-116563000D01*
X211779000Y-120437000D02*
X211779000Y-119540000D01*
X211819000Y-117460000D02*
X211819000Y-116529000D01*
X211819000Y-120471000D02*
X211819000Y-119540000D01*
X211859000Y-117460000D02*
X211859000Y-116496000D01*
X211859000Y-120504000D02*
X211859000Y-119540000D01*
X211899000Y-117460000D02*
X211899000Y-116465000D01*
X211899000Y-120535000D02*
X211899000Y-119540000D01*
X211939000Y-117460000D02*
X211939000Y-116435000D01*
X211939000Y-120565000D02*
X211939000Y-119540000D01*
X211979000Y-117460000D02*
X211979000Y-116405000D01*
X211979000Y-120595000D02*
X211979000Y-119540000D01*
X212019000Y-117460000D02*
X212019000Y-116378000D01*
X212019000Y-120622000D02*
X212019000Y-119540000D01*
X212059000Y-117460000D02*
X212059000Y-116351000D01*
X212059000Y-120649000D02*
X212059000Y-119540000D01*
X212099000Y-117460000D02*
X212099000Y-116325000D01*
X212099000Y-120675000D02*
X212099000Y-119540000D01*
X212139000Y-117460000D02*
X212139000Y-116300000D01*
X212139000Y-120700000D02*
X212139000Y-119540000D01*
X212179000Y-117460000D02*
X212179000Y-116276000D01*
X212179000Y-120724000D02*
X212179000Y-119540000D01*
X212219000Y-117460000D02*
X212219000Y-116253000D01*
X212219000Y-120747000D02*
X212219000Y-119540000D01*
X212259000Y-117460000D02*
X212259000Y-116232000D01*
X212259000Y-120768000D02*
X212259000Y-119540000D01*
X212299000Y-117460000D02*
X212299000Y-116210000D01*
X212299000Y-120790000D02*
X212299000Y-119540000D01*
X212339000Y-117460000D02*
X212339000Y-116190000D01*
X212339000Y-120810000D02*
X212339000Y-119540000D01*
X212379000Y-117460000D02*
X212379000Y-116171000D01*
X212379000Y-120829000D02*
X212379000Y-119540000D01*
X212419000Y-117460000D02*
X212419000Y-116152000D01*
X212419000Y-120848000D02*
X212419000Y-119540000D01*
X212459000Y-117460000D02*
X212459000Y-116135000D01*
X212459000Y-120865000D02*
X212459000Y-119540000D01*
X212499000Y-117460000D02*
X212499000Y-116118000D01*
X212499000Y-120882000D02*
X212499000Y-119540000D01*
X212539000Y-117460000D02*
X212539000Y-116102000D01*
X212539000Y-120898000D02*
X212539000Y-119540000D01*
X212579000Y-117460000D02*
X212579000Y-116086000D01*
X212579000Y-120914000D02*
X212579000Y-119540000D01*
X212619000Y-117460000D02*
X212619000Y-116072000D01*
X212619000Y-120928000D02*
X212619000Y-119540000D01*
X212659000Y-117460000D02*
X212659000Y-116058000D01*
X212659000Y-120942000D02*
X212659000Y-119540000D01*
X212699000Y-117460000D02*
X212699000Y-116045000D01*
X212699000Y-120955000D02*
X212699000Y-119540000D01*
X212739000Y-117460000D02*
X212739000Y-116032000D01*
X212739000Y-120968000D02*
X212739000Y-119540000D01*
X212779000Y-117460000D02*
X212779000Y-116020000D01*
X212779000Y-120980000D02*
X212779000Y-119540000D01*
X212820000Y-117460000D02*
X212820000Y-116009000D01*
X212820000Y-120991000D02*
X212820000Y-119540000D01*
X212860000Y-117460000D02*
X212860000Y-115999000D01*
X212860000Y-121001000D02*
X212860000Y-119540000D01*
X212900000Y-117460000D02*
X212900000Y-115989000D01*
X212900000Y-121011000D02*
X212900000Y-119540000D01*
X212940000Y-117460000D02*
X212940000Y-115980000D01*
X212940000Y-121020000D02*
X212940000Y-119540000D01*
X212980000Y-117460000D02*
X212980000Y-115972000D01*
X212980000Y-121028000D02*
X212980000Y-119540000D01*
X213020000Y-117460000D02*
X213020000Y-115964000D01*
X213020000Y-121036000D02*
X213020000Y-119540000D01*
X213060000Y-117460000D02*
X213060000Y-115957000D01*
X213060000Y-121043000D02*
X213060000Y-119540000D01*
X213100000Y-117460000D02*
X213100000Y-115950000D01*
X213100000Y-121050000D02*
X213100000Y-119540000D01*
X213140000Y-117460000D02*
X213140000Y-115944000D01*
X213140000Y-121056000D02*
X213140000Y-119540000D01*
X213180000Y-117460000D02*
X213180000Y-115939000D01*
X213180000Y-121061000D02*
X213180000Y-119540000D01*
X213220000Y-117460000D02*
X213220000Y-115935000D01*
X213220000Y-121065000D02*
X213220000Y-119540000D01*
X213260000Y-117460000D02*
X213260000Y-115931000D01*
X213260000Y-121069000D02*
X213260000Y-119540000D01*
X213300000Y-117460000D02*
X213300000Y-115927000D01*
X213300000Y-121073000D02*
X213300000Y-119540000D01*
X213340000Y-117460000D02*
X213340000Y-115924000D01*
X213340000Y-121076000D02*
X213340000Y-119540000D01*
X213380000Y-117460000D02*
X213380000Y-115922000D01*
X213380000Y-121078000D02*
X213380000Y-119540000D01*
X213420000Y-117460000D02*
X213420000Y-115921000D01*
X213420000Y-121079000D02*
X213420000Y-119540000D01*
X213460000Y-117460000D02*
X213460000Y-115920000D01*
X213460000Y-121080000D02*
X213460000Y-119540000D01*
X213500000Y-117460000D02*
X213500000Y-115920000D01*
X213500000Y-121080000D02*
X213500000Y-119540000D01*
X216054775Y-120225000D02*
X216054775Y-119725000D01*
X216304775Y-119975000D02*
X215804775Y-119975000D01*
X216120000Y-118500000D02*
G75*
G02*
X210880000Y-118500000I-2620000J0D01*
G01*
X210880000Y-118500000D02*
G75*
G02*
X216120000Y-118500000I2620000J0D01*
G01*
%TO.C,C23*%
X62765000Y-123738748D02*
X62765000Y-124261252D01*
X64235000Y-123738748D02*
X64235000Y-124261252D01*
D10*
%TO.C,U5*%
X216560000Y-125972500D02*
X216560000Y-121822500D01*
X221710000Y-125972500D02*
X221710000Y-121822500D01*
D11*
X216635000Y-126397500D02*
X216305000Y-126637500D01*
X216305000Y-126157500D01*
X216635000Y-126397500D01*
G36*
X216635000Y-126397500D02*
G01*
X216305000Y-126637500D01*
X216305000Y-126157500D01*
X216635000Y-126397500D01*
G37*
%TO.C,R68*%
X211068869Y-148265000D02*
X211591373Y-148265000D01*
X211068869Y-149735000D02*
X211591373Y-149735000D01*
%TO.C,R6*%
X111515000Y-150011252D02*
X111515000Y-149488748D01*
X112985000Y-150011252D02*
X112985000Y-149488748D01*
%TO.C,D4*%
X201667621Y-150010000D02*
X201667621Y-143000000D01*
X201667621Y-150010000D02*
X204967621Y-150010000D01*
X204967621Y-150010000D02*
X204967621Y-143000000D01*
%TO.C,J2*%
X73650000Y-70000000D02*
X73650000Y-71250000D01*
X73940000Y-70290000D02*
X73940000Y-76260000D01*
X73940000Y-76260000D02*
X84060000Y-76260000D01*
X73950000Y-70300000D02*
X73950000Y-71050000D01*
X73950000Y-71050000D02*
X75750000Y-71050000D01*
X73950000Y-72550000D02*
X74700000Y-72550000D01*
X74700000Y-72550000D02*
X74700000Y-73890000D01*
X74900000Y-70000000D02*
X73650000Y-70000000D01*
X75750000Y-70300000D02*
X73950000Y-70300000D01*
X75750000Y-71050000D02*
X75750000Y-70300000D01*
X77250000Y-70300000D02*
X77250000Y-71050000D01*
X77250000Y-71050000D02*
X80750000Y-71050000D01*
X79000000Y-75500000D02*
X75760000Y-75500000D01*
X80750000Y-70300000D02*
X77250000Y-70300000D01*
X80750000Y-71050000D02*
X80750000Y-70300000D01*
X82250000Y-70300000D02*
X82250000Y-71050000D01*
X82250000Y-71050000D02*
X84050000Y-71050000D01*
X83300000Y-72550000D02*
X83300000Y-75500000D01*
X83300000Y-75500000D02*
X79000000Y-75500000D01*
X84050000Y-70300000D02*
X82250000Y-70300000D01*
X84050000Y-71050000D02*
X84050000Y-70300000D01*
X84050000Y-72550000D02*
X83300000Y-72550000D01*
X84060000Y-70290000D02*
X73940000Y-70290000D01*
X84060000Y-76260000D02*
X84060000Y-70290000D01*
%TO.C,SW3*%
X92740000Y-148240000D02*
X101560000Y-148240000D01*
X92740000Y-148550000D02*
X92740000Y-148240000D01*
X92740000Y-152760000D02*
X92740000Y-152450000D01*
X94650000Y-147540000D02*
X95150000Y-148040000D01*
X95150000Y-148040000D02*
X95650000Y-147540000D01*
X95650000Y-147540000D02*
X94650000Y-147540000D01*
X101560000Y-148240000D02*
X101560000Y-148550000D01*
X101560000Y-152760000D02*
X92740000Y-152760000D01*
X101560000Y-152760000D02*
X101560000Y-152450000D01*
%TO.C,U8*%
X69800000Y-129290000D02*
X69800000Y-134590000D01*
X69800000Y-134590000D02*
X80080000Y-134590000D01*
X80080000Y-129290000D02*
X69800000Y-129290000D01*
X80080000Y-130940000D02*
X80080000Y-129290000D01*
X80080000Y-134590000D02*
X80080000Y-132940000D01*
X80080000Y-132940000D02*
G75*
G02*
X80080000Y-130940000I0J1000000D01*
G01*
D12*
%TO.C,U1*%
X122000000Y-164700000D02*
X122000000Y-87200000D01*
X123500000Y-85700000D02*
X144000000Y-85700000D01*
X124020000Y-87470000D02*
X124020000Y-135730000D01*
X124020000Y-135730000D02*
X129020000Y-135730000D01*
X129020000Y-87470000D02*
X124020000Y-87470000D01*
X129020000Y-135730000D02*
X129020000Y-87470000D01*
X131620000Y-87220000D02*
X131620000Y-108040000D01*
X131620000Y-108040000D02*
X134120000Y-108040000D01*
X131620000Y-109060000D02*
X131620000Y-134960000D01*
X131620000Y-134960000D02*
X134120000Y-134960000D01*
X134120000Y-87220000D02*
X131620000Y-87220000D01*
X134120000Y-108040000D02*
X134120000Y-87220000D01*
X134120000Y-109060000D02*
X131620000Y-109060000D01*
X134120000Y-134960000D02*
X134120000Y-109060000D01*
X144000000Y-85700000D02*
X146000000Y-83700000D01*
X146000000Y-83700000D02*
X179000000Y-83700000D01*
X179000000Y-83700000D02*
X181000000Y-85700000D01*
X179880000Y-87220000D02*
X179880000Y-102960000D01*
X179880000Y-102960000D02*
X182380000Y-102960000D01*
X179880000Y-105000000D02*
X179880000Y-125820000D01*
X179880000Y-125820000D02*
X182380000Y-125820000D01*
X181000000Y-85700000D02*
X190500000Y-85700000D01*
X182380000Y-87220000D02*
X179880000Y-87220000D01*
X182380000Y-102960000D02*
X182380000Y-87220000D01*
X182380000Y-105000000D02*
X179880000Y-105000000D01*
X182380000Y-125820000D02*
X182380000Y-105000000D01*
X184980000Y-87470000D02*
X184980000Y-135730000D01*
X184980000Y-135730000D02*
X189980000Y-135730000D01*
X189980000Y-87470000D02*
X184980000Y-87470000D01*
X189980000Y-135730000D02*
X189980000Y-87470000D01*
X190500000Y-166200000D02*
X123500000Y-166200000D01*
X192000000Y-87200000D02*
X192000000Y-164700000D01*
X122000000Y-87200000D02*
G75*
G02*
X123500000Y-85700000I1500000J0D01*
G01*
X123500000Y-166200000D02*
G75*
G02*
X122000000Y-164700000I0J1500000D01*
G01*
X190500000Y-85700000D02*
G75*
G02*
X192000000Y-87200000I-1J-1500001D01*
G01*
X192000000Y-164700000D02*
G75*
G02*
X190500000Y-166200000I-1500001J1D01*
G01*
D13*
X129640000Y-134460000D02*
G75*
G02*
X129440000Y-134460000I-100000J0D01*
G01*
X129440000Y-134460000D02*
G75*
G02*
X129640000Y-134460000I100000J0D01*
G01*
X131220000Y-88740000D02*
G75*
G02*
X131020000Y-88740000I-100000J0D01*
G01*
X131020000Y-88740000D02*
G75*
G02*
X131220000Y-88740000I100000J0D01*
G01*
X131220000Y-110580000D02*
G75*
G02*
X131020000Y-110580000I-100000J0D01*
G01*
X131020000Y-110580000D02*
G75*
G02*
X131220000Y-110580000I100000J0D01*
G01*
X182980000Y-101440000D02*
G75*
G02*
X182780000Y-101440000I-100000J0D01*
G01*
X182780000Y-101440000D02*
G75*
G02*
X182980000Y-101440000I100000J0D01*
G01*
X182980000Y-124300000D02*
G75*
G02*
X182780000Y-124300000I-100000J0D01*
G01*
X182780000Y-124300000D02*
G75*
G02*
X182980000Y-124300000I100000J0D01*
G01*
X190600000Y-134460000D02*
G75*
G02*
X190400000Y-134460000I-100000J0D01*
G01*
X190400000Y-134460000D02*
G75*
G02*
X190600000Y-134460000I100000J0D01*
G01*
D11*
%TO.C,U15*%
X104120000Y-91590000D02*
X104120000Y-93240000D01*
X104120000Y-95240000D02*
X104120000Y-96890000D01*
X104120000Y-96890000D02*
X114400000Y-96890000D01*
X114400000Y-91590000D02*
X104120000Y-91590000D01*
X114400000Y-96890000D02*
X114400000Y-91590000D01*
X104120000Y-93240000D02*
G75*
G02*
X104120000Y-95240000I0J-1000000D01*
G01*
%TO.C,R56*%
X208765000Y-117185436D02*
X208765000Y-117639564D01*
X210235000Y-117185436D02*
X210235000Y-117639564D01*
%TO.C,R62*%
X223685436Y-125882500D02*
X224139564Y-125882500D01*
X223685436Y-127352500D02*
X224139564Y-127352500D01*
%TO.C,C10*%
X206067380Y-141161000D02*
X206697380Y-141161000D01*
X206382380Y-140846000D02*
X206382380Y-141476000D01*
X209567621Y-139770000D02*
X209567621Y-146230000D01*
X209607621Y-139770000D02*
X209607621Y-146230000D01*
X209647621Y-139770000D02*
X209647621Y-146230000D01*
X209687621Y-139772000D02*
X209687621Y-146228000D01*
X209727621Y-139773000D02*
X209727621Y-146227000D01*
X209767621Y-139776000D02*
X209767621Y-146224000D01*
X209807621Y-139778000D02*
X209807621Y-141960000D01*
X209807621Y-144040000D02*
X209807621Y-146222000D01*
X209847621Y-139782000D02*
X209847621Y-141960000D01*
X209847621Y-144040000D02*
X209847621Y-146218000D01*
X209887621Y-139785000D02*
X209887621Y-141960000D01*
X209887621Y-144040000D02*
X209887621Y-146215000D01*
X209927621Y-139789000D02*
X209927621Y-141960000D01*
X209927621Y-144040000D02*
X209927621Y-146211000D01*
X209967621Y-139794000D02*
X209967621Y-141960000D01*
X209967621Y-144040000D02*
X209967621Y-146206000D01*
X210007621Y-139799000D02*
X210007621Y-141960000D01*
X210007621Y-144040000D02*
X210007621Y-146201000D01*
X210047621Y-139805000D02*
X210047621Y-141960000D01*
X210047621Y-144040000D02*
X210047621Y-146195000D01*
X210087621Y-139811000D02*
X210087621Y-141960000D01*
X210087621Y-144040000D02*
X210087621Y-146189000D01*
X210127621Y-139818000D02*
X210127621Y-141960000D01*
X210127621Y-144040000D02*
X210127621Y-146182000D01*
X210167621Y-139825000D02*
X210167621Y-141960000D01*
X210167621Y-144040000D02*
X210167621Y-146175000D01*
X210207621Y-139833000D02*
X210207621Y-141960000D01*
X210207621Y-144040000D02*
X210207621Y-146167000D01*
X210247621Y-139841000D02*
X210247621Y-141960000D01*
X210247621Y-144040000D02*
X210247621Y-146159000D01*
X210288621Y-139850000D02*
X210288621Y-141960000D01*
X210288621Y-144040000D02*
X210288621Y-146150000D01*
X210328621Y-139859000D02*
X210328621Y-141960000D01*
X210328621Y-144040000D02*
X210328621Y-146141000D01*
X210368621Y-139869000D02*
X210368621Y-141960000D01*
X210368621Y-144040000D02*
X210368621Y-146131000D01*
X210408621Y-139879000D02*
X210408621Y-141960000D01*
X210408621Y-144040000D02*
X210408621Y-146121000D01*
X210448621Y-139890000D02*
X210448621Y-141960000D01*
X210448621Y-144040000D02*
X210448621Y-146110000D01*
X210488621Y-139902000D02*
X210488621Y-141960000D01*
X210488621Y-144040000D02*
X210488621Y-146098000D01*
X210528621Y-139914000D02*
X210528621Y-141960000D01*
X210528621Y-144040000D02*
X210528621Y-146086000D01*
X210568621Y-139926000D02*
X210568621Y-141960000D01*
X210568621Y-144040000D02*
X210568621Y-146074000D01*
X210608621Y-139939000D02*
X210608621Y-141960000D01*
X210608621Y-144040000D02*
X210608621Y-146061000D01*
X210648621Y-139953000D02*
X210648621Y-141960000D01*
X210648621Y-144040000D02*
X210648621Y-146047000D01*
X210688621Y-139967000D02*
X210688621Y-141960000D01*
X210688621Y-144040000D02*
X210688621Y-146033000D01*
X210728621Y-139982000D02*
X210728621Y-141960000D01*
X210728621Y-144040000D02*
X210728621Y-146018000D01*
X210768621Y-139998000D02*
X210768621Y-141960000D01*
X210768621Y-144040000D02*
X210768621Y-146002000D01*
X210808621Y-140014000D02*
X210808621Y-141960000D01*
X210808621Y-144040000D02*
X210808621Y-145986000D01*
X210848621Y-140030000D02*
X210848621Y-141960000D01*
X210848621Y-144040000D02*
X210848621Y-145970000D01*
X210888621Y-140048000D02*
X210888621Y-141960000D01*
X210888621Y-144040000D02*
X210888621Y-145952000D01*
X210928621Y-140066000D02*
X210928621Y-141960000D01*
X210928621Y-144040000D02*
X210928621Y-145934000D01*
X210968621Y-140084000D02*
X210968621Y-141960000D01*
X210968621Y-144040000D02*
X210968621Y-145916000D01*
X211008621Y-140104000D02*
X211008621Y-141960000D01*
X211008621Y-144040000D02*
X211008621Y-145896000D01*
X211048621Y-140124000D02*
X211048621Y-141960000D01*
X211048621Y-144040000D02*
X211048621Y-145876000D01*
X211088621Y-140144000D02*
X211088621Y-141960000D01*
X211088621Y-144040000D02*
X211088621Y-145856000D01*
X211128621Y-140166000D02*
X211128621Y-141960000D01*
X211128621Y-144040000D02*
X211128621Y-145834000D01*
X211168621Y-140188000D02*
X211168621Y-141960000D01*
X211168621Y-144040000D02*
X211168621Y-145812000D01*
X211208621Y-140210000D02*
X211208621Y-141960000D01*
X211208621Y-144040000D02*
X211208621Y-145790000D01*
X211248621Y-140234000D02*
X211248621Y-141960000D01*
X211248621Y-144040000D02*
X211248621Y-145766000D01*
X211288621Y-140258000D02*
X211288621Y-141960000D01*
X211288621Y-144040000D02*
X211288621Y-145742000D01*
X211328621Y-140284000D02*
X211328621Y-141960000D01*
X211328621Y-144040000D02*
X211328621Y-145716000D01*
X211368621Y-140310000D02*
X211368621Y-141960000D01*
X211368621Y-144040000D02*
X211368621Y-145690000D01*
X211408621Y-140336000D02*
X211408621Y-141960000D01*
X211408621Y-144040000D02*
X211408621Y-145664000D01*
X211448621Y-140364000D02*
X211448621Y-141960000D01*
X211448621Y-144040000D02*
X211448621Y-145636000D01*
X211488621Y-140393000D02*
X211488621Y-141960000D01*
X211488621Y-144040000D02*
X211488621Y-145607000D01*
X211528621Y-140422000D02*
X211528621Y-141960000D01*
X211528621Y-144040000D02*
X211528621Y-145578000D01*
X211568621Y-140452000D02*
X211568621Y-141960000D01*
X211568621Y-144040000D02*
X211568621Y-145548000D01*
X211608621Y-140484000D02*
X211608621Y-141960000D01*
X211608621Y-144040000D02*
X211608621Y-145516000D01*
X211648621Y-140516000D02*
X211648621Y-141960000D01*
X211648621Y-144040000D02*
X211648621Y-145484000D01*
X211688621Y-140550000D02*
X211688621Y-141960000D01*
X211688621Y-144040000D02*
X211688621Y-145450000D01*
X211728621Y-140584000D02*
X211728621Y-141960000D01*
X211728621Y-144040000D02*
X211728621Y-145416000D01*
X211768621Y-140620000D02*
X211768621Y-141960000D01*
X211768621Y-144040000D02*
X211768621Y-145380000D01*
X211808621Y-140657000D02*
X211808621Y-141960000D01*
X211808621Y-144040000D02*
X211808621Y-145343000D01*
X211848621Y-140695000D02*
X211848621Y-141960000D01*
X211848621Y-144040000D02*
X211848621Y-145305000D01*
X211888621Y-140735000D02*
X211888621Y-145265000D01*
X211928621Y-140776000D02*
X211928621Y-145224000D01*
X211968621Y-140818000D02*
X211968621Y-145182000D01*
X212008621Y-140863000D02*
X212008621Y-145137000D01*
X212048621Y-140908000D02*
X212048621Y-145092000D01*
X212088621Y-140956000D02*
X212088621Y-145044000D01*
X212128621Y-141005000D02*
X212128621Y-144995000D01*
X212168621Y-141056000D02*
X212168621Y-144944000D01*
X212208621Y-141110000D02*
X212208621Y-144890000D01*
X212248621Y-141166000D02*
X212248621Y-144834000D01*
X212288621Y-141224000D02*
X212288621Y-144776000D01*
X212328621Y-141286000D02*
X212328621Y-144714000D01*
X212368621Y-141350000D02*
X212368621Y-144650000D01*
X212408621Y-141419000D02*
X212408621Y-144581000D01*
X212448621Y-141491000D02*
X212448621Y-144509000D01*
X212488621Y-141568000D02*
X212488621Y-144432000D01*
X212528621Y-141650000D02*
X212528621Y-144350000D01*
X212568621Y-141738000D02*
X212568621Y-144262000D01*
X212608621Y-141835000D02*
X212608621Y-144165000D01*
X212648621Y-141941000D02*
X212648621Y-144059000D01*
X212688621Y-142060000D02*
X212688621Y-143940000D01*
X212728621Y-142198000D02*
X212728621Y-143802000D01*
X212768621Y-142367000D02*
X212768621Y-143633000D01*
X212808621Y-142598000D02*
X212808621Y-143402000D01*
X212837621Y-143000000D02*
G75*
G02*
X206297621Y-143000000I-3270000J0D01*
G01*
X206297621Y-143000000D02*
G75*
G02*
X212837621Y-143000000I3270000J0D01*
G01*
%TO.C,U20*%
X67170000Y-91290000D02*
X67170000Y-92940000D01*
X67170000Y-94940000D02*
X67170000Y-96590000D01*
X67170000Y-96590000D02*
X77450000Y-96590000D01*
X77450000Y-91290000D02*
X67170000Y-91290000D01*
X77450000Y-96590000D02*
X77450000Y-91290000D01*
X67170000Y-92940000D02*
G75*
G02*
X67170000Y-94940000I0J-1000000D01*
G01*
%TO.C,D5*%
X213667621Y-150010000D02*
X213667621Y-143000000D01*
X213667621Y-150010000D02*
X216967621Y-150010000D01*
X216967621Y-150010000D02*
X216967621Y-143000000D01*
%TO.C,R57*%
X209765000Y-123977936D02*
X209765000Y-124432064D01*
X211235000Y-123977936D02*
X211235000Y-124432064D01*
%TO.C,D9*%
X105040000Y-151852500D02*
X105040000Y-154712500D01*
X106960000Y-151852500D02*
X105040000Y-151852500D01*
X106960000Y-154712500D02*
X106960000Y-151852500D01*
%TO.C,U21*%
X54800000Y-91290000D02*
X54800000Y-92940000D01*
X54800000Y-94940000D02*
X54800000Y-96590000D01*
X54800000Y-96590000D02*
X65080000Y-96590000D01*
X65080000Y-91290000D02*
X54800000Y-91290000D01*
X65080000Y-96590000D02*
X65080000Y-91290000D01*
X54800000Y-92940000D02*
G75*
G02*
X54800000Y-94940000I0J-1000000D01*
G01*
%TO.C,R74*%
X111515000Y-159686252D02*
X111515000Y-159163748D01*
X112985000Y-159686252D02*
X112985000Y-159163748D01*
%TO.C,J9*%
X208550000Y-102400000D02*
X208550000Y-105550000D01*
X208550000Y-105550000D02*
X211400000Y-108150000D01*
X211400000Y-99850000D02*
X208550000Y-102400000D01*
X211400000Y-108150000D02*
X224250000Y-108150000D01*
X224250000Y-99850000D02*
X211400000Y-99850000D01*
X224250000Y-108150000D02*
X224250000Y-99850000D01*
%TO.C,C27*%
X104765000Y-103011252D02*
X104765000Y-102488748D01*
X106235000Y-103011252D02*
X106235000Y-102488748D01*
%TO.C,J1*%
X62400000Y-70000000D02*
X62400000Y-71250000D01*
X62690000Y-70290000D02*
X62690000Y-76260000D01*
X62690000Y-76260000D02*
X72810000Y-76260000D01*
X62700000Y-70300000D02*
X62700000Y-71050000D01*
X62700000Y-71050000D02*
X64500000Y-71050000D01*
X62700000Y-72550000D02*
X63450000Y-72550000D01*
X63450000Y-72550000D02*
X63450000Y-73890000D01*
X63650000Y-70000000D02*
X62400000Y-70000000D01*
X64500000Y-70300000D02*
X62700000Y-70300000D01*
X64500000Y-71050000D02*
X64500000Y-70300000D01*
X66000000Y-70300000D02*
X66000000Y-71050000D01*
X66000000Y-71050000D02*
X69500000Y-71050000D01*
X67750000Y-75500000D02*
X64510000Y-75500000D01*
X69500000Y-70300000D02*
X66000000Y-70300000D01*
X69500000Y-71050000D02*
X69500000Y-70300000D01*
X71000000Y-70300000D02*
X71000000Y-71050000D01*
X71000000Y-71050000D02*
X72800000Y-71050000D01*
X72050000Y-72550000D02*
X72050000Y-75500000D01*
X72050000Y-75500000D02*
X67750000Y-75500000D01*
X72800000Y-70300000D02*
X71000000Y-70300000D01*
X72800000Y-71050000D02*
X72800000Y-70300000D01*
X72800000Y-72550000D02*
X72050000Y-72550000D01*
X72810000Y-70290000D02*
X62690000Y-70290000D01*
X72810000Y-76260000D02*
X72810000Y-70290000D01*
%TO.C,J12*%
X173900000Y-70000000D02*
X173900000Y-71250000D01*
X174190000Y-70290000D02*
X174190000Y-76260000D01*
X174190000Y-76260000D02*
X184310000Y-76260000D01*
X174200000Y-70300000D02*
X174200000Y-71050000D01*
X174200000Y-71050000D02*
X176000000Y-71050000D01*
X174200000Y-72550000D02*
X174950000Y-72550000D01*
X174950000Y-72550000D02*
X174950000Y-73890000D01*
X175150000Y-70000000D02*
X173900000Y-70000000D01*
X176000000Y-70300000D02*
X174200000Y-70300000D01*
X176000000Y-71050000D02*
X176000000Y-70300000D01*
X177500000Y-70300000D02*
X177500000Y-71050000D01*
X177500000Y-71050000D02*
X181000000Y-71050000D01*
X179250000Y-75500000D02*
X176010000Y-75500000D01*
X181000000Y-70300000D02*
X177500000Y-70300000D01*
X181000000Y-71050000D02*
X181000000Y-70300000D01*
X182500000Y-70300000D02*
X182500000Y-71050000D01*
X182500000Y-71050000D02*
X184300000Y-71050000D01*
X183550000Y-72550000D02*
X183550000Y-75500000D01*
X183550000Y-75500000D02*
X179250000Y-75500000D01*
X184300000Y-70300000D02*
X182500000Y-70300000D01*
X184300000Y-71050000D02*
X184300000Y-70300000D01*
X184300000Y-72550000D02*
X183550000Y-72550000D01*
X184310000Y-70290000D02*
X174190000Y-70290000D01*
X184310000Y-76260000D02*
X184310000Y-70290000D01*
%TO.C,D11*%
X118540000Y-161602500D02*
X118540000Y-164462500D01*
X120460000Y-161602500D02*
X118540000Y-161602500D01*
X120460000Y-164462500D02*
X120460000Y-161602500D01*
%TO.C,R70*%
X105265000Y-159723752D02*
X105265000Y-159201248D01*
X106735000Y-159723752D02*
X106735000Y-159201248D01*
%TO.C,J7*%
X128900000Y-70000000D02*
X128900000Y-71250000D01*
X129190000Y-70290000D02*
X129190000Y-76260000D01*
X129190000Y-76260000D02*
X139310000Y-76260000D01*
X129200000Y-70300000D02*
X129200000Y-71050000D01*
X129200000Y-71050000D02*
X131000000Y-71050000D01*
X129200000Y-72550000D02*
X129950000Y-72550000D01*
X129950000Y-72550000D02*
X129950000Y-73890000D01*
X130150000Y-70000000D02*
X128900000Y-70000000D01*
X131000000Y-70300000D02*
X129200000Y-70300000D01*
X131000000Y-71050000D02*
X131000000Y-70300000D01*
X132500000Y-70300000D02*
X132500000Y-71050000D01*
X132500000Y-71050000D02*
X136000000Y-71050000D01*
X134250000Y-75500000D02*
X131010000Y-75500000D01*
X136000000Y-70300000D02*
X132500000Y-70300000D01*
X136000000Y-71050000D02*
X136000000Y-70300000D01*
X137500000Y-70300000D02*
X137500000Y-71050000D01*
X137500000Y-71050000D02*
X139300000Y-71050000D01*
X138550000Y-72550000D02*
X138550000Y-75500000D01*
X138550000Y-75500000D02*
X134250000Y-75500000D01*
X139300000Y-70300000D02*
X137500000Y-70300000D01*
X139300000Y-71050000D02*
X139300000Y-70300000D01*
X139300000Y-72550000D02*
X138550000Y-72550000D01*
X139310000Y-70290000D02*
X129190000Y-70290000D01*
X139310000Y-76260000D02*
X139310000Y-70290000D01*
D10*
%TO.C,U2*%
X68275000Y-141825000D02*
X68275000Y-145975000D01*
X68275000Y-141825000D02*
X69385000Y-141825000D01*
X68275000Y-145975000D02*
X69385000Y-145975000D01*
X76115000Y-141825000D02*
X77225000Y-141825000D01*
X77225000Y-141825000D02*
X77225000Y-145975000D01*
X77225000Y-145975000D02*
X76115000Y-145975000D01*
D11*
X76445000Y-141502500D02*
X76115000Y-141262500D01*
X76445000Y-141022500D01*
X76445000Y-141502500D01*
G36*
X76445000Y-141502500D02*
G01*
X76115000Y-141262500D01*
X76445000Y-141022500D01*
X76445000Y-141502500D01*
G37*
%TO.C,L1*%
X201500000Y-130800000D02*
X208900000Y-130800000D01*
X201500000Y-133100000D02*
X201500000Y-130800000D01*
X201500000Y-138200000D02*
X201500000Y-135900000D01*
X208900000Y-130800000D02*
X208900000Y-133100000D01*
X208900000Y-135900000D02*
X208900000Y-138200000D01*
X208900000Y-138200000D02*
X201500000Y-138200000D01*
%TO.C,C5*%
X218738748Y-115765000D02*
X219261252Y-115765000D01*
X218738748Y-117235000D02*
X219261252Y-117235000D01*
%TO.C,J13*%
X185150000Y-70000000D02*
X185150000Y-71250000D01*
X185440000Y-70290000D02*
X185440000Y-76260000D01*
X185440000Y-76260000D02*
X195560000Y-76260000D01*
X185450000Y-70300000D02*
X185450000Y-71050000D01*
X185450000Y-71050000D02*
X187250000Y-71050000D01*
X185450000Y-72550000D02*
X186200000Y-72550000D01*
X186200000Y-72550000D02*
X186200000Y-73890000D01*
X186400000Y-70000000D02*
X185150000Y-70000000D01*
X187250000Y-70300000D02*
X185450000Y-70300000D01*
X187250000Y-71050000D02*
X187250000Y-70300000D01*
X188750000Y-70300000D02*
X188750000Y-71050000D01*
X188750000Y-71050000D02*
X192250000Y-71050000D01*
X190500000Y-75500000D02*
X187260000Y-75500000D01*
X192250000Y-70300000D02*
X188750000Y-70300000D01*
X192250000Y-71050000D02*
X192250000Y-70300000D01*
X193750000Y-70300000D02*
X193750000Y-71050000D01*
X193750000Y-71050000D02*
X195550000Y-71050000D01*
X194800000Y-72550000D02*
X194800000Y-75500000D01*
X194800000Y-75500000D02*
X190500000Y-75500000D01*
X195550000Y-70300000D02*
X193750000Y-70300000D01*
X195550000Y-71050000D02*
X195550000Y-70300000D01*
X195550000Y-72550000D02*
X194800000Y-72550000D01*
X195560000Y-70290000D02*
X185440000Y-70290000D01*
X195560000Y-76260000D02*
X195560000Y-70290000D01*
%TO.C,U22*%
X54800000Y-101790000D02*
X54800000Y-103440000D01*
X54800000Y-105440000D02*
X54800000Y-107090000D01*
X54800000Y-107090000D02*
X65080000Y-107090000D01*
X65080000Y-101790000D02*
X54800000Y-101790000D01*
X65080000Y-107090000D02*
X65080000Y-101790000D01*
X54800000Y-103440000D02*
G75*
G02*
X54800000Y-105440000I0J-1000000D01*
G01*
%TO.C,C9*%
X214761252Y-126265000D02*
X214238748Y-126265000D01*
X214761252Y-127735000D02*
X214238748Y-127735000D01*
%TO.C,R20*%
X102701248Y-105515000D02*
X103223752Y-105515000D01*
X102701248Y-106985000D02*
X103223752Y-106985000D01*
%TO.C,D2*%
X197350000Y-137510000D02*
X197350000Y-130500000D01*
X197350000Y-137510000D02*
X200650000Y-137510000D01*
X200650000Y-137510000D02*
X200650000Y-130500000D01*
%TO.C,R22*%
X70227500Y-151254724D02*
X70227500Y-150745276D01*
X71272500Y-151254724D02*
X71272500Y-150745276D01*
%TO.C,U16*%
X91870000Y-91590000D02*
X91870000Y-93240000D01*
X91870000Y-95240000D02*
X91870000Y-96890000D01*
X91870000Y-96890000D02*
X102150000Y-96890000D01*
X102150000Y-91590000D02*
X91870000Y-91590000D01*
X102150000Y-96890000D02*
X102150000Y-91590000D01*
X91870000Y-93240000D02*
G75*
G02*
X91870000Y-95240000I0J-1000000D01*
G01*
%TO.C,R5*%
X118765000Y-150011252D02*
X118765000Y-149488748D01*
X120235000Y-150011252D02*
X120235000Y-149488748D01*
%TO.C,C26*%
X66765000Y-123738748D02*
X66765000Y-124261252D01*
X68235000Y-123738748D02*
X68235000Y-124261252D01*
%TO.C,R23*%
X70298752Y-119765000D02*
X69776248Y-119765000D01*
X70298752Y-121235000D02*
X69776248Y-121235000D01*
%TO.C,J8*%
X140150000Y-70000000D02*
X140150000Y-71250000D01*
X140440000Y-70290000D02*
X140440000Y-76260000D01*
X140440000Y-76260000D02*
X150560000Y-76260000D01*
X140450000Y-70300000D02*
X140450000Y-71050000D01*
X140450000Y-71050000D02*
X142250000Y-71050000D01*
X140450000Y-72550000D02*
X141200000Y-72550000D01*
X141200000Y-72550000D02*
X141200000Y-73890000D01*
X141400000Y-70000000D02*
X140150000Y-70000000D01*
X142250000Y-70300000D02*
X140450000Y-70300000D01*
X142250000Y-71050000D02*
X142250000Y-70300000D01*
X143750000Y-70300000D02*
X143750000Y-71050000D01*
X143750000Y-71050000D02*
X147250000Y-71050000D01*
X145500000Y-75500000D02*
X142260000Y-75500000D01*
X147250000Y-70300000D02*
X143750000Y-70300000D01*
X147250000Y-71050000D02*
X147250000Y-70300000D01*
X148750000Y-70300000D02*
X148750000Y-71050000D01*
X148750000Y-71050000D02*
X150550000Y-71050000D01*
X149800000Y-72550000D02*
X149800000Y-75500000D01*
X149800000Y-75500000D02*
X145500000Y-75500000D01*
X150550000Y-70300000D02*
X148750000Y-70300000D01*
X150550000Y-71050000D02*
X150550000Y-70300000D01*
X150550000Y-72550000D02*
X149800000Y-72550000D01*
X150560000Y-70290000D02*
X140440000Y-70290000D01*
X150560000Y-76260000D02*
X150560000Y-70290000D01*
%TO.C,SW6*%
X80490000Y-160990000D02*
X89310000Y-160990000D01*
X80490000Y-161300000D02*
X80490000Y-160990000D01*
X80490000Y-165510000D02*
X80490000Y-165200000D01*
X82400000Y-160290000D02*
X82900000Y-160790000D01*
X82900000Y-160790000D02*
X83400000Y-160290000D01*
X83400000Y-160290000D02*
X82400000Y-160290000D01*
X89310000Y-160990000D02*
X89310000Y-161300000D01*
X89310000Y-165510000D02*
X80490000Y-165510000D01*
X89310000Y-165510000D02*
X89310000Y-165200000D01*
%TO.C,U12*%
X94850000Y-129360000D02*
X94850000Y-134660000D01*
X94850000Y-134660000D02*
X105130000Y-134660000D01*
X105130000Y-129360000D02*
X94850000Y-129360000D01*
X105130000Y-131010000D02*
X105130000Y-129360000D01*
X105130000Y-134660000D02*
X105130000Y-133010000D01*
X105130000Y-133010000D02*
G75*
G02*
X105130000Y-131010000I0J1000000D01*
G01*
%TO.C,R75*%
X118725000Y-159761252D02*
X118725000Y-159238748D01*
X120195000Y-159761252D02*
X120195000Y-159238748D01*
%TO.C,J4*%
X67010000Y-161825000D02*
X67010000Y-160125000D01*
X76350000Y-161825000D02*
X76350000Y-160125000D01*
%TO.C,C25*%
X73738748Y-119765000D02*
X74261252Y-119765000D01*
X73738748Y-121235000D02*
X74261252Y-121235000D01*
%TO.C,D3*%
X209850000Y-137010000D02*
X209850000Y-130000000D01*
X209850000Y-137010000D02*
X213150000Y-137010000D01*
X213150000Y-137010000D02*
X213150000Y-130000000D01*
%TO.C,C2*%
X197899000Y-119284000D02*
X197899000Y-118716000D01*
X197939000Y-119518000D02*
X197939000Y-118482000D01*
X197979000Y-119677000D02*
X197979000Y-118323000D01*
X198019000Y-119805000D02*
X198019000Y-118195000D01*
X198059000Y-119915000D02*
X198059000Y-118085000D01*
X198099000Y-120011000D02*
X198099000Y-117989000D01*
X198139000Y-120098000D02*
X198139000Y-117902000D01*
X198179000Y-120178000D02*
X198179000Y-117822000D01*
X198219000Y-120251000D02*
X198219000Y-117749000D01*
X198259000Y-120319000D02*
X198259000Y-117681000D01*
X198299000Y-120383000D02*
X198299000Y-117617000D01*
X198339000Y-120443000D02*
X198339000Y-117557000D01*
X198379000Y-120500000D02*
X198379000Y-117500000D01*
X198419000Y-120554000D02*
X198419000Y-117446000D01*
X198459000Y-120605000D02*
X198459000Y-117395000D01*
X198499000Y-117960000D02*
X198499000Y-117347000D01*
X198499000Y-120653000D02*
X198499000Y-120040000D01*
X198539000Y-117960000D02*
X198539000Y-117301000D01*
X198539000Y-120699000D02*
X198539000Y-120040000D01*
X198579000Y-117960000D02*
X198579000Y-117257000D01*
X198579000Y-120743000D02*
X198579000Y-120040000D01*
X198619000Y-117960000D02*
X198619000Y-117215000D01*
X198619000Y-120785000D02*
X198619000Y-120040000D01*
X198659000Y-117960000D02*
X198659000Y-117174000D01*
X198659000Y-120826000D02*
X198659000Y-120040000D01*
X198699000Y-117960000D02*
X198699000Y-117136000D01*
X198699000Y-120864000D02*
X198699000Y-120040000D01*
X198739000Y-117960000D02*
X198739000Y-117099000D01*
X198739000Y-120901000D02*
X198739000Y-120040000D01*
X198779000Y-117960000D02*
X198779000Y-117063000D01*
X198779000Y-120937000D02*
X198779000Y-120040000D01*
X198819000Y-117960000D02*
X198819000Y-117029000D01*
X198819000Y-120971000D02*
X198819000Y-120040000D01*
X198859000Y-117960000D02*
X198859000Y-116996000D01*
X198859000Y-121004000D02*
X198859000Y-120040000D01*
X198899000Y-117960000D02*
X198899000Y-116965000D01*
X198899000Y-121035000D02*
X198899000Y-120040000D01*
X198939000Y-117960000D02*
X198939000Y-116935000D01*
X198939000Y-121065000D02*
X198939000Y-120040000D01*
X198979000Y-117960000D02*
X198979000Y-116905000D01*
X198979000Y-121095000D02*
X198979000Y-120040000D01*
X199019000Y-117960000D02*
X199019000Y-116878000D01*
X199019000Y-121122000D02*
X199019000Y-120040000D01*
X199059000Y-117960000D02*
X199059000Y-116851000D01*
X199059000Y-121149000D02*
X199059000Y-120040000D01*
X199099000Y-117960000D02*
X199099000Y-116825000D01*
X199099000Y-121175000D02*
X199099000Y-120040000D01*
X199139000Y-117960000D02*
X199139000Y-116800000D01*
X199139000Y-121200000D02*
X199139000Y-120040000D01*
X199179000Y-117960000D02*
X199179000Y-116776000D01*
X199179000Y-121224000D02*
X199179000Y-120040000D01*
X199219000Y-117960000D02*
X199219000Y-116753000D01*
X199219000Y-121247000D02*
X199219000Y-120040000D01*
X199259000Y-117960000D02*
X199259000Y-116732000D01*
X199259000Y-121268000D02*
X199259000Y-120040000D01*
X199299000Y-117960000D02*
X199299000Y-116710000D01*
X199299000Y-121290000D02*
X199299000Y-120040000D01*
X199339000Y-117960000D02*
X199339000Y-116690000D01*
X199339000Y-121310000D02*
X199339000Y-120040000D01*
X199379000Y-117960000D02*
X199379000Y-116671000D01*
X199379000Y-121329000D02*
X199379000Y-120040000D01*
X199419000Y-117960000D02*
X199419000Y-116652000D01*
X199419000Y-121348000D02*
X199419000Y-120040000D01*
X199459000Y-117960000D02*
X199459000Y-116635000D01*
X199459000Y-121365000D02*
X199459000Y-120040000D01*
X199499000Y-117960000D02*
X199499000Y-116618000D01*
X199499000Y-121382000D02*
X199499000Y-120040000D01*
X199539000Y-117960000D02*
X199539000Y-116602000D01*
X199539000Y-121398000D02*
X199539000Y-120040000D01*
X199579000Y-117960000D02*
X199579000Y-116586000D01*
X199579000Y-121414000D02*
X199579000Y-120040000D01*
X199619000Y-117960000D02*
X199619000Y-116572000D01*
X199619000Y-121428000D02*
X199619000Y-120040000D01*
X199659000Y-117960000D02*
X199659000Y-116558000D01*
X199659000Y-121442000D02*
X199659000Y-120040000D01*
X199699000Y-117960000D02*
X199699000Y-116545000D01*
X199699000Y-121455000D02*
X199699000Y-120040000D01*
X199739000Y-117960000D02*
X199739000Y-116532000D01*
X199739000Y-121468000D02*
X199739000Y-120040000D01*
X199779000Y-117960000D02*
X199779000Y-116520000D01*
X199779000Y-121480000D02*
X199779000Y-120040000D01*
X199820000Y-117960000D02*
X199820000Y-116509000D01*
X199820000Y-121491000D02*
X199820000Y-120040000D01*
X199860000Y-117960000D02*
X199860000Y-116499000D01*
X199860000Y-121501000D02*
X199860000Y-120040000D01*
X199900000Y-117960000D02*
X199900000Y-116489000D01*
X199900000Y-121511000D02*
X199900000Y-120040000D01*
X199940000Y-117960000D02*
X199940000Y-116480000D01*
X199940000Y-121520000D02*
X199940000Y-120040000D01*
X199980000Y-117960000D02*
X199980000Y-116472000D01*
X199980000Y-121528000D02*
X199980000Y-120040000D01*
X200020000Y-117960000D02*
X200020000Y-116464000D01*
X200020000Y-121536000D02*
X200020000Y-120040000D01*
X200060000Y-117960000D02*
X200060000Y-116457000D01*
X200060000Y-121543000D02*
X200060000Y-120040000D01*
X200100000Y-117960000D02*
X200100000Y-116450000D01*
X200100000Y-121550000D02*
X200100000Y-120040000D01*
X200140000Y-117960000D02*
X200140000Y-116444000D01*
X200140000Y-121556000D02*
X200140000Y-120040000D01*
X200180000Y-117960000D02*
X200180000Y-116439000D01*
X200180000Y-121561000D02*
X200180000Y-120040000D01*
X200220000Y-117960000D02*
X200220000Y-116435000D01*
X200220000Y-121565000D02*
X200220000Y-120040000D01*
X200260000Y-117960000D02*
X200260000Y-116431000D01*
X200260000Y-121569000D02*
X200260000Y-120040000D01*
X200300000Y-117960000D02*
X200300000Y-116427000D01*
X200300000Y-121573000D02*
X200300000Y-120040000D01*
X200340000Y-117960000D02*
X200340000Y-116424000D01*
X200340000Y-121576000D02*
X200340000Y-120040000D01*
X200380000Y-117960000D02*
X200380000Y-116422000D01*
X200380000Y-121578000D02*
X200380000Y-120040000D01*
X200420000Y-117960000D02*
X200420000Y-116421000D01*
X200420000Y-121579000D02*
X200420000Y-120040000D01*
X200460000Y-117960000D02*
X200460000Y-116420000D01*
X200460000Y-121580000D02*
X200460000Y-120040000D01*
X200500000Y-117960000D02*
X200500000Y-116420000D01*
X200500000Y-121580000D02*
X200500000Y-120040000D01*
X203054775Y-120725000D02*
X203054775Y-120225000D01*
X203304775Y-120475000D02*
X202804775Y-120475000D01*
X203120000Y-119000000D02*
G75*
G02*
X197880000Y-119000000I-2620000J0D01*
G01*
X197880000Y-119000000D02*
G75*
G02*
X203120000Y-119000000I2620000J0D01*
G01*
%TO.C,J6*%
X107400000Y-70000000D02*
X107400000Y-71250000D01*
X107690000Y-70290000D02*
X107690000Y-76260000D01*
X107690000Y-76260000D02*
X117810000Y-76260000D01*
X107700000Y-70300000D02*
X107700000Y-71050000D01*
X107700000Y-71050000D02*
X109500000Y-71050000D01*
X107700000Y-72550000D02*
X108450000Y-72550000D01*
X108450000Y-72550000D02*
X108450000Y-73890000D01*
X108650000Y-70000000D02*
X107400000Y-70000000D01*
X109500000Y-70300000D02*
X107700000Y-70300000D01*
X109500000Y-71050000D02*
X109500000Y-70300000D01*
X111000000Y-70300000D02*
X111000000Y-71050000D01*
X111000000Y-71050000D02*
X114500000Y-71050000D01*
X112750000Y-75500000D02*
X109510000Y-75500000D01*
X114500000Y-70300000D02*
X111000000Y-70300000D01*
X114500000Y-71050000D02*
X114500000Y-70300000D01*
X116000000Y-70300000D02*
X116000000Y-71050000D01*
X116000000Y-71050000D02*
X117800000Y-71050000D01*
X117050000Y-72550000D02*
X117050000Y-75500000D01*
X117050000Y-75500000D02*
X112750000Y-75500000D01*
X117800000Y-70300000D02*
X116000000Y-70300000D01*
X117800000Y-71050000D02*
X117800000Y-70300000D01*
X117800000Y-72550000D02*
X117050000Y-72550000D01*
X117810000Y-70290000D02*
X107690000Y-70290000D01*
X117810000Y-76260000D02*
X117810000Y-70290000D01*
%TO.C,U6*%
X62515000Y-117750000D02*
X62515000Y-115550000D01*
X62515000Y-117750000D02*
X62515000Y-119950000D01*
X67985000Y-117750000D02*
X67985000Y-115550000D01*
X67985000Y-117750000D02*
X67985000Y-119950000D01*
X67525000Y-113890000D02*
X67285000Y-113560000D01*
X67765000Y-113560000D01*
X67525000Y-113890000D01*
G36*
X67525000Y-113890000D02*
G01*
X67285000Y-113560000D01*
X67765000Y-113560000D01*
X67525000Y-113890000D01*
G37*
%TO.C,C8*%
X202061252Y-126265000D02*
X201538748Y-126265000D01*
X202061252Y-127735000D02*
X201538748Y-127735000D01*
%TO.C,D6*%
X206292621Y-149960000D02*
X209152621Y-149960000D01*
X209152621Y-148040000D02*
X206292621Y-148040000D01*
X209152621Y-149960000D02*
X209152621Y-148040000D01*
%TO.C,J11*%
X162650000Y-70000000D02*
X162650000Y-71250000D01*
X162940000Y-70290000D02*
X162940000Y-76260000D01*
X162940000Y-76260000D02*
X173060000Y-76260000D01*
X162950000Y-70300000D02*
X162950000Y-71050000D01*
X162950000Y-71050000D02*
X164750000Y-71050000D01*
X162950000Y-72550000D02*
X163700000Y-72550000D01*
X163700000Y-72550000D02*
X163700000Y-73890000D01*
X163900000Y-70000000D02*
X162650000Y-70000000D01*
X164750000Y-70300000D02*
X162950000Y-70300000D01*
X164750000Y-71050000D02*
X164750000Y-70300000D01*
X166250000Y-70300000D02*
X166250000Y-71050000D01*
X166250000Y-71050000D02*
X169750000Y-71050000D01*
X168000000Y-75500000D02*
X164760000Y-75500000D01*
X169750000Y-70300000D02*
X166250000Y-70300000D01*
X169750000Y-71050000D02*
X169750000Y-70300000D01*
X171250000Y-70300000D02*
X171250000Y-71050000D01*
X171250000Y-71050000D02*
X173050000Y-71050000D01*
X172300000Y-72550000D02*
X172300000Y-75500000D01*
X172300000Y-75500000D02*
X168000000Y-75500000D01*
X173050000Y-70300000D02*
X171250000Y-70300000D01*
X173050000Y-71050000D02*
X173050000Y-70300000D01*
X173050000Y-72550000D02*
X172300000Y-72550000D01*
X173060000Y-70290000D02*
X162940000Y-70290000D01*
X173060000Y-76260000D02*
X173060000Y-70290000D01*
%TO.C,SW5*%
X92640000Y-160942500D02*
X101460000Y-160942500D01*
X92640000Y-161252500D02*
X92640000Y-160942500D01*
X92640000Y-165462500D02*
X92640000Y-165152500D01*
X94550000Y-160242500D02*
X95050000Y-160742500D01*
X95050000Y-160742500D02*
X95550000Y-160242500D01*
X95550000Y-160242500D02*
X94550000Y-160242500D01*
X101460000Y-160942500D02*
X101460000Y-161252500D01*
X101460000Y-165462500D02*
X92640000Y-165462500D01*
X101460000Y-165462500D02*
X101460000Y-165152500D01*
%TO.C,D10*%
X111290000Y-161565000D02*
X111290000Y-164425000D01*
X113210000Y-161565000D02*
X111290000Y-161565000D01*
X113210000Y-164425000D02*
X113210000Y-161565000D01*
%TO.C,L2*%
X213800000Y-130800000D02*
X221200000Y-130800000D01*
X213800000Y-133100000D02*
X213800000Y-130800000D01*
X213800000Y-138200000D02*
X213800000Y-135900000D01*
X221200000Y-130800000D02*
X221200000Y-133100000D01*
X221200000Y-135900000D02*
X221200000Y-138200000D01*
X221200000Y-138200000D02*
X213800000Y-138200000D01*
%TO.C,D8*%
X105040000Y-161602500D02*
X105040000Y-164462500D01*
X106960000Y-161602500D02*
X105040000Y-161602500D01*
X106960000Y-164462500D02*
X106960000Y-161602500D01*
%TO.C,R21*%
X72227500Y-151254724D02*
X72227500Y-150745276D01*
X73272500Y-151254724D02*
X73272500Y-150745276D01*
%TO.C,D13*%
X111290000Y-151827500D02*
X111290000Y-154687500D01*
X113210000Y-151827500D02*
X111290000Y-151827500D01*
X113210000Y-154687500D02*
X113210000Y-151827500D01*
%TO.C,U11*%
X94850000Y-118360000D02*
X94850000Y-123660000D01*
X94850000Y-123660000D02*
X105130000Y-123660000D01*
X105130000Y-118360000D02*
X94850000Y-118360000D01*
X105130000Y-120010000D02*
X105130000Y-118360000D01*
X105130000Y-123660000D02*
X105130000Y-122010000D01*
X105130000Y-122010000D02*
G75*
G02*
X105130000Y-120010000I0J1000000D01*
G01*
%TO.C,J5*%
X96150000Y-70000000D02*
X96150000Y-71250000D01*
X96440000Y-70290000D02*
X96440000Y-76260000D01*
X96440000Y-76260000D02*
X106560000Y-76260000D01*
X96450000Y-70300000D02*
X96450000Y-71050000D01*
X96450000Y-71050000D02*
X98250000Y-71050000D01*
X96450000Y-72550000D02*
X97200000Y-72550000D01*
X97200000Y-72550000D02*
X97200000Y-73890000D01*
X97400000Y-70000000D02*
X96150000Y-70000000D01*
X98250000Y-70300000D02*
X96450000Y-70300000D01*
X98250000Y-71050000D02*
X98250000Y-70300000D01*
X99750000Y-70300000D02*
X99750000Y-71050000D01*
X99750000Y-71050000D02*
X103250000Y-71050000D01*
X101500000Y-75500000D02*
X98260000Y-75500000D01*
X103250000Y-70300000D02*
X99750000Y-70300000D01*
X103250000Y-71050000D02*
X103250000Y-70300000D01*
X104750000Y-70300000D02*
X104750000Y-71050000D01*
X104750000Y-71050000D02*
X106550000Y-71050000D01*
X105800000Y-72550000D02*
X105800000Y-75500000D01*
X105800000Y-75500000D02*
X101500000Y-75500000D01*
X106550000Y-70300000D02*
X104750000Y-70300000D01*
X106550000Y-71050000D02*
X106550000Y-70300000D01*
X106550000Y-72550000D02*
X105800000Y-72550000D01*
X106560000Y-70290000D02*
X96440000Y-70290000D01*
X106560000Y-76260000D02*
X106560000Y-70290000D01*
%TO.C,U17*%
X79670000Y-101840000D02*
X79670000Y-103490000D01*
X79670000Y-105490000D02*
X79670000Y-107140000D01*
X79670000Y-107140000D02*
X89950000Y-107140000D01*
X89950000Y-101840000D02*
X79670000Y-101840000D01*
X89950000Y-107140000D02*
X89950000Y-101840000D01*
X79670000Y-103490000D02*
G75*
G02*
X79670000Y-105490000I0J-1000000D01*
G01*
%TO.C,U19*%
X67170000Y-101660000D02*
X67170000Y-103310000D01*
X67170000Y-105310000D02*
X67170000Y-106960000D01*
X67170000Y-106960000D02*
X77450000Y-106960000D01*
X77450000Y-101660000D02*
X67170000Y-101660000D01*
X77450000Y-106960000D02*
X77450000Y-101660000D01*
X67170000Y-103310000D02*
G75*
G02*
X67170000Y-105310000I0J-1000000D01*
G01*
%TO.C,SW1*%
X199090000Y-110740000D02*
X207910000Y-110740000D01*
X199090000Y-111050000D02*
X199090000Y-110740000D01*
X199090000Y-115260000D02*
X199090000Y-114950000D01*
X201000000Y-110040000D02*
X201500000Y-110540000D01*
X201500000Y-110540000D02*
X202000000Y-110040000D01*
X202000000Y-110040000D02*
X201000000Y-110040000D01*
X207910000Y-110740000D02*
X207910000Y-111050000D01*
X207910000Y-115260000D02*
X199090000Y-115260000D01*
X207910000Y-115260000D02*
X207910000Y-114950000D01*
%TO.C,C4*%
X205288748Y-115765000D02*
X205811252Y-115765000D01*
X205288748Y-117235000D02*
X205811252Y-117235000D01*
%TO.C,J10*%
X151400000Y-70000000D02*
X151400000Y-71250000D01*
X151690000Y-70290000D02*
X151690000Y-76260000D01*
X151690000Y-76260000D02*
X161810000Y-76260000D01*
X151700000Y-70300000D02*
X151700000Y-71050000D01*
X151700000Y-71050000D02*
X153500000Y-71050000D01*
X151700000Y-72550000D02*
X152450000Y-72550000D01*
X152450000Y-72550000D02*
X152450000Y-73890000D01*
X152650000Y-70000000D02*
X151400000Y-70000000D01*
X153500000Y-70300000D02*
X151700000Y-70300000D01*
X153500000Y-71050000D02*
X153500000Y-70300000D01*
X155000000Y-70300000D02*
X155000000Y-71050000D01*
X155000000Y-71050000D02*
X158500000Y-71050000D01*
X156750000Y-75500000D02*
X153510000Y-75500000D01*
X158500000Y-70300000D02*
X155000000Y-70300000D01*
X158500000Y-71050000D02*
X158500000Y-70300000D01*
X160000000Y-70300000D02*
X160000000Y-71050000D01*
X160000000Y-71050000D02*
X161800000Y-71050000D01*
X161050000Y-72550000D02*
X161050000Y-75500000D01*
X161050000Y-75500000D02*
X156750000Y-75500000D01*
X161800000Y-70300000D02*
X160000000Y-70300000D01*
X161800000Y-71050000D02*
X161800000Y-70300000D01*
X161800000Y-72550000D02*
X161050000Y-72550000D01*
X161810000Y-70290000D02*
X151690000Y-70290000D01*
X161810000Y-76260000D02*
X161810000Y-70290000D01*
%TO.C,R59*%
X222765000Y-122302936D02*
X222765000Y-122757064D01*
X224235000Y-122302936D02*
X224235000Y-122757064D01*
%TO.C,U9*%
X82300000Y-118540000D02*
X82300000Y-123840000D01*
X82300000Y-123840000D02*
X92580000Y-123840000D01*
X92580000Y-118540000D02*
X82300000Y-118540000D01*
X92580000Y-120190000D02*
X92580000Y-118540000D01*
X92580000Y-123840000D02*
X92580000Y-122190000D01*
X92580000Y-122190000D02*
G75*
G02*
X92580000Y-120190000I0J1000000D01*
G01*
%TO.C,C24*%
X99261252Y-105515000D02*
X98738748Y-105515000D01*
X99261252Y-106985000D02*
X98738748Y-106985000D01*
%TO.C,U7*%
X57350000Y-129360000D02*
X57350000Y-134660000D01*
X57350000Y-134660000D02*
X67630000Y-134660000D01*
X67630000Y-129360000D02*
X57350000Y-129360000D01*
X67630000Y-131010000D02*
X67630000Y-129360000D01*
X67630000Y-134660000D02*
X67630000Y-133010000D01*
X67630000Y-133010000D02*
G75*
G02*
X67630000Y-131010000I0J1000000D01*
G01*
%TO.C,J14*%
X196400000Y-70000000D02*
X196400000Y-71250000D01*
X196690000Y-70290000D02*
X196690000Y-76260000D01*
X196690000Y-76260000D02*
X206810000Y-76260000D01*
X196700000Y-70300000D02*
X196700000Y-71050000D01*
X196700000Y-71050000D02*
X198500000Y-71050000D01*
X196700000Y-72550000D02*
X197450000Y-72550000D01*
X197450000Y-72550000D02*
X197450000Y-73890000D01*
X197650000Y-70000000D02*
X196400000Y-70000000D01*
X198500000Y-70300000D02*
X196700000Y-70300000D01*
X198500000Y-71050000D02*
X198500000Y-70300000D01*
X200000000Y-70300000D02*
X200000000Y-71050000D01*
X200000000Y-71050000D02*
X203500000Y-71050000D01*
X201750000Y-75500000D02*
X198510000Y-75500000D01*
X203500000Y-70300000D02*
X200000000Y-70300000D01*
X203500000Y-71050000D02*
X203500000Y-70300000D01*
X205000000Y-70300000D02*
X205000000Y-71050000D01*
X205000000Y-71050000D02*
X206800000Y-71050000D01*
X206050000Y-72550000D02*
X206050000Y-75500000D01*
X206050000Y-75500000D02*
X201750000Y-75500000D01*
X206800000Y-70300000D02*
X205000000Y-70300000D01*
X206800000Y-71050000D02*
X206800000Y-70300000D01*
X206800000Y-72550000D02*
X206050000Y-72550000D01*
X206810000Y-70290000D02*
X196690000Y-70290000D01*
X206810000Y-76260000D02*
X206810000Y-70290000D01*
%TO.C,R71*%
X105265000Y-149973752D02*
X105265000Y-149451248D01*
X106735000Y-149973752D02*
X106735000Y-149451248D01*
%TD*%
M02*
