M48
; DRILL file {KiCad 8.0.5} date 2024-10-01T19:04:00-0700
; FORMAT={-:-/ absolute / inch / decimal}
; #@! TF.CreationDate,2024-10-01T19:04:00-07:00
; #@! TF.GenerationSoftware,Kicad,Pcbnew,8.0.5
; #@! TF.FileFunction,Plated,1,2,PTH
FMAT,2
INCH
; #@! TA.AperFunction,Plated,PTH,ViaDrill
T1C0.0157
; #@! TA.AperFunction,Plated,PTH,ComponentDrill
T2C0.0236
; #@! TA.AperFunction,Plated,PTH,ComponentDrill
T3C0.0315
; #@! TA.AperFunction,Plated,PTH,ComponentDrill
T4C0.0374
; #@! TA.AperFunction,Plated,PTH,ComponentDrill
T5C0.0402
; #@! TA.AperFunction,Plated,PTH,ComponentDrill
T6C0.0421
; #@! TA.AperFunction,Plated,PTH,ComponentDrill
T7C0.0591
; #@! TA.AperFunction,Plated,PTH,ComponentDrill
T8C0.1772
%
G90
G05
T1
X2.2539Y-3.7205
X2.3622Y-3.9075
X2.4705Y-4.1043
X2.4902Y-5.2165
X2.5394Y-5.5413
X2.6083Y-4.5866
X2.6476Y-4.626
X2.6575Y-5.8661
X2.7461Y-6.1516
X2.7559Y-5.6299
X2.7854Y-4.0551
X2.7854Y-6.0433
X2.8051Y-6.1413
X2.8105Y-5.689
X2.815Y-5.502
X2.815Y-6.2992
X2.8346Y-4.498
X2.8346Y-4.6752
X2.8445Y-5.8366
X2.8642Y-6.0531
X2.874Y-6.1516
X2.8937Y-5.6299
X2.9232Y-5.8563
X2.9429Y-5.7185
X2.9921Y-5.2559
X3.061Y-5.5118
X3.0906Y-5.7874
X3.1398Y-4.872
X3.1988Y-5.0972
X3.5039Y-4.8031
X3.5138Y-5.2657
X3.6713Y-4.4685
X3.6909Y-5.0394
X3.8091Y-5.6201
X3.9469Y-4.1142
X4.0256Y-4.7736
X4.0354Y-5.2461
X4.1831Y-4.3504
X4.2224Y-4.2815
X4.2323Y-4.1339
X4.3996Y-5.4823
X4.4587Y-4.1339
X4.4587Y-4.4882
X4.5374Y-4.8031
X4.5374Y-5.2362
X4.5571Y-4.498
X4.5866Y-4.3406
X4.5965Y-4.4291
X4.6555Y-4.9902
X4.6555Y-5.7087
X4.7047Y-5.748
X4.7244Y-4.5768
X4.7441Y-3.8386
X4.7441Y-3.9961
X4.7539Y-3.6024
X4.7539Y-3.6516
X4.7539Y-5.7579
X4.7559Y-3.7126
X4.7638Y-3.9075
X4.7736Y-5.8071
X5.0984Y-5.4331
X5.5709Y-4.2028
X6.2598Y-3.75
X6.3386Y-3.4941
X6.6634Y-3.6811
X6.6732Y-3.6024
X7.2638Y-5.9547
X7.3425Y-5.9744
X7.5295Y-3.9469
X7.5791Y-4.2417
X7.6083Y-5.7087
X7.8346Y-4.9902
X7.8543Y-4.8425
X7.8543Y-5.8858
X7.8937Y-5.5315
X7.9528Y-3.8287
X7.9528Y-4.1732
X7.9626Y-6.1713
X8.0315Y-5.0984
X8.0512Y-5.315
X8.1102Y-4.6457
X8.1102Y-5.9843
X8.1496Y-4.685
X8.189Y-4.626
X8.2283Y-5.9449
X8.3366Y-5.0
X8.376Y-5.5217
X8.3957Y-4.8031
X8.3957Y-6.063
X8.5039Y-6.063
X8.5433Y-5.3543
X8.622Y-4.6457
X8.6417Y-4.685
X8.6811Y-5.0787
X8.7008Y-6.0039
X8.7205Y-4.626
X8.7992Y-5.315
X8.7992Y-6.1614
X8.8484Y-5.502
T3
X2.2098Y-3.5484
X2.2098Y-3.8484
X2.2098Y-3.9618
X2.2098Y-4.2618
X2.3098Y-3.5484
X2.3098Y-3.8484
X2.3098Y-3.9618
X2.3098Y-4.2618
X2.3102Y-5.0472
X2.3102Y-5.3472
X2.4098Y-3.5484
X2.4098Y-3.8484
X2.4098Y-3.9618
X2.4098Y-4.2618
X2.4102Y-5.0472
X2.4102Y-5.3472
X2.5098Y-3.5484
X2.5098Y-3.8484
X2.5098Y-3.9618
X2.5098Y-4.2618
X2.5102Y-5.0472
X2.5102Y-5.3472
X2.6102Y-5.0472
X2.6102Y-5.3472
X2.6969Y-3.5484
X2.6969Y-3.8484
X2.6969Y-3.9567
X2.6969Y-4.2567
X2.7969Y-3.5484
X2.7969Y-3.8484
X2.7969Y-3.9567
X2.7969Y-4.2567
X2.8004Y-5.0445
X2.8004Y-5.3445
X2.8969Y-3.5484
X2.8969Y-3.8484
X2.8969Y-3.9567
X2.8969Y-4.2567
X2.9004Y-5.0445
X2.9004Y-5.3445
X2.9969Y-3.5484
X2.9969Y-3.8484
X2.9969Y-3.9567
X2.9969Y-4.2567
X3.0004Y-5.0445
X3.0004Y-5.3445
X3.1004Y-5.0445
X3.1004Y-5.3445
X3.187Y-3.5602
X3.187Y-3.8602
X3.189Y-3.9638
X3.189Y-4.2638
X3.2638Y-5.9252
X3.2638Y-6.4272
X3.287Y-3.5602
X3.287Y-3.8602
X3.289Y-3.9638
X3.289Y-4.2638
X3.2925Y-4.6213
X3.2925Y-4.9213
X3.2945Y-5.0472
X3.2945Y-5.3472
X3.3425Y-5.9252
X3.3425Y-6.4272
X3.387Y-3.5602
X3.387Y-3.8602
X3.389Y-3.9638
X3.389Y-4.2638
X3.3925Y-4.6213
X3.3925Y-4.9213
X3.3945Y-5.0472
X3.3945Y-5.3472
X3.4213Y-5.9252
X3.4213Y-6.4272
X3.487Y-3.5602
X3.487Y-3.8602
X3.489Y-3.9638
X3.489Y-4.2638
X3.4925Y-4.6213
X3.4925Y-4.9213
X3.4945Y-5.0472
X3.4945Y-5.3472
X3.5925Y-4.6213
X3.5925Y-4.9213
X3.5945Y-5.0472
X3.5945Y-5.3472
X3.6693Y-3.5602
X3.6693Y-3.8602
X3.7421Y-6.4253
X3.7461Y-5.9252
X3.7693Y-3.5602
X3.7693Y-3.8602
X3.7866Y-4.6142
X3.7866Y-4.9142
X3.7866Y-5.0472
X3.7866Y-5.3472
X3.8209Y-6.4253
X3.8248Y-5.9252
X3.8693Y-3.5602
X3.8693Y-3.8602
X3.8866Y-4.6142
X3.8866Y-4.9142
X3.8866Y-5.0472
X3.8866Y-5.3472
X3.8996Y-6.4253
X3.9035Y-5.9252
X3.9693Y-3.5602
X3.9693Y-3.8602
X3.9866Y-4.6142
X3.9866Y-4.9142
X3.9866Y-5.0472
X3.9866Y-5.3472
X4.0866Y-4.6142
X4.0866Y-4.9142
X4.0866Y-5.0472
X4.0866Y-5.3472
X4.1516Y-3.5602
X4.1516Y-3.8602
X4.2516Y-3.5602
X4.2516Y-3.8602
X4.2787Y-4.6142
X4.2787Y-4.9142
X4.2787Y-5.0472
X4.2787Y-5.3472
X4.3516Y-3.5602
X4.3516Y-3.8602
X4.3787Y-4.6142
X4.3787Y-4.9142
X4.3787Y-5.0472
X4.3787Y-5.3472
X4.4516Y-3.5602
X4.4516Y-3.8602
X4.4787Y-4.6142
X4.4787Y-4.9142
X4.4787Y-5.0472
X4.4787Y-5.3472
X4.5787Y-4.6142
X4.5787Y-4.9142
X4.5787Y-5.0472
X4.5787Y-5.3472
X7.8543Y-4.685
X7.9331Y-4.4488
X7.9331Y-4.685
X8.0118Y-4.4488
X8.0906Y-4.4488
X8.2015Y-5.6299
X8.2999Y-5.6299
X8.3661Y-4.6654
X8.4311Y-3.4843
X8.4449Y-4.6654
X8.5039Y-4.4488
X8.5098Y-3.4843
X8.5827Y-4.4488
X8.5886Y-3.4843
X8.6614Y-4.4488
X8.6739Y-5.6299
X8.7723Y-5.6299
T4
X2.5689Y-2.8642
X2.6673Y-2.8642
X2.7657Y-2.8642
X3.0118Y-2.8642
X3.1102Y-2.8642
X3.2087Y-2.8642
X3.4547Y-2.8642
X3.5531Y-2.8642
X3.6516Y-2.8642
X3.8976Y-2.8642
X3.9961Y-2.8642
X4.0945Y-2.8642
X4.3406Y-2.8642
X4.439Y-2.8642
X4.5374Y-2.8642
X5.187Y-2.8642
X5.2854Y-2.8642
X5.3839Y-2.8642
X5.6299Y-2.8642
X5.7283Y-2.8642
X5.8268Y-2.8642
X6.0728Y-2.8642
X6.1713Y-2.8642
X6.2697Y-2.8642
X6.5157Y-2.8642
X6.6142Y-2.8642
X6.7126Y-2.8642
X6.9587Y-2.8642
X7.0571Y-2.8642
X7.1555Y-2.8642
X7.4016Y-2.8642
X7.5Y-2.8642
X7.5984Y-2.8642
X7.8445Y-2.8642
X7.9429Y-2.8642
X8.0413Y-2.8642
T5
X4.9311Y-3.4937
X4.9311Y-3.5937
X4.9311Y-3.6937
X4.9311Y-3.7937
X4.9311Y-3.8937
X4.9311Y-3.9937
X4.9311Y-4.0937
X4.9311Y-4.1937
X4.9311Y-4.2937
X4.9311Y-4.3937
X4.9311Y-4.4937
X4.9311Y-4.5937
X4.9311Y-4.6937
X4.9311Y-4.7937
X4.9311Y-4.8937
X4.9311Y-4.9937
X4.9311Y-5.0937
X4.9311Y-5.1937
X4.9311Y-5.2937
X5.0311Y-3.4937
X5.0311Y-3.5937
X5.0311Y-3.6937
X5.0311Y-3.7937
X5.0311Y-3.8937
X5.0311Y-3.9937
X5.0311Y-4.0937
X5.0311Y-4.1937
X5.0311Y-4.2937
X5.0311Y-4.3937
X5.0311Y-4.4937
X5.0311Y-4.5937
X5.0311Y-4.6937
X5.0311Y-4.7937
X5.0311Y-4.8937
X5.0311Y-4.9937
X5.0311Y-5.0937
X5.0311Y-5.1937
X5.0311Y-5.2937
X7.3311Y-3.4937
X7.3311Y-3.5937
X7.3311Y-3.6937
X7.3311Y-3.7937
X7.3311Y-3.8937
X7.3311Y-3.9937
X7.3311Y-4.0937
X7.3311Y-4.1937
X7.3311Y-4.2937
X7.3311Y-4.3937
X7.3311Y-4.4937
X7.3311Y-4.5937
X7.3311Y-4.6937
X7.3311Y-4.7937
X7.3311Y-4.8937
X7.3311Y-4.9937
X7.3311Y-5.0937
X7.3311Y-5.1937
X7.3311Y-5.2937
X7.4311Y-3.4937
X7.4311Y-3.5937
X7.4311Y-3.6937
X7.4311Y-3.7937
X7.4311Y-3.8937
X7.4311Y-3.9937
X7.4311Y-4.0937
X7.4311Y-4.1937
X7.4311Y-4.2937
X7.4311Y-4.3937
X7.4311Y-4.4937
X7.4311Y-4.5937
X7.4311Y-4.6937
X7.4311Y-4.7937
X7.4311Y-4.8937
X7.4311Y-4.9937
X7.4311Y-5.0937
X7.4311Y-5.1937
X7.4311Y-5.2937
T6
X5.2311Y-3.4937
X5.2311Y-3.5937
X5.2311Y-3.6937
X5.2311Y-3.7937
X5.2311Y-3.8937
X5.2311Y-3.9937
X5.2311Y-4.0937
X5.2311Y-4.1937
X5.2311Y-4.3535
X5.2311Y-4.4535
X5.2311Y-4.5535
X5.2311Y-4.6535
X5.2311Y-4.7535
X5.2311Y-4.8535
X5.2311Y-4.9535
X5.2311Y-5.0535
X5.2311Y-5.1535
X5.2311Y-5.2535
X7.1311Y-3.4937
X7.1311Y-3.5937
X7.1311Y-3.6937
X7.1311Y-3.7937
X7.1311Y-3.8937
X7.1311Y-3.9937
X7.1311Y-4.1937
X7.1311Y-4.2937
X7.1311Y-4.3937
X7.1311Y-4.4937
X7.1311Y-4.5937
X7.1311Y-4.6937
X7.1311Y-4.7937
X7.1311Y-4.8937
T7
X3.1811Y-5.9252
X3.1811Y-6.4272
X3.5039Y-5.9252
X3.5039Y-6.4272
X3.6594Y-6.4253
X3.6634Y-5.9252
X3.9823Y-6.4253
X3.9862Y-5.9252
X7.8504Y-4.4488
X8.1732Y-4.4488
X8.3484Y-3.4843
X8.4213Y-4.4488
X8.6713Y-3.4843
X8.7441Y-4.4488
T8
X8.378Y-4.0945
X8.6614Y-4.0945
T2
G00X2.652Y-6.2311
M15
G01X2.652Y-6.2744
M16
G05
G00X2.652Y-6.4016
M15
G01X2.652Y-6.4331
M16
G05
G00X2.9921Y-6.2311
M15
G01X2.9921Y-6.2744
M16
G05
G00X2.9921Y-6.4016
M15
G01X2.9921Y-6.4331
M16
G05
M30
